<svg xmlns="http://www.w3.org/2000/svg" width="50" height="50" viewBox="0 0 50 50"><g><g><g><path fill="#f7df1e" d="M0 0h50v50H0z"/></g><g><path d="M13.17 41.786c1.108 2.344 3.287 4.291 7.048 4.291 4.164 0 7.016-2.214 7.016-7.08V22.959h-4.698v15.976c0 2.349-.974 2.953-2.518 2.953-1.614 0-2.285-1.107-3.023-2.417zm16.604-.505c1.38 2.726 4.198 4.805 8.562 4.805 4.463 0 7.786-2.317 7.786-6.548 0-3.923-2.254-5.669-6.246-7.38l-1.175-.504c-2.016-.873-2.889-1.443-2.889-2.853 0-1.14.872-2.013 2.248-2.013 1.35 0 2.219.569 3.024 2.013l3.659-2.35c-1.548-2.721-3.695-3.761-6.683-3.761-4.196 0-6.88 2.683-6.88 6.206 0 3.826 2.252 5.635 5.642 7.08l1.175.504c2.143.937 3.42 1.508 3.42 3.119 0 1.344-1.243 2.317-3.19 2.317-2.317 0-3.628-1.209-4.635-2.853z"/></g></g></g></svg>