<svg xmlns="http://www.w3.org/2000/svg" width="45" height="50" viewBox="0 0 45 50"><g><g><g><path fill="#9a4993" d="M44.23 14.684c0-.835-.176-1.589-.544-2.219-.355-.63-.886-1.15-1.595-1.56C36.205 7.493 30.305 4.082 24.418.672c-1.594-.918-3.12-.89-4.7.041-2.345 1.383-14.09 8.15-17.579 10.19C.695 11.74 0 13.027 0 14.698v20.599c0 .822.177 1.548.518 2.178.354.643.9 1.191 1.621 1.616 3.502 2.04 15.234 8.793 17.578 10.19 1.58.931 3.12.972 4.701.04 5.887-3.423 11.787-6.82 17.673-10.23.736-.425 1.268-.959 1.622-1.616.34-.63.518-1.356.518-2.178V14.684"/></g><g><path fill="#6a1577" d="M21.717 25L0 37.51c.355.642.9 1.188 1.624 1.612 3.508 2.035 15.26 8.768 17.608 10.16 1.584.93 3.126.97 4.71.042 5.896-3.415 11.806-6.802 17.703-10.202.737-.424 1.27-.956 1.624-1.612L21.717 25"/></g><g><path fill="#6a1577" d="M16.35 28.365c1.245 2.012 3.573 3.366 6.237 3.366 2.69 0 5.032-1.366 6.263-3.403L22.654 25l-6.304 3.365"/></g><g><path fill="#813084" d="M44.235 15.68c0-.836-.177-1.59-.546-2.22L22.12 25.912 43.716 38.46c.342-.63.52-1.356.52-2.178V15.679"/></g><g><path fill="#fff" d="M28.128 29.12a7.434 7.434 0 0 1-6.474 3.788 7.397 7.397 0 0 1-6.445-3.747 7.38 7.38 0 0 1-.982-3.677 7.418 7.418 0 0 1 7.427-7.424 7.423 7.423 0 0 1 6.418 3.705l6.487-3.733c-2.586-4.452-7.4-7.452-12.918-7.452-8.244 0-14.911 6.678-14.911 14.904 0 2.696.72 5.24 1.978 7.424a14.935 14.935 0 0 0 12.946 7.48c5.547 0 10.388-3.028 12.96-7.521l-6.486-3.747"/></g><g><g><path fill="#fff" d="M35.81 22.18h1.359v6.566H35.81z"/></g><g><path fill="#fff" d="M38.82 22.18h1.359v6.566H38.82z"/></g><g><path fill="#fff" d="M34.72 23.28h6.566v1.359H34.72z"/></g><g><path fill="#fff" d="M34.72 26.28h6.566v1.359H34.72z"/></g></g></g></g></svg>