<svg xmlns="http://www.w3.org/2000/svg" width="118" height="50" viewBox="0 0 118 50"><g><g><g><path fill="#fff" d="M.46 24.949c0 4.132 4.082 8.06 10.46 10.204-1.276 6.428-.205 11.632 3.264 13.622 3.623 2.092 8.98.664 14.031-3.826 4.95 4.285 10 5.97 13.47 3.928 3.622-2.092 4.693-7.602 3.367-14.234 6.684-2.194 10.408-5.51 10.408-9.745 0-4.082-4.082-7.551-10.357-9.745 1.428-6.888.204-11.99-3.419-14.082-3.52-2.04-8.57-.255-13.622 4.133C22.807.56 17.807-.868 14.133 1.224c-3.52 2.041-4.54 7.296-3.214 13.878C4.695 17.347.46 20.918.46 24.949z"/></g><g><path fill="#39d8ff" d="M43.773 17.4c-.51-.153-1.02-.357-1.582-.51.102-.357.153-.714.256-1.071 1.173-5.765.408-10.46-2.245-11.99-2.551-1.48-6.735.051-10.919 3.725-.408.357-.816.714-1.224 1.122-.255-.255-.51-.51-.817-.765-4.387-3.929-8.826-5.562-11.48-4.03-2.55 1.479-3.315 5.866-2.244 11.326.102.56.204 1.071.357 1.632-.612.153-1.224.357-1.786.561-5.153 1.786-8.469 4.643-8.469 7.552 0 3.01 3.571 6.07 8.929 7.908.459.153.867.306 1.326.408-.153.561-.255 1.173-.408 1.735-1.02 5.408-.204 9.642 2.296 11.122 2.602 1.53 7.04-.051 11.326-3.776.358-.306.664-.612 1.02-.918.409.408.868.816 1.327 1.225 4.133 3.571 8.266 5 10.817 3.571 2.602-1.53 3.469-6.122 2.347-11.684-.102-.408-.204-.867-.307-1.326l.919-.306c5.612-1.837 9.235-4.847 9.235-7.908 0-2.909-3.419-5.766-8.674-7.603z"/></g><g><path fill="#fff" d="M40.352 15.406c-.05.306-.153.663-.204.97-2.141-.51-4.334-.817-6.526-1.021a57.085 57.085 0 0 0-4.13-5.153 20.31 20.31 0 0 1 1.122-1.02c3.62-3.164 6.985-4.388 8.514-3.52 1.632.968 2.295 4.744 1.224 9.744zm-7.864 17.357a63.636 63.636 0 0 1-4.486.153 62.17 62.17 0 0 1-4.435-.153c-.866-1.225-1.631-2.502-2.396-3.778-.764-1.276-1.427-2.604-2.09-3.931.663-1.327 1.326-2.655 2.09-3.931.765-1.277 1.53-2.553 2.345-3.778a65.022 65.022 0 0 1 8.92 0c.816 1.225 1.632 2.501 2.346 3.778.764 1.276 1.427 2.604 2.09 3.93-.612 1.328-1.326 2.656-2.04 3.932-.764 1.276-1.529 2.553-2.344 3.778zm5.57-5.316c.612 1.428 1.172 2.857 1.63 4.286a35.025 35.025 0 0 1-4.532.765c.51-.816 1.019-1.633 1.477-2.5.51-.816.968-1.684 1.426-2.551zm-9.95 11.02c-1.018-1.122-2.037-2.296-2.954-3.52.917.05 1.885.05 2.853.05 1.019 0 1.987 0 2.955-.05-.917 1.224-1.834 2.398-2.853 3.52zm-7.2-5.918c-1.527-.153-3.004-.408-4.48-.714a44.13 44.13 0 0 1 1.578-4.337c.458.867.917 1.684 1.375 2.55.51.868 1.018 1.685 1.528 2.5zm-2.902-9.898c-.56-1.378-1.12-2.806-1.527-4.235a67.005 67.005 0 0 1 4.43-.765A19.8 19.8 0 0 0 19.38 20.1a115.64 115.64 0 0 0-1.375 2.55zm10.052-10.97c1.019 1.123 1.987 2.245 2.853 3.47a54.165 54.165 0 0 0-5.757 0 61.557 61.557 0 0 1 2.904-3.47zm8.575 8.368c-.458-.816-.967-1.633-1.477-2.45a49.79 49.79 0 0 1 4.43.766c-.458 1.429-.967 2.857-1.578 4.184a41.954 41.954 0 0 0-1.375-2.5zM16.783 5.712c1.632-.969 5.252.408 9.076 3.772.255.204.51.459.714.663a57.607 57.607 0 0 0-4.18 5.148c-2.193.204-4.386.51-6.527 1.02a73.481 73.481 0 0 1-.306-1.479c-.918-4.69-.306-8.207 1.224-9.124zM7.495 27.957c-1.223-1.02-1.835-2.092-1.835-2.908 0-1.786 2.651-4.03 7.087-5.612.56-.204 1.122-.358 1.683-.51.662 2.091 1.427 4.183 2.396 6.173a54.838 54.838 0 0 0-2.396 6.275c-.46-.153-.867-.306-1.224-.408-2.09-.663-3.977-1.683-5.71-3.01zm9.34 16.48c-1.53-.868-2.193-4.337-1.326-8.929.102-.561.204-1.071.357-1.633 2.192.46 4.385.766 6.577.97 1.275 1.837 2.702 3.571 4.181 5.204-.306.306-.612.561-.918.867a19.933 19.933 0 0 1-5.455 3.368c-1.479.51-2.703.56-3.417.153zm23.721-9.49c.459 2.143.561 4.286.255 6.428-.306 1.582-.867 2.602-1.58 3.01-1.53.868-4.844-.255-8.362-3.316a24.446 24.446 0 0 1-1.224-1.122 44.691 44.691 0 0 0 4.079-5.204c2.243-.204 4.436-.51 6.628-1.02 0 .459.102.816.204 1.224zm1.181-3.735c-.663-2.14-1.53-4.18-2.447-6.168a52.458 52.458 0 0 0 2.396-6.118c.51.153.969.306 1.428.46 4.538 1.529 7.29 3.874 7.29 5.607-.05 1.886-3.007 4.333-7.85 5.964-.256.102-.562.153-.817.255z"/></g><g><path fill="#39d8ff" d="M115.712 32.037c-1.939 0-3.214-1.123-3.214-3.52v-6.378h-2.041v-1.633h2.04v-3.928h1.94v3.928h3.316v1.633h-3.317l-.05 6.02c0 1.582.714 2.092 1.887 2.092.51 0 1.071-.102 1.53-.306l.103 1.786a5.33 5.33 0 0 1-2.194.306zm-8.214-7.343a2.867 2.867 0 0 0-2.858-2.758h-.102c-2.091 0-3.265 1.48-3.265 3.779v.919c0 2.298 1.174 3.779 3.265 3.779 1.48.102 2.806-1.022 2.909-2.502v-.052h1.836c-.255 2.605-2.194 4.188-4.745 4.188-3.163 0-5.204-1.94-5.204-5.464v-.766c0-3.524 2.041-5.464 5.204-5.464 2.653-.051 4.592 1.634 4.745 4.34zm-16.068 5.71a4.238 4.238 0 0 0 3.016-1.428v-1.837a20.63 20.63 0 0 0-2.504-.153c-1.687-.051-2.71.51-2.71 1.683 0 1.123.818 1.735 2.198 1.735zm4.894 1.429h-1.939v-1.174a4.727 4.727 0 0 1-3.52 1.378c-2.04 0-3.572-1.174-3.572-3.266 0-2.449 1.94-3.367 4.44-3.367.867 0 1.734.051 2.601.153v-.867c0-1.633-.714-2.704-2.347-2.704-1.326-.051-2.449.918-2.5 2.245v.204H87.55c0-2.041 1.581-4.03 4.387-4.03 2.96-.103 4.388 1.632 4.388 4.54zM76.885 25.2h6.072v-.255c0-1.633-.868-3.01-2.908-3.01-1.633-.102-3.062 1.173-3.164 2.806zm3.215 5.213c1.683 0 2.704-.868 2.857-2.145h1.939c-.205 2.196-2.092 3.779-4.745 3.779-3.164 0-5.153-2.043-5.153-5.464v-.766c0-3.37 1.938-5.464 5.102-5.464 3.06 0 4.847 1.992 4.847 5.209v1.276h-8.062v.204c0 1.89 1.174 3.37 3.215 3.37zm-13.419-7.11c2.092 0 3.572-.969 3.572-2.853v-.51c0-1.935-1.48-2.903-3.572-2.903h-3.98v6.265zm.561 1.846h-4.54v6.633H60.66V15.2h6.122c3.215 0 5.51 1.53 5.51 4.694v.561c0 2.245-1.173 3.674-2.959 4.286l3.929 7.04h-2.296zM28.008 20.71a4.387 4.387 0 1 1 0 8.776 4.387 4.387 0 0 1-4.388-4.388z"/></g></g></g></svg>