<svg xmlns="http://www.w3.org/2000/svg" width="153" height="40" viewBox="0 0 153 40"><g><g><g><g><path fill="#ccc" d="M41.3 12.79l9.598 12.637V12.79h1.92v15.686h-2.03L41.19 15.73v12.747h-1.92V12.79z"/></g><g><path fill="#ccc" d="M68.395 27.862c-1.265.484-2.63.724-4.092.724-5.681 0-8.523-2.723-8.523-8.172 0-5.156 2.742-7.734 8.226-7.734 1.574 0 3.037.22 4.389.66v1.754a11.683 11.683 0 0 0-4.17-.768c-4.277 0-6.415 2.03-6.415 6.088 0 4.351 2.105 6.528 6.319 6.528.671 0 1.417-.089 2.237-.265v-5.33h2.029v6.515z"/></g><g><path fill="#ccc" d="M71.63 22.42v-9.63h2.028v9.63c0 3.013 1.5 4.522 4.498 4.522s4.498-1.509 4.498-4.522v-9.63h2.03v9.63c0 4.112-2.176 6.166-6.528 6.166-4.35 0-6.526-2.054-6.526-6.165z"/></g><g><path fill="#ccc" d="M98.535 26.832v1.644H88.3V12.79h2.028v14.042z"/></g><g><path fill="#ccc" d="M107.159 10.72l7.799 17.756h-2.248l-2.03-4.937h-5.188l.56-1.644H110l-2.93-7.109-5.605 13.69H99.36z"/></g><g><path fill="#ccc" d="M117.1 28.476V12.79h6.692c2.984 0 4.475 1.255 4.475 3.762 0 2.041-1.458 3.552-4.376 4.53l5.386 7.395H126.6l-4.99-7.054v-1.326c2.997-.476 4.496-1.628 4.496-3.456 0-1.447-.833-2.172-2.5-2.172h-4.477v14.008H117.1z"/></g><g><path fill="#ccc" d="M136.881 12.79v11.167c0 3.013-1.773 4.52-5.321 4.52V26.83c2.194 0 3.292-.959 3.292-2.874V12.79h2.03z"/></g><g><path fill="#ccc" d="M140.5 27.928v-1.865c1.646.585 3.422.879 5.331.879 2.699 0 4.048-.988 4.048-2.964 0-1.68-.995-2.522-2.984-2.522h-2.02c-3.282 0-4.925-1.425-4.925-4.278 0-2.997 2.104-4.498 6.31-4.498 1.827 0 3.527.221 5.1.66v1.864c-1.573-.585-3.273-.878-5.1-.878-2.853 0-4.279.951-4.279 2.852 0 1.682.965 2.523 2.895 2.523h2.019c3.341 0 5.013 1.427 5.013 4.277 0 3.073-2.025 4.609-6.077 4.609-1.909 0-3.685-.22-5.331-.659z"/></g><g><path d="M41.809 12.27l9.598 12.637V12.27h1.92v15.686h-2.029L41.7 15.21v12.747H39.78V12.27z"/></g><g><path d="M68.905 27.342c-1.265.484-2.629.725-4.092.725-5.682 0-8.523-2.724-8.523-8.173 0-5.156 2.742-7.734 8.228-7.734 1.572 0 3.035.22 4.387.66v1.754a11.682 11.682 0 0 0-4.168-.768c-4.278 0-6.417 2.03-6.417 6.088 0 4.351 2.106 6.528 6.319 6.528.672 0 1.418-.088 2.238-.265v-5.33h2.028v6.515z"/></g><g><path d="M72.14 21.902V12.27h2.028v9.632c0 3.012 1.5 4.52 4.499 4.52 2.997 0 4.497-1.508 4.497-4.52V12.27h2.03v9.632c0 4.11-2.176 6.164-6.527 6.164-4.352 0-6.527-2.053-6.527-6.164z"/></g><g><path d="M99.054 26.312v1.644H88.82V12.27h2.028v14.042z"/></g><g><path d="M107.67 10.2l7.798 17.757h-2.25l-2.028-4.937h-5.188l.56-1.645h3.948l-2.928-7.109-5.606 13.691H99.87z"/></g><g><path d="M117.61 27.956V12.27h6.691c2.985 0 4.475 1.254 4.475 3.762 0 2.04-1.457 3.552-4.375 4.53l5.386 7.394h-2.678l-4.99-7.053v-1.327c2.998-.477 4.498-1.627 4.498-3.456 0-1.448-.835-2.172-2.502-2.172h-4.476v14.008h-2.029z"/></g><g><path fill="#a6120d" d="M137.39 12.27v11.168c0 3.013-1.773 4.519-5.32 4.519v-1.645c2.194 0 3.291-.96 3.291-2.875V12.27z"/></g><g><path fill="#a6120d" d="M141.01 27.408v-1.864c1.646.584 3.422.878 5.331.878 2.698 0 4.048-.988 4.048-2.963 0-1.68-.995-2.522-2.984-2.522h-2.02c-3.282 0-4.925-1.426-4.925-4.279 0-2.998 2.103-4.498 6.31-4.498 1.827 0 3.527.221 5.1.66v1.864c-1.573-.585-3.273-.878-5.1-.878-2.853 0-4.279.951-4.279 2.852 0 1.682.964 2.523 2.895 2.523h2.019c3.34 0 5.013 1.426 5.013 4.278 0 3.072-2.025 4.608-6.077 4.608-1.909 0-3.686-.22-5.332-.659z"/></g><g><path d="M118.28 36.847V33.02h.454v1.384a1.04 1.04 0 0 1 .368-.305c.143-.07.297-.105.464-.105.347 0 .63.118.846.356.216.238.324.59.324 1.053 0 .44-.106.805-.32 1.096-.214.29-.51.436-.89.436a.912.912 0 0 1-.536-.153 1.277 1.277 0 0 1-.28-.29v.355zm1.218-.325c.253 0 .443-.1.57-.3.126-.202.189-.466.189-.795 0-.293-.063-.535-.19-.727a.624.624 0 0 0-.556-.289c-.213 0-.4.08-.561.236-.161.158-.241.418-.241.78 0 .261.033.473.099.635.123.307.353.46.69.46zm2.766-.19l.75-2.266h.518c-.066.179-.212.586-.439 1.221-.17.478-.311.868-.426 1.169-.27.71-.46 1.141-.57 1.297-.111.156-.301.234-.571.234a1.19 1.19 0 0 1-.152-.008 1.279 1.279 0 0 1-.131-.028v-.427c.081.023.14.037.176.042a.746.746 0 0 0 .096.008c.086 0 .15-.014.19-.043a.39.39 0 0 0 .103-.105 13.798 13.798 0 0 0 .21-.498l-1.028-2.862h.53z"/></g></g><g><g><path fill="#b3b3b3" d="M3.015 30.64l15.445 8.489 15.524-8.604 2.894-24.002L18.44.19.12 6.637z"/></g><g><path fill="#a6120d" d="M18.4 37.11l13.956-7.725L35.053 7.92 18.4 2.24z"/></g><g><path fill="#dd1b16" d="M18.402 37.1V2.23L2.18 8.012l2.48 21.466z"/></g><g><path fill="#f2f2f2" d="M18.397 19.577h-3.341l3.371-7.997 4.111 8.137zm0-16.077L7.07 28.699l4.224-.078 2.272-5.681h4.831l4.584-2.144z"/></g><g><path fill="#b3b3b3" d="M22.256 19.583H18.41l-.009 3.352 5.32.005 2.487 5.76 4.042.075L18.4 3.5l.03 8.08z"/></g></g><g><g><path d="M134.519 36.14c-.65 0-1.208-.535-1.208-1.298 0-.77.559-1.298 1.208-1.298.649 0 1.208.527 1.208 1.298 0 .762-.56 1.298-1.208 1.298zm0-3.44c-1.184 0-2.149.9-2.149 2.142 0 1.233.965 2.142 2.149 2.142 1.184 0 2.149-.909 2.149-2.142 0-1.242-.965-2.142-2.15-2.142z"/></g><g><path d="M139.149 36.14c-.65 0-1.208-.535-1.208-1.298 0-.77.559-1.298 1.208-1.298.649 0 1.208.527 1.208 1.298 0 .762-.56 1.298-1.208 1.298zm0-3.44c-1.184 0-2.149.901-2.149 2.142 0 1.233.965 2.142 2.149 2.142 1.184 0 2.149-.909 2.149-2.142 0-1.242-.965-2.142-2.15-2.142z"/></g><g><path d="M143.776 36.14c-.65 0-1.195-.544-1.195-1.29 0-.754.545-1.306 1.195-1.306.642 0 1.146.552 1.146 1.306 0 .746-.504 1.29-1.146 1.29zm1.97-3.31h-.893v.349h-.033c-.211-.252-.617-.479-1.128-.479-1.07 0-2.052.94-2.052 2.15 0 1.2.981 2.133 2.052 2.133.512 0 .918-.227 1.128-.487h.033v.309c0 .82-.437 1.255-1.143 1.255-.576 0-.933-.411-1.08-.76l-.818.34c.236.569.86 1.263 1.899 1.263 1.103 0 2.035-.646 2.035-2.228z"/></g><g><path d="M147.217 30.57v6.277h-.917V30.57h.917z"/></g><g><path d="M148.543 34.777a1.178 1.178 0 0 1 1.125-1.248c.375 0 .693.186.8.454zm2.247.771c-.243.357-.575.593-1.054.593-.478 0-.82-.22-1.039-.649l2.864-1.186-.098-.243c-.177-.478-.721-1.363-1.833-1.363-1.103 0-2.02.868-2.02 2.142 0 1.201.909 2.142 2.126 2.142.98 0 1.549-.6 1.784-.95z"/></g><g><path d="M128.893 34.284v-.909h3.063c.03.158.045.346.045.549 0 .681-.186 1.525-.787 2.125-.584.609-1.33.933-2.32.933-1.833 0-3.374-1.493-3.374-3.326s1.541-3.326 3.374-3.326a3.17 3.17 0 0 1 2.28.917l-.642.64a2.316 2.316 0 0 0-1.639-.648c-1.338 0-2.385 1.079-2.385 2.417 0 1.339 1.047 2.417 2.385 2.417.869 0 1.363-.348 1.68-.665.257-.257.426-.624.492-1.125h-2.172z"/></g></g></g></g></svg>