<svg xmlns="http://www.w3.org/2000/svg" width="96" height="50" viewBox="0 0 96 50"><g><g><g><path fill="#8993be" d="M48.003 49.976c26.511 0 48.003-11.188 48.003-24.988C96.006 11.188 74.514 0 48.003 0S0 11.187 0 24.988c0 13.8 21.492 24.988 48.003 24.988z"/></g><g><path fill="#232531" d="M66.415 27.954l1.644-9.871h4.274c2.302 0 3.946.987 3.946 2.96-.329 5.594-2.96 6.581-5.918 6.91zm-44.058 0l1.644-9.871h4.274c2.302 0 3.946.987 3.946 2.96-.329 5.594-2.96 6.581-5.918 6.91zm-2.63 11.832l1.315-6.905h5.918c5.59.329 11.836-4.274 11.836-12.166 0-4.604-2.63-7.234-7.89-7.563H18.74L13.48 39.786zm17.847-6.902h6.247l2.96-14.797h4.931c2.301 0 2.301.986 1.973 2.63l-2.302 12.167h6.576l2.301-13.482c.658-3.288-1.315-5.918-6.576-6.247h-5.917l1.315-6.905h-6.247zm19.964 6.902h6.247l1.315-6.905h5.918c5.59.329 11.837-4.274 11.837-12.166 0-4.604-2.63-7.234-7.892-7.563H62.798z"/></g></g></g></svg>