<svg xmlns="http://www.w3.org/2000/svg" width="97" height="50" viewBox="0 0 97 50"><g><g><g><path fill="#00618a" d="M24.68 35.166c.07.07 0 6.992.002 7.138.024 1.58 2.026 2.952 5.17 2.981h6.756v.834c0 .343.242 1.36-1.804 1.577-.025.002-10.037 0-10.055 0v2.14h10.037c1.592-.046 5.045-.648 5.028-3.42 0-.047.018-11.284.003-11.284h-3.185v8.24c-.056 0-6.024.014-6.912 0-1.742-.028-1.892-.91-1.862-1.286v-6.92H24.68zM3.179 45.383V32.83l4.92 10.942c.581 1.324 1.376 1.793 2.935 1.793 1.559 0 2.323-.468 2.904-1.793l4.92-10.942v12.552h3.18V32.85c0-1.223-.49-1.814-1.498-2.119-2.415-.754-4.035-.102-4.769 1.528l-4.829 10.8-4.676-10.8c-.703-1.63-2.354-2.282-4.768-1.528C.489 31.037 0 31.629 0 32.851v12.532z"/></g><g><path fill="#e48e00" d="M61.85 41.629c0 .102.031.204.062.327.184.879 1.01 1.37 2.266 1.37h2.888l-2.653-2.398h3.69l2.315 2.091c.426-.227.707-.575.805-1.022.03-.102.03-.204.03-.307v-7.255c0-.082 0-.184-.03-.287-.184-.817-1.011-1.287-2.236-1.287h-4.809c-1.408 0-2.327.613-2.327 1.574v7.194zm-3.43.175V34.25c0-1.92 1.349-3.083 4.015-3.45h6.037c.306 0 .582.02.889.06 2.666.368 4.014 1.532 4.014 3.451v7.555c0 1.557-.572 2.39-1.892 2.934l3.133 2.826h-3.693l-2.535-2.287-2.552.162h-3.401a7.054 7.054 0 0 1-1.87-.265c-2.022-.552-3.003-1.614-3.003-3.37zm17.8-11.094h3.18v10.963c0 1.12.702 1.59 2.567 1.59h8.344v2.118h-8.283c-.306 0-.611-.02-.917-.04-3.27-.245-4.89-1.468-4.89-3.648zM42.27 45.381v-2.119h8.772c.123 0 .214-.02.336-.02.612-.04 1.07-.204 1.345-.449.306-.244.459-.53.459-.754v-1.854a.758.758 0 0 0-.245-.57c-.306-.367-.733-.55-1.742-.632-.092-.02-.214-.02-.336-.02h-3.301c-.306 0-.611-.02-.917-.041-2.72-.285-4.34-1.508-4.34-2.934v-1.855c0-1.63.825-2.567 2.72-3.158.611-.183 1.284-.265 2.567-.265h8.925v2.12h-9.077c-.092 0-.215.02-.306.02-1.13.101-1.467.285-1.62.937-.03.102-.03.183-.03.265V35.5c0 .101 0 .183.03.285.153.856.764 1.243 2.047 1.243h3.852c.947 0 1.925.163 2.72.469 1.498.57 2.262 1.426 2.262 2.343v2.323c0 1.12-.672 1.976-2.048 2.608-.825.387-1.864.611-2.934.611H42.27z"/></g><g><path fill="#00618a" d="M93.107 27.198c-1.954-.053-3.446.129-4.722.667-.363.153-.941.157-1 .611.199.21.23.521.388.778.305.493.82 1.154 1.278 1.5.502.379 1.019.784 1.556 1.112.956.583 2.024.915 2.945 1.5.542.344 1.081.778 1.61 1.166.263.192.439.491.779.612v-.056c-.18-.228-.225-.54-.39-.778l-.722-.722c-.706-.938-1.602-1.761-2.555-2.445-.76-.545-2.461-1.282-2.778-2.167l-.056-.055c.539-.061 1.17-.256 1.667-.389.836-.224 1.582-.166 2.445-.39l1.167-.333v-.222c-.437-.447-.747-1.04-1.223-1.444-1.244-1.06-2.602-2.118-4-3-.776-.49-1.734-.808-2.556-1.223-.276-.14-.762-.212-.945-.445-.431-.55-.667-1.248-1-1.889a71.433 71.433 0 0 1-2-4.223c-.421-.963-.696-1.913-1.222-2.778-2.523-4.147-5.238-6.65-9.445-9.111-.895-.524-1.973-.73-3.112-1l-1.833-.112c-.373-.156-.761-.612-1.111-.833-1.394-.88-4.968-2.796-6-.278-.652 1.59.974 3.14 1.555 3.945.408.565.93 1.198 1.222 1.833.192.418.225.837.39 1.278.403 1.089.754 2.273 1.277 3.278.264.51.555 1.045.89 1.5.204.28.555.403.61.834-.343.48-.363 1.225-.555 1.833-.869 2.739-.541 6.142.722 8.168.388.622 1.3 1.956 2.556 1.445 1.098-.448.852-1.834 1.166-3.056.072-.277.028-.481.167-.667v.056l1 2c.74 1.192 2.054 2.437 3.167 3.278.577.436 1.032 1.19 1.778 1.445v-.056h-.056c-.144-.225-.37-.319-.555-.5a12.733 12.733 0 0 1-1.278-1.445c-1.012-1.374-1.907-2.878-2.722-4.444-.39-.748-.728-1.573-1.056-2.334-.127-.293-.125-.737-.389-.89-.36.558-.889 1.01-1.167 1.668-.444 1.052-.502 2.336-.666 3.667-.098.035-.055.01-.112.055-.773-.187-1.045-.983-1.333-1.666-.728-1.729-.862-4.512-.223-6.501.166-.515.915-2.136.612-2.611-.145-.475-.622-.75-.89-1.112a8.747 8.747 0 0 1-.888-1.556c-.595-1.347-.873-2.86-1.5-4.222-.3-.651-.806-1.31-1.222-1.89-.461-.64-.977-1.113-1.334-1.888-.127-.276-.3-.717-.111-1 .06-.192.144-.271.333-.334.323-.248 1.22.083 1.556.222.891.37 1.635.723 2.39 1.223.362.24.728.705 1.166.833h.5c.782.18 1.658.056 2.389.278 1.292.393 2.449 1.003 3.5 1.667 3.203 2.022 5.821 4.9 7.612 8.334.288.553.413 1.08.667 1.667.512 1.183 1.157 2.4 1.666 3.556.509 1.153 1.004 2.318 1.723 3.278.378.505 1.837.776 2.5 1.056.465.196 1.226.4 1.667.666.84.508 1.656 1.111 2.445 1.667.394.278 1.606.887 1.666 1.39z"/></g><g><path fill="#00618a" d="M68.27 6.027a3.986 3.986 0 0 0-1 .11v.056h.056c.194.4.537.657.777 1l.056-.055c.344-.243.502-.63.5-1.222-.138-.145-.159-.328-.278-.5-.159-.231-.466-.362-.666-.556z"/></g><g><path fill="#e48e00" d="M93.652 42.243h.522c.27 0 .597.05.597.359 0 .37-.295.401-.635.401h-.484zm1.123 2.294h.526l-.77-1.172c.413-.044.726-.244.726-.73 0-.543-.344-.767-1.008-.767h-1.046v2.669h.45v-1.154h.42l.702 1.154zm1.177-1.335c0 1.062-.81 1.855-1.814 1.855-1.016 0-1.814-.793-1.814-1.855 0-1.061.798-1.854 1.814-1.854 1.004 0 1.814.793 1.814 1.854zm-4.152 0c0 1.4 1.106 2.343 2.343 2.343 1.237 0 2.342-.943 2.342-2.343 0-1.399-1.105-2.342-2.342-2.342s-2.343.943-2.343 2.342z"/></g></g></g></svg>