<svg xmlns="http://www.w3.org/2000/svg" width="270" height="70" viewBox="0 0 270 70"><defs><radialGradient id="6inga" cx="107.86" cy="31.13" r="43.09" gradientUnits="userSpaceOnUse"><stop offset="0" stop-color="#fff"/><stop offset=".87" stop-color="#99a5b4"/><stop offset=".99" stop-color="#8a97a8"/></radialGradient><radialGradient id="6ingb" cx="-123.85" cy="307.17" r="14.65" gradientUnits="userSpaceOnUse"><stop offset="0" stop-color="#fff"/><stop offset=".87" stop-color="#99a5b4"/><stop offset=".99" stop-color="#8a97a8"/></radialGradient><radialGradient id="6ingc" cx="97.45" cy="30.28" r="17.87" gradientUnits="userSpaceOnUse"><stop offset="0" stop-color="#e23126"/><stop offset="1" stop-color="#b92226"/></radialGradient></defs><g><g><g/><g><g><path fill="url(#6inga)" d="M103.578 45.686a19.173 19.173 0 0 1-5.597-2.616 39.54 39.54 0 0 0 6.12-3.737zm0 .293c-1.492.897-6.567 2.84-8.955 3.737a33.229 33.229 0 0 0 2.761-6.204zm-.224 1.115a61.007 61.007 0 0 1-1.79 6.12A29.798 29.798 0 0 1 94.1 50.9c2.537-1.045 7.91-3.507 9.328-4.477zm-13.283 9.702a.806.806 0 0 1-.448-.075 44.814 44.814 0 0 0 3.88-5.224 25.642 25.642 0 0 0 7.91 1.866zm9.552 1.706c-2.015-.223-6.12-.894-8.88-1.415 3.805-.893 6.343-1.266 10.671-3.351zM89.1 56.656c-.15-.074-.299-.074-.448-.15a19.742 19.742 0 0 1-5.299-2.392c1.194-.374 6.418-1.72 8.88-2.542zm-6.418-3.07c1.492-2.238 3.358-4.253 5-6.268a12.687 12.687 0 0 0 4.18 3.358c-2.927 1.045-5.912 2.164-8.807 3.135zm-3.359-4.85c2.392-.597 4.932-1.12 7.473-1.716-1.868 2.76-3.512 4.776-4.409 6.343zm13.135-3.36a35.341 35.341 0 0 0 3.731-1.49 51.38 51.38 0 0 1-3.209 6.407 12.271 12.271 0 0 1-1.642-1.043 13.984 13.984 0 0 1-2.835-2.682zm6.12-9.625a45.167 45.167 0 0 0 5.457 3.06 29.501 29.501 0 0 1-6.353 3.432zm6.119-2.239c-.075-.224-.821.224-1.045.299.256 1.555.406 3.126.448 4.701a42.118 42.118 0 0 1-5-3.209l-.523.224v-.224l-.746.224c-.224.15-.15 0-.15.299a15.843 15.843 0 0 1-.82 6.343c-1.493-1.269-2.91-3.06-3.284-4.702a1.082 1.082 0 0 1-.522.15c-.224.074-.299 0-.224.223a9.791 9.791 0 0 0 3.507 4.926c-1.418.522-2.985 1.12-4.776 1.716-.597.224-1.492.448-2.462.821a38.232 38.232 0 0 0 3.656-7.612l-1.12.448a50.23 50.23 0 0 1-3.88 7.09c-.074.074-.074.149-.149.223a6.164 6.164 0 0 1-.448-4.925c.075-.298-.97.448-1.045.522-.298.15-.298.374-.373.672a8.27 8.27 0 0 0-.149 1.418 5.91 5.91 0 0 0 .97 3.06c-2.313.671-4.925 1.492-7.462 2.164v-.224c.373-1.791 2.164-4.105 4.253-5.299l.523-.597-2.836 1.94c-1.343 1.12-2.836 2.911-3.21 4.553-.522 2.388 1.27 4.254 3.21 5.672a21.813 21.813 0 0 0 6.865 2.985A52.59 52.59 0 0 0 99.25 58.96h.522c.065-.091.115-.192.15-.299.223-.447 3.582-6.716 4.477-12.015z"/></g><g><path fill="url(#6ingb)" d="M96.193 10.373a15.261 15.261 0 0 0 1.045 4.328c-1.79-.447-6.12-1.119-7.686-1.268zm-8.806 6.343c-.97-.746.075-1.79.672-2.238.224-.224.522-.374.746-.597.747.895 2.612 3.283 3.359 4.03l1.343-.075c-.672-.597-3.508-3.433-4.329-4.18a41.792 41.792 0 0 0 8.359 1.568v.075a40.298 40.298 0 0 0-4.03 2.313l1.12.15c1.14-.573 2.194-1.301 3.134-2.165a32.274 32.274 0 0 0 1.626 3.134l1.045.15c-1.94-3.359-3.358-6.344-3.955-8.881-1.403.448-9.09 3.134-10.522 5-.672.746.895 1.343 1.417 1.716z"/></g><g><path fill="url(#6ingc)" d="M115.225 24.104a22.858 22.858 0 0 1 6.418 5.075c.085.092.186.168.298.224a63.88 63.88 0 0 0-12.164 1.94 21.075 21.075 0 0 0 5.448-7.239zm-10.299 3.284a73.344 73.344 0 0 1 9.702-3.507c-1.12 2.015-2.985 4.104-5.821 7.686a14.926 14.926 0 0 0-3.88-4.179zm-7.09 7.677a32.6 32.6 0 0 0 5.896-6.707 24.33 24.33 0 0 1 4.329 3.428c-2.985.82-6.433 1.863-10.224 3.279zm-1.641-3.05a106.495 106.495 0 0 1 6.055-3.284 73.437 73.437 0 0 1-5.233 6.642 7.17 7.17 0 0 0-.822-3.358zm-7.18 6.791a27.239 27.239 0 0 0 6.344-5.896c.607.75.995 1.655 1.12 2.612-2.896 1.194-5.21 2.09-7.448 3.284zm1.195-2.836c.97-.671 2.313-1.642 4.03-2.761a24.724 24.724 0 0 1-6.418 5.522 20.396 20.396 0 0 0 2.403-2.76zm2.701-5l-.001.006a7.65 7.65 0 0 0-.014-.006zm1.627 1.045c-1.268.895-2.462 1.791-3.433 2.612a11.94 11.94 0 0 0 1.805-3.65 6.903 6.903 0 0 1 1.628 1.038zm-3.268-14.03l.001.004-.016-.004zm5.816 1.12a16.766 16.766 0 0 0-4.262 3.134 25.644 25.644 0 0 0-1.553-4.25c2.164.52 4.472.892 5.815 1.115zm-9.473-2.165l.012.01-.027-.01zm3.12.896c.522 1.492.895 2.836 1.268 4.03a16.142 16.142 0 0 0-4.376-4.917c.89.296 1.925.591 3.107.887zm7.387 6.194a64.792 64.792 0 0 0-4.701-1.343 30.291 30.291 0 0 1 4.179-3.508c.508 1.563.686 3.215.522 4.85zm7.09-3.43a31.278 31.278 0 0 0-6.194 3.365 10.632 10.632 0 0 0-.896-4.711c2.403.374 4.717.822 7.105 1.346zm-6.403 5.146l-.001.007-.014-.007zm3.492 1.713a38.247 38.247 0 0 0-5.223 2.904 13.482 13.482 0 0 0 1.73-4.61c1.115.52 2.304 1.113 3.493 1.706zm-6.636 3.884a5.983 5.983 0 0 0-2.17-1.567 34.743 34.743 0 0 1 4.413-3.806 18.29 18.29 0 0 1-2.243 5.373zm1.726-6.122a52.658 52.658 0 0 0-4.03 3.65 17.838 17.838 0 0 0-.15-4.916c1.428.302 2.826.726 4.18 1.266zm2.313-.675a52.354 52.354 0 0 1 6.204-3.8c-.074 1.416-.822 3.353-2.317 5.737a26.945 26.945 0 0 0-3.887-1.937zm12.322-1.934c.747.298 1.419.597 2.091.895a56.524 56.524 0 0 0-9.263 2.836 15.562 15.562 0 0 0 1.643-5.522 70.209 70.209 0 0 1 5.529 1.79zm10.44 6.791c-2.687-4.18-6.717-8.06-18.881-10.299-2.537-.447-5.597-.82-10.97-1.79-1.866-.3-7.463-1.195-6.791-2.314a.799.799 0 0 0 .134 1.12c2.761 3.134 6.791 5 6.791 11.417 0 5.896-5.298 11.418-10.671 15.821a7.903 7.903 0 0 0-.896.746 81.425 81.425 0 0 1 15.448-7.462c6.268-2.463 18.731-5.97 25.895-6.94z"/></g><g><path fill="#231f20" d="M102.465 57.61h-.448v1.342h-.15V57.61h-.447v-.149h1.045"/></g><g><path fill="#231f20" d="M104.177 58.957h-.15v-1.343c0 .075 0 .15-.074.15l-.522 1.119h-.075l-.522-1.12a.231.231 0 0 0-.075-.15v1.27h-.149V57.39h.224l.448 1.045a.261.261 0 0 0 .074.149.261.261 0 0 1 .075-.15l.448-1.044h.224"/></g><g><path fill="#231f20" d="M137.813 37.317c0 .149-.074.223-.221.149h-.147v-.373h.088c.074 0 .147.074.22.074.075 0 .075.075.075.15zm.246.522c-.075-.15-.15-.224-.224-.224.075-.075.15-.075.224-.15.1-.132.1-.314 0-.447a.672.672 0 0 0-.373-.075h-.349a.745.745 0 0 1 1.095.597l-.224.597a.746.746 0 1 1-.895-1.18v1.18h.149v-.522c.075 0 .15.075.224.224l.15.298h.223zm-.746-.896h.024a.745.745 0 0 0-.024.014zm.97-.149a1.045 1.045 0 0 0-.672-.224.948.948 0 0 0-.671.299.813.813 0 0 0-.299.671.948.948 0 0 0 .299.672c.156.21.41.324.671.299a.948.948 0 0 0 .672-.299.813.813 0 0 0 .298-.672z"/></g><g><path fill="#231f20" d="M114.256 40.671h-.522v-3.134c-.007-.3.018-.6.075-.895-.075.224-.075.373-.15.447l-1.582 3.582h-.298l-1.567-3.582c-.075-.074-.075-.223-.15-.447v4.03h-.522V35.97h.746l1.418 3.284c.062.203.137.402.224.597a5.14 5.14 0 0 1 .224-.597l1.492-3.21h.672v4.627z"/></g><g><path fill="#231f20" d="M115.964 37.313v3.359h-.515v-3.359zm.075-1.199a.258.258 0 1 1-.074-.22z"/></g><g><path fill="#231f20" d="M119.255 40.518c-.273.152-.582.229-.895.223a1.41 1.41 0 0 1-1.12-.447 1.575 1.575 0 0 1-.447-1.194 2.082 2.082 0 0 1 .447-1.344 1.537 1.537 0 0 1 1.27-.522c.254.007.507.057.745.15v.522a1.493 1.493 0 0 0-.82-.224 1.067 1.067 0 0 0-.821.373c-.22.273-.327.62-.299.97-.029.327.08.651.299.896.205.24.505.376.82.373a1.12 1.12 0 0 0 .821-.299z"/></g><g><path fill="#231f20" d="M121.862 37.836a.701.701 0 0 0-.896.224 1.59 1.59 0 0 0-.224.895v1.717h-.522v-3.358h.522v.671c.08-.224.207-.427.374-.597a.627.627 0 0 1 .522-.149c.15 0 .224 0 .298.075v.522z"/></g><g><path fill="#231f20" d="M124.474 40.002a1.087 1.087 0 0 1-1.64 0 1.726 1.726 0 0 1 0-1.94c.222-.207.518-.315.82-.299a1.02 1.02 0 0 1 .82.299c.23.267.338.619.298.97zm.524-2.313a1.813 1.813 0 0 0-2.388 0c-.378.339-.572.838-.522 1.343-.012.441.148.87.447 1.194a1.813 1.813 0 0 0 2.388 0c.312-.347.473-.803.448-1.269z"/></g><g><path fill="#231f20" d="M127.985 39.773a.746.746 0 0 1-.299.671c-.244.22-.568.327-.895.299a1.493 1.493 0 0 1-.821-.224v-.522c.25.207.57.314.896.298.447 0 .671-.15.671-.448a.388.388 0 0 0-.15-.298 1.604 1.604 0 0 0-.521-.299 2.067 2.067 0 0 1-.597-.373.85.85 0 0 1-.224-.597.746.746 0 0 1 .298-.671c.24-.176.525-.28.821-.299.255.007.508.057.746.15v.522a1.261 1.261 0 0 0-.746-.224 1.06 1.06 0 0 0-.448.149.448.448 0 0 0 0 .672c.161.12.337.22.523.298.298.15.522.224.597.373a.873.873 0 0 1 .149.523"/></g><g><path fill="#231f20" d="M130.97 40.002a1.09 1.09 0 0 1-1.642 0 1.724 1.724 0 0 1 0-1.94 1.12 1.12 0 0 1 .821-.299c.305-.028.606.081.821.299.23.267.339.619.299.97zm.448-2.313a1.813 1.813 0 0 0-2.388 0c-.378.339-.572.838-.522 1.343-.012.441.148.87.447 1.194a1.813 1.813 0 0 0 2.388 0c.312-.347.473-.803.448-1.269z"/></g><g><path fill="#231f20" d="M134.18 36.193a.56.56 0 0 0-.374-.074c-.373 0-.597.224-.597.671v.523h.747v.447h-.747v2.91h-.522v-2.91h-.597v-.447h.597v-.523c-.003-.337.132-.66.373-.895.212-.174.473-.279.746-.299a.56.56 0 0 1 .374.075z"/></g><g><path fill="#231f20" d="M136.265 40.668a1.105 1.105 0 0 1-.522.075c-.598 0-.896-.299-.896-.97v-2.015h-.597v-.448h.597v-.82c.15-.075.373-.075.522-.15v.97h.821v.448h-.82v1.866a.634.634 0 0 0 .149.447.567.567 0 0 0 .373.15.672.672 0 0 0 .373-.075z"/></g><g><path d="M120.152 49.477a5.548 5.548 0 0 1 1.49-4.026c1.193-1.416 2.759-1.566 4.473-1.267a3.728 3.728 0 0 1 2.982 2.907 8.836 8.836 0 0 1 0 4.623c-.67 2.311-2.385 3.28-4.696 3.206a4.473 4.473 0 0 1-4.026-3.728 11.931 11.931 0 0 1-.223-1.715zm7.014 10.08c.772-.015 1.545.01 2.314.075-.597-.672-1.269-1.344-1.866-2.015-.373-.448-.671-.821-1.12-1.269.217-.117.441-.217.672-.299a5.575 5.575 0 0 0 2.538-2.014 7.373 7.373 0 0 0 1.418-4.403 8.269 8.269 0 0 0-.747-4.03c-1.119-2.314-3.358-3.433-6.343-3.135-2.985.299-4.925 1.94-5.522 4.777-.2 1.007-.25 2.038-.15 3.06.15 3.357 2.09 5.447 5.299 6.119.505.127.968.384 1.343.746.78.74 1.504 1.54 2.164 2.388z"/></g><g><path d="M181.847 47.836a2.358 2.358 0 0 1 2.087 2.537h-4.697c.164-1.567 1.208-2.612 2.61-2.537zm.597 7.09c-1.642.372-3.358-1.195-3.284-3.06h6.642v-1.717c-.15-2.015-1.194-3.433-2.985-3.806a4.366 4.366 0 0 0-4.254 1.418c-1.343 1.492-1.418 3.284-1.12 5.15a4.06 4.06 0 0 0 2.314 3.059c1.866.97 3.657.522 5.448-.299V54.18c-.903.309-1.826.558-2.761.746z"/></g><g><path d="M154.626 50.369a2.346 2.346 0 0 1 .556-1.719 2.36 2.36 0 0 1 1.615-.818c1.423-.075 2.396.895 2.47 2.537zm6.42.075c-.074-1.642-.596-3.06-2.238-3.732a4 4 0 0 0-4.627.821 5.32 5.32 0 0 0-1.567 4.403 4.336 4.336 0 0 0 2.612 4.18c1.865.82 3.582.372 5.298-.449V54.1a2.53 2.53 0 0 0-.597.224c-.671.224-1.343.523-2.015.672a2.985 2.985 0 0 1-3.507-3.06h6.642z"/></g><g><path d="M144.031 53.88c.523.223.896.447 1.344.597.806.22 1.63.37 2.462.447a1.873 1.873 0 0 0 1.792-1.12 1.694 1.694 0 0 0-.448-2.089 16.614 16.614 0 0 0-1.791-1.418 21.783 21.783 0 0 1-2.09-1.567 3.12 3.12 0 0 1-1.045-3.582 3.5 3.5 0 0 1 3.21-2.537c.97-.075 1.94.075 2.91.075.293.032.575.134.82.298v1.791c-.265-.12-.54-.22-.82-.298a4.552 4.552 0 0 0-2.985-.224 1.866 1.866 0 0 0-.747 3.209c.616.514 1.264.988 1.94 1.418.795.506 1.545 1.08 2.24 1.716a3.35 3.35 0 0 1-.821 5.448c-1.866.97-3.806.671-5.672-.075a5.082 5.082 0 0 1-.299-2.09z"/></g><g><path d="M109.549 55.818v-2.015c.448.224.82.373 1.194.522.932.515 2.02.674 3.06.448a1.813 1.813 0 0 0 .895-3.134 12.583 12.583 0 0 0-1.865-1.493 22.858 22.858 0 0 1-2.165-1.567 3.216 3.216 0 0 1-1.119-3.358 3.343 3.343 0 0 1 2.687-2.612 6.224 6.224 0 0 1 4.179.298v1.791a12.353 12.353 0 0 0-1.567-.447 8.291 8.291 0 0 0-1.94-.075 1.91 1.91 0 0 0-1.046 3.284c.536.463 1.105.887 1.702 1.268.597.448 1.269.821 1.94 1.269a3.545 3.545 0 0 1 1.418 4.03c-.522 1.641-1.79 2.239-3.358 2.537a7.761 7.761 0 0 1-4.015-.746z"/></g><g><path d="M134.996 54.556h5.374v1.641h-7.09V42.69h1.791c-.075 3.955-.075 7.836-.075 11.866z"/></g><g><path d="M168.13 46.57h1.866c.82 2.463 1.716 4.85 2.537 7.313h.15c.895-2.462 1.865-4.85 2.76-7.313h1.791c-1.268 3.284-2.537 6.418-3.805 9.627h-1.792c-1.044-3.134-2.238-6.343-3.507-9.627z"/></g><g><path d="M164.401 56.198h-1.791V46.57h1.701c0 .373.075.746.075 1.343a2.813 2.813 0 0 1 3.284-1.492v1.641h-.373a2.284 2.284 0 0 0-2.836 2.165c-.075 1.343-.075 2.686-.15 4.03.07.644.099 1.292.09 1.94z"/></g><g><path d="M192.54 46.345v1.642a.231.231 0 0 1-.15.074c-2.015-.224-3.134.747-3.134 2.836v5.299h-1.806v-9.627h1.716c.022.426.072.85.15 1.268.686-1.343 1.806-1.641 3.224-1.492z"/></g></g></g></g></svg>