<svg xmlns="http://www.w3.org/2000/svg" width="32" height="30" viewBox="0 0 32 30"><g><g><g><path fill="#ee0d37" d="M30.135 22.632l-1.328 1.326h-4.206l-.468-2.813h6.002zm-8.158 5.107c-.436 0-.829-.243-1.024-.633l-1.3-2.599a.937.937 0 0 0-.838-.518H13.19c-.355 0-.68.2-.838.517l-1.328 2.648c-.32.638-.985.582-.994.585a1.145 1.145 0 0 1-1.136-1.334l1.035-6.213a2.18 2.18 0 0 1 2.158-1.828h7.83a2.18 2.18 0 0 1 2.157 1.829l1.032 6.213a1.143 1.143 0 0 1-1.13 1.333zM3.2 23.958l-1.326-1.326v-1.487H7.87l-.47 2.813zM2.875 2.832c0-.517.42-.937.938-.937h24.375c.516 0 .937.42.937.937V19.26h-5.354a4.047 4.047 0 0 0-3.855-2.78h-7.829a4.047 4.047 0 0 0-3.855 2.78H2.875zM31.063 19.27H31V2.833A2.816 2.816 0 0 0 28.187.02H3.813A2.816 2.816 0 0 0 1 2.833V19.27H.937a.938.938 0 0 0-.937.938v2.812c0 .249.099.487.275.663l1.875 1.875a.937.937 0 0 0 .663.275h4.275l-.044.264a3.022 3.022 0 0 0 2.986 3.517h.047a2.92 2.92 0 0 0 2.623-1.62l1.069-2.13h4.467l1.04 2.08a3.003 3.003 0 0 0 2.701 1.67c.89 0 1.729-.39 2.304-1.068 1.05-1.239.628-2.618.63-2.713h4.276a.937.937 0 0 0 .663-.275l1.875-1.875A.938.938 0 0 0 32 23.02v-2.812a.938.938 0 0 0-.938-.938z"/></g><g><path fill="#ee0d37" d="M11.581 13.132a.937.937 0 1 0 1.326-1.326l-1.213-1.212 1.216-1.212a.937.937 0 1 0-1.323-1.328L9.706 9.929a.938.938 0 0 0-.002 1.326z"/></g><g><path fill="#ee0d37" d="M19.083 13.13a.937.937 0 0 0 1.326.003l1.882-1.875a.938.938 0 0 0 0-1.327l-1.876-1.876A.938.938 0 0 0 19.09 9.38l1.213 1.213-1.216 1.212a.937.937 0 0 0-.003 1.326z"/></g><g><path fill="#ee0d37" d="M15.058 13.877a.938.938 0 0 0 .872-.592l1.875-4.721a.938.938 0 0 0-1.743-.692l-1.875 4.721a.938.938 0 0 0 .871 1.284z"/></g><g><path fill="#ee0d37" d="M13.187 22.105a.937.937 0 1 0 0-1.875.937.937 0 0 0 0 1.875z"/></g><g><path fill="#ee0d37" d="M18.808 22.105a.937.937 0 1 0 0-1.875.937.937 0 0 0 0 1.875z"/></g></g></g></svg>