<svg xmlns="http://www.w3.org/2000/svg" width="32" height="32" viewBox="0 0 32 32"><g><g><g><path fill="#ee0d37" d="M30.118 30.12h-3.272v-4.735a.941.941 0 0 0-.941-.942h-4.75a.941.941 0 0 0-.942.942v4.735h-3.272v-5.743l6.588-4.94 6.589 4.94zm-8.023 0v-3.794h2.858v3.794zm-15.058 0v-3.794h2.858v3.794zm-5.155-5.743l6.589-4.94 6.588 4.94v5.743h-3.272v-4.735a.941.941 0 0 0-.941-.942h-4.75a.941.941 0 0 0-.942.942v4.735H1.882zm29.741-1.224l-7.529-5.645a.941.941 0 0 0-1.13 0L16 22.73l-6.965-5.222a.941.941 0 0 0-1.129 0l-7.53 5.645a.941.941 0 0 0-.376.753v7.155c0 .52.421.941.941.941H31.06c.52 0 .941-.421.941-.941v-7.155a.941.941 0 0 0-.377-.753z"/></g><g><path fill="#ee0d37" d="M30.118 12.8h-3.272V8.065a.941.941 0 0 0-.941-.942h-4.75a.941.941 0 0 0-.942.942V12.8h-3.272V7.057l6.588-4.94 6.589 4.94zm-8.023-3.794h2.858V12.8h-2.858zm-15.058 0h2.858V12.8H7.037zm-5.155-1.95l6.589-4.939 6.588 4.94V12.8h-3.272V8.065a.941.941 0 0 0-.941-.942h-4.75a.941.941 0 0 0-.942.942V12.8H1.882zm29.741-1.223L24.094.188a.942.942 0 0 0-1.13 0L16 5.41 9.035.188a.942.942 0 0 0-1.129 0L.376 5.833A.941.941 0 0 0 0 6.586v7.155c0 .52.421.941.941.941H31.06c.52 0 .941-.421.941-.941V6.586a.941.941 0 0 0-.377-.753z"/></g></g></g></svg>