<svg xmlns="http://www.w3.org/2000/svg" width="32" height="28" viewBox="0 0 32 28"><g><g><g><path fill="#ee0d37" d="M30.111 11.615a9.341 9.341 0 0 1-7.48 9.155 9.35 9.35 0 0 1-.98-.255c.452-1.756.482-3.622.045-5.434a3.48 3.48 0 0 1 3.393.889.94.94 0 0 0 1.334 0 .943.943 0 0 0 0-1.334 5.369 5.369 0 0 0-5.324-1.347 11.4 11.4 0 0 0-.156-.35l-1.53-3.26a2.866 2.866 0 0 0 2.017-.844.943.943 0 0 0-1.333-1.334.993.993 0 0 1-.707.293.993.993 0 0 1-.707-.293.941.941 0 0 0-.403-.238L17.11 4.77a.943.943 0 0 0-.7-.53c-.047-.008-.471-.072-1.261-.027V3.155c.875-.404 3.202-1.239 7.481-1.239 4.269 0 6.6.834 7.481 1.24zM5.69 20.095l-3.593-7.657c.626-.742 2.383-2.487 6.246-4.3 3.865-1.813 6.33-2.048 7.3-2.055l3.593 7.658a9.342 9.342 0 0 1-2.885 11.466A9.342 9.342 0 0 1 5.69 20.096zM31.588 1.814C31.482 1.74 28.916.03 22.63.03c-6.285 0-8.851 1.71-8.958 1.783a.943.943 0 0 0-.41.777v1.874c-1.433.284-3.346.853-5.72 1.966C1.852 9.1.255 11.738.19 11.85a.944.944 0 0 0-.04.878l3.832 8.17A11.23 11.23 0 0 0 17 26.988l.008-.002a.946.946 0 0 0 .3-.143 11.198 11.198 0 0 0 3.72-4.547c.464.15.942.272 1.432.362a.904.904 0 0 0 .341 0 11.227 11.227 0 0 0 9.198-11.043V2.59a.943.943 0 0 0-.41-.777z"/></g><g><path fill="#ee0d37" d="M26.277 9.685c.77 0 1.495-.3 2.04-.845a.943.943 0 0 0-1.334-1.334.993.993 0 0 1-.706.293.993.993 0 0 1-.707-.293.943.943 0 0 0-1.334 1.334c.545.545 1.27.845 2.04.845z"/></g><g><path fill="#ee0d37" d="M10.487 15.52a.943.943 0 0 0-.566-1.207 2.867 2.867 0 0 0-2.206.102 2.867 2.867 0 0 0-1.489 1.632.943.943 0 0 0 1.774.64.994.994 0 0 1 .516-.565.994.994 0 0 1 .764-.035.943.943 0 0 0 1.207-.566z"/></g><g><path fill="#ee0d37" d="M13.023 14.333a.943.943 0 0 0 1.207-.567.993.993 0 0 1 .516-.565.991.991 0 0 1 .764-.035.943.943 0 0 0 .641-1.774 2.89 2.89 0 0 0-3.695 1.733.943.943 0 0 0 .567 1.208z"/></g><g><path fill="#ee0d37" d="M17.18 18.034a.943.943 0 0 0-1.774-.641 3.482 3.482 0 0 1-4.452 2.089.943.943 0 1 0-.641 1.774c.6.216 1.213.32 1.817.32a5.374 5.374 0 0 0 5.05-3.542z"/></g></g></g></svg>