<svg xmlns="http://www.w3.org/2000/svg" width="32" height="32" viewBox="0 0 32 32"><g><g><g><path fill="#ee0d37" d="M10.313 20.747c-.5 0-.938-.467-.938-1a.94.94 0 0 1 .617-.88c.48-.176 1.042.061 1.537.652a.938.938 0 0 0 1.436-1.206c-.506-.604-1.096-1.018-1.715-1.227v-1.089a.938.938 0 0 0-1.875 0v1.099l-.025.008a2.822 2.822 0 0 0-1.85 2.643c0 .748.287 1.46.809 2.005.536.561 1.248.87 2.003.87a.939.939 0 0 1 .366 1.802c-.42.178-.923.026-1.38-.416a.938.938 0 0 0-1.304 1.346c.423.41.894.7 1.381.864v1.092a.938.938 0 0 0 1.875 0v-1.098a2.808 2.808 0 0 0 1.875-2.652 2.816 2.816 0 0 0-2.813-2.813z"/></g><g><path fill="#ee0d37" d="M22.567 7.49c-4.582 0-7.505-1.638-7.505-2.807 0-1.174 2.931-2.808 7.505-2.808 4.62 0 7.568 1.663 7.568 2.808 0 1.144-2.948 2.807-7.568 2.807zm7.568 2.885c0 1.147-2.948 2.813-7.568 2.813-2.126 0-4.111-.362-5.589-1.018-1.181-.525-1.915-1.213-1.915-1.795v-2.8c2.03 1.33 5.064 1.8 7.504 1.8 2.468 0 5.526-.48 7.568-1.814zM30.115 16c0 1.147-2.944 2.813-7.556 2.813-.798 0-1.578-.053-2.328-.154a10.39 10.39 0 0 0-2.555-4.247c1.448.423 3.13.65 4.883.65 2.463 0 5.517-.479 7.556-1.813zm.02 5.688c0 1.146-2.95 2.812-7.57 2.812-.766 0-1.512-.048-2.231-.14a10.217 10.217 0 0 0 .295-3.767c.633.062 1.28.095 1.936.095 2.468 0 5.528-.48 7.57-1.814zm-.01 5.625c0 1.146-2.946 2.812-7.562 2.812-1.964 0-3.82-.315-5.227-.866a10.384 10.384 0 0 0 2.323-3.101c.931.143 1.904.217 2.904.217 2.465 0 5.522-.48 7.562-1.814zm-19.817 2.812c-4.65 0-8.433-3.785-8.433-8.438 0-4.686 3.783-8.5 8.433-8.5 4.684 0 8.495 3.814 8.495 8.5 0 4.653-3.811 8.438-8.495 8.438zm18.63-28.947C27.21.418 24.947 0 22.563 0c-4.88 0-9.375 1.792-9.375 4.688v7.034c-.925-.27-1.89-.41-2.876-.41-2.748 0-5.337 1.087-7.291 3.059A10.337 10.337 0 0 0 0 21.686C0 27.375 4.626 32 10.313 32c1.897 0 3.721-.51 5.316-1.465 1.743.936 4.228 1.465 6.933 1.465 2.385 0 4.65-.418 6.375-1.178 1.975-.869 3.063-2.115 3.063-3.51V4.688c0-1.394-1.088-2.64-3.063-3.51z"/></g></g></g></svg>