<svg xmlns="http://www.w3.org/2000/svg" width="30" height="32" viewBox="0 0 30 32"><g><g><g><path fill="#ee0d37" d="M20.946 24.98l-1.701-1.925-1.405 1.242 3.045 3.444 4.933-5.109-1.35-1.302z"/></g><g><path fill="#ee0d37" d="M16.067 24.287a5.835 5.835 0 0 1 5.828-5.829 5.835 5.835 0 0 1 5.828 5.829 5.835 5.835 0 0 1-5.828 5.828 5.835 5.835 0 0 1-5.828-5.828zm-11.33 3.005c-.793 0-1.53-.318-2.074-.896a2.828 2.828 0 0 1-.773-2.124L2.772 9.17h2.666v2.35h1.874V9.17h7.217v2.35h1.874V9.17h2.666l.455 7.785c-3.095 1.001-5.34 3.911-5.34 7.337a7.67 7.67 0 0 0 .608 3H4.737zM7.315 5.486c0-1.991 1.622-3.611 3.616-3.611a3.617 3.617 0 0 1 3.615 3.61v1.81H7.315zM21.39 16.6l-.543-9.305H16.41v-1.81A5.492 5.492 0 0 0 10.926 0 5.492 5.492 0 0 0 5.44 5.486v1.81H1.004L.018 24.161a4.684 4.684 0 0 0 1.281 3.52 4.684 4.684 0 0 0 3.44 1.485h11.195A7.696 7.696 0 0 0 21.9 32c4.25 0 7.708-3.458 7.708-7.708s-3.458-7.709-7.708-7.709c-.171 0-.34.006-.509.017z"/></g></g></g></svg>