<svg xmlns="http://www.w3.org/2000/svg" width="32" height="24" viewBox="0 0 32 24"><g><g><g><path fill="#ee0d37" d="M26.028 21.45c-1.81 0-3.064-1.828-2.403-3.516a2.584 2.584 0 0 1 2.403-1.642c1.814 0 3.065 1.835 2.403 3.518a2.582 2.582 0 0 1-2.403 1.64zM5.913 17.934c1.033-2.63 4.993-1.919 4.993.938a2.584 2.584 0 0 1-2.584 2.578c-1.806 0-3.072-1.817-2.409-3.516zm-4.037-.323V2.238c0-.172.14-.312.312-.312h3.823V6.7a.938.938 0 0 0 1.286.87l3.672-1.475 3.672 1.475a.938.938 0 0 0 1.287-.87V1.926h3.822c.172 0 .312.14.312.312v15.686h-7.395a4.46 4.46 0 0 0-4.354-3.516 4.46 4.46 0 0 0-4.353 3.516H2.188a.313.313 0 0 1-.312-.313zM14.059 1.926v3.39l-2.735-1.1a.938.938 0 0 0-.7 0l-2.735 1.1v-3.39zm12.418 3.752l1.035 4.564h-5.564V5.678zm3.637 6.753v4.688a4.456 4.456 0 0 0-4.09-2.703 4.456 4.456 0 0 0-4.076 2.667v-4.965h7.854c.172 0 .312.14.312.313zm-.303-2.188h-.376L28.252 5.02a1.555 1.555 0 0 0-1.525-1.218h-4.779V2.239A2.191 2.191 0 0 0 19.76.05H2.189A2.191 2.191 0 0 0 0 2.239V17.62c0 1.206.982 2.189 2.189 2.189H3.96a4.463 4.463 0 0 0 4.356 3.516 4.463 4.463 0 0 0 4.355-3.516h9a4.463 4.463 0 0 0 4.356 3.516A4.461 4.461 0 0 0 30.4 19.73a2.192 2.192 0 0 0 1.6-2.108v-5.19a2.19 2.19 0 0 0-2.189-2.188z"/></g><g><path fill="#ee0d37" d="M13.428 11.396h3.797a.938.938 0 0 0 0-1.876h-3.797a.938.938 0 0 0 0 1.876z"/></g><g><path fill="#ee0d37" d="M17.219 13.79h-2.551a.938.938 0 1 0 0 1.876h2.55a.938.938 0 1 0 0-1.876z"/></g></g></g></svg>