<?xml version="1.0" encoding="utf-8"?>
<!-- Generator: Adobe Illustrator 23.0.1, SVG Export Plug-In . SVG Version: 6.00 Build 0)  -->
<svg version="1.1" width="16" height="16px" xmlns="http://www.w3.org/2000/svg" xmlns:xlink="http://www.w3.org/1999/xlink" x="0px" y="0px"
	 viewBox="0 0 16 16" style="enable-background:new 0 0 16 16;" xml:space="preserve">
<path fill="#FFFFFF" d="M10.7,15.5V9.3H13l0.3-2h-2.7V5.8c0-0.6,0.5-1.1,1.1-1.1l0,0h0.9v-2h-2
	c-2,0-2.7,1-2.7,2.7l0,0v2H6v2h2V16l-0.2,0"/>
<path fill="#1E2123" d="M8,0c4.4,0,8,3.6,8,8c0,3.5-2.2,6.4-5.3,7.5V9.3H13l0.3-2h-2.7V5.8c0-0.6,0.5-1.1,1.1-1.1
	l0,0h0.9v-2h-2c-2,0-2.7,1-2.7,2.7l0,0v2H6v2h2V16l-0.2,0C3.4,15.9,0,12.3,0,8C0,3.6,3.6,0,8,0z"/>
</svg>
