<svg xmlns="http://www.w3.org/2000/svg" width="32" height="32" viewBox="0 0 32 32"><g><g><g><path fill="#ee0d37" d="M25.86 30.114v-.354c0-1.398-.426-2.7-1.155-3.78h.537a4.901 4.901 0 0 1 4.834 4.134zm-1.887-.01h-7.118V24.87h2.242a4.884 4.884 0 0 1 4.876 4.881zm-15.98-.353a4.887 4.887 0 0 1 4.883-4.88h2.104v5.233H7.993zm-.722-3.77a6.743 6.743 0 0 0-1.153 3.78v.353H1.934c.366-2.339 2.39-4.134 4.825-4.134zm2.827-7.948a5.889 5.889 0 0 0 1.618 5.073 6.728 6.728 0 0 0-2.542 1.01h-.67l-.024-.001a3.26 3.26 0 0 1-3.257-3.256 3.26 3.26 0 0 1 4.875-2.826zm5.82-3.09a4.034 4.034 0 0 1 4.027 4.03 4.033 4.033 0 0 1-4.027 4.031 4.033 4.033 0 0 1-4.027-4.03 4.033 4.033 0 0 1 4.027-4.031zM19.469 4.1l-2.404 1.014V3.27zm7.308 16.76a3.257 3.257 0 0 1-3.252 3.255l-.031.001h-.686a6.711 6.711 0 0 0-2.659-1.03 5.893 5.893 0 0 0 1.61-4.96 3.208 3.208 0 0 1 1.766-.522 3.257 3.257 0 0 1 3.252 3.255zm.443 3.55a5.108 5.108 0 0 0 1.432-3.55c0-2.826-2.3-5.126-5.127-5.126a5.14 5.14 0 0 0-2.345.57 5.922 5.922 0 0 0-4.115-3.12V7.14l5.38-2.266a.938.938 0 0 0-.059-1.75l-5.321-1.837v-.33a.938.938 0 0 0-1.875 0v12.16a5.915 5.915 0 0 0-4.5 3.122 5.139 5.139 0 0 0-2.215-.505 5.132 5.132 0 0 0-5.127 5.127c0 1.376.546 2.627 1.432 3.548C2.016 25.258 0 27.834 0 30.873v.178c0 .518.42.937.937.937h30.125c.518 0 .938-.42.938-.937v-.178c0-3.039-2.016-5.615-4.78-6.464z"/></g></g></g></svg>