<svg xmlns="http://www.w3.org/2000/svg" width="32" height="32" viewBox="0 0 32 32"><g><g><path fill="#ee0d37" d="M16.97 30.052c.451-3.195 3.187-5.66 6.484-5.66A6.616 6.616 0 0 1 30 30.052zm6.484-13.15a2.811 2.811 0 0 1 2.807 2.81 2.811 2.811 0 0 1-2.807 2.808 2.811 2.811 0 0 1-2.807-2.809 2.811 2.811 0 0 1 2.807-2.809zM1.937 30.052a6.616 6.616 0 0 1 6.546-5.66c3.297 0 6.033 2.465 6.485 5.66zm6.546-13.15a2.811 2.811 0 0 1 2.807 2.81 2.811 2.811 0 0 1-2.807 2.808 2.811 2.811 0 0 1-2.807-2.809 2.811 2.811 0 0 1 2.807-2.809zm20.957 8.111a8.543 8.543 0 0 0-2.808-1.875 4.666 4.666 0 0 0 1.5-3.43 4.684 4.684 0 0 0-4.678-4.678 4.684 4.684 0 0 0-4.678 4.678c0 1.356.58 2.578 1.504 3.433a8.496 8.496 0 0 0-4.311 3.974 8.496 8.496 0 0 0-4.312-3.974 4.666 4.666 0 0 0 1.505-3.433 4.684 4.684 0 0 0-4.679-4.678 4.684 4.684 0 0 0-4.678 4.678c0 1.354.579 2.575 1.501 3.43a8.544 8.544 0 0 0-2.808 1.875C.887 26.623 0 28.749 0 30.999c0 .516.419.935.936.935h30.066a.936.936 0 0 0 .936-.935c0-2.25-.887-4.375-2.498-5.986z"/></g><g><path fill="#ee0d37" d="M17.645 5.981a.933.933 0 0 0-.269.827l.23 1.337-1.203-.631a.937.937 0 0 0-.87 0l-1.204.631.23-1.337a.933.933 0 0 0-.27-.827l-.973-.946 1.345-.196a.935.935 0 0 0 .708-.517l.599-1.236.598 1.236c.135.279.4.473.708.517l1.345.196zm3.874-1.885a.936.936 0 0 0-.755-.637l-2.73-.396L16.81.529a.936.936 0 0 0-1.685 0l-1.224 2.534-2.73.396a.936.936 0 0 0-.518 1.596l1.978 1.929-.467 2.723a.936.936 0 0 0 1.358.987l2.446-1.286 2.445 1.286a.936.936 0 0 0 1.358-.987l-.467-2.723 1.979-1.929a.936.936 0 0 0 .236-.959z"/></g><g><path fill="#ee0d37" d="M7.338 9.735a.937.937 0 0 0-.27.829l.23 1.341-1.203-.633a.934.934 0 0 0-.87 0l-1.203.633.23-1.341a.937.937 0 0 0-.279-.838l-.99-.94L4.35 8.59a.936.936 0 0 0 .707-.513l.602-1.22.601 1.22c.137.277.4.468.705.513l1.345.195zm3.874-1.891a.936.936 0 0 0-.756-.637l-2.734-.398-1.223-2.477a.936.936 0 0 0-1.678 0L3.599 6.808l-2.795.398a.936.936 0 0 0-.512 1.605l2.03 1.928-.466 2.716a.936.936 0 0 0 1.358.986l2.446-1.286 2.446 1.286a.936.936 0 0 0 1.357-.986l-.467-2.724 1.979-1.928a.936.936 0 0 0 .237-.96z"/></g><g><path fill="#ee0d37" d="M27.956 9.726a.938.938 0 0 0-.277.838l.23 1.341-1.202-.633a.932.932 0 0 0-.869 0l-1.2.633.229-1.34a.938.938 0 0 0-.269-.83l-.971-.95 1.342-.195a.934.934 0 0 0 .703-.513l.6-1.22.601 1.22c.137.277.4.47.706.513l1.366.195zm3.937-1.878a.936.936 0 0 0-.759-.642l-2.795-.398-1.222-2.476a.936.936 0 0 0-1.678 0l-1.223 2.477-2.735.398a.936.936 0 0 0-.518 1.596l1.978 1.929-.467 2.723a.936.936 0 0 0 1.358.986l2.446-1.285 2.445 1.285a.936.936 0 0 0 1.358-.986l-.466-2.716 2.031-1.928a.936.936 0 0 0 .247-.963z"/></g></g></svg>