<svg xmlns="http://www.w3.org/2000/svg" width="32" height="32" viewBox="0 0 32 32"><g><g><g><path fill="#ee0d37" d="M19.199 29.028c-.264.066-.532.124-.799.173a1.286 1.286 0 0 0 .468 2.526c.318-.059.638-.128.951-.207a1.284 1.284 0 1 0-.62-2.492z"/></g><g><path fill="#ee0d37" d="M28.693 11.81a1.283 1.283 0 0 0 2.438-.807 15.956 15.956 0 0 0-.334-.915 1.284 1.284 0 1 0-2.385.953c.101.252.195.51.28.769z"/></g><g><path fill="#ee0d37" d="M23.369 27.193c-.227.15-.46.294-.696.43a1.284 1.284 0 0 0 1.283 2.225c.28-.162.559-.334.828-.512a1.284 1.284 0 0 0-1.415-2.143z"/></g><g><path fill="#ee0d37" d="M31.937 15.404a1.284 1.284 0 0 0-2.566.1c.01.272.013.547.007.817a1.283 1.283 0 0 0 1.256 1.313 1.284 1.284 0 0 0 1.312-1.256 15.94 15.94 0 0 0-.009-.974z"/></g><g><path fill="#ee0d37" d="M28.485 23.817a1.284 1.284 0 0 0-1.798.257c-.163.217-.335.432-.51.639a1.285 1.285 0 0 0 1.955 1.665c.21-.247.414-.503.61-.763a1.284 1.284 0 0 0-.257-1.798z"/></g><g><path fill="#ee0d37" d="M30.372 19.17a1.284 1.284 0 0 0-1.61.84c-.08.259-.17.519-.268.773a1.285 1.285 0 0 0 2.4.915c.116-.303.223-.612.32-.92a1.285 1.285 0 0 0-.842-1.609z"/></g><g><path fill="#ee0d37" d="M13.596 29.215a13.26 13.26 0 0 1-3.293-1.047l-.037-.02a14.03 14.03 0 0 1-.73-.37l-.003-.001a13.7 13.7 0 0 1-1.278-.799C2.214 22.723.76 14.346 5.017 8.305a13.345 13.345 0 0 1 3.294-3.277l.046-.032c4.4-3.031 10.373-3.236 15.045-.12l-1.004 1.449c-.279.404-.107.698.381.654l4.358-.39c.49-.044.782-.467.65-.94l-1.17-4.216c-.131-.473-.466-.53-.746-.126L24.866 2.76A15.86 15.86 0 0 0 13.244.289c-.41.07-.816.158-1.216.26h-.008l-.046.014a15.835 15.835 0 0 0-8.78 5.885c-.02.022-.038.043-.056.067a15.074 15.074 0 0 0-.555.8c-.014.021-.024.042-.036.062a15.833 15.833 0 0 0-2.53 9.339v.033c.014.322.04.648.074.97.002.02.007.04.01.061a15.849 15.849 0 0 0 4.606 9.566l.017.017.006.005a16.18 16.18 0 0 0 2.046 1.71 15.834 15.834 0 0 0 6.367 2.665 1.284 1.284 0 1 0 .453-2.528z"/></g><g><path fill="#ee0d37" d="M16.697 17.42H14.04v4.053c0 .58-.136 1.019-.41 1.318-.273.3-.618.45-1.035.45-.436 0-.788-.149-1.055-.445-.267-.296-.4-.73-.4-1.304V10.457c0-.638.146-1.093.44-1.367.292-.273.758-.41 1.396-.41h3.72c1.1 0 1.947.085 2.54.254a3.78 3.78 0 0 1 1.518.81c.427.378.75.84.972 1.387.221.547.332 1.162.332 1.846 0 1.458-.45 2.563-1.348 3.315-.898.752-2.236 1.128-4.013 1.128zm-2.657-6.562v4.365h1.954c.683 0 1.254-.072 1.713-.215.46-.142.81-.376 1.05-.701.241-.325.362-.75.362-1.277 0-.63-.186-1.143-.557-1.539-.417-.422-1.273-.633-2.568-.633z"/></g></g></g></svg>