<svg xmlns="http://www.w3.org/2000/svg" width="30" height="32" viewBox="0 0 30 32"><g><g><g><path fill="#ee0d37" d="M10.9 15.28h2.6v2.6h-2.6z"/></g><g><path fill="#ee0d37" d="M10.9 4.88h2.6v2.6h-2.6z"/></g><g><path fill="#ee0d37" d="M10.9 10.08h2.6v2.6h-2.6z"/></g><g><path fill="#ee0d37" d="M5.9 15.28h2.6v2.6H5.9z"/></g><g><path fill="#ee0d37" d="M5.9 4.88h2.6v2.6H5.9z"/></g><g><path fill="#ee0d37" d="M5.9 10.08h2.6v2.6H5.9z"/></g><g><path fill="#ee0d37" d="M16.1 4.88h2.6v2.6h-2.6z"/></g><g><path fill="#ee0d37" d="M16.1 10.08h2.6v2.6h-2.6z"/></g><g><path fill="#ee0d37" d="M23 18c-1.654 0-3 1.346-3 3s1.346 3 3 3 3-1.346 3-3-1.346-3-3-3z"/></g><g><path fill="#ee0d37" d="M26.961 24.063L23.174 28.8l-3.786-4.736a4.73 4.73 0 0 1-1.038-2.971c0-2.647 2.164-4.8 4.824-4.8 2.66 0 4.824 2.153 4.824 4.8 0 1.089-.359 2.116-1.037 2.969zM2.001 27.55V1.991h20.172v12.385c-3.291.483-5.825 3.311-5.825 6.718 0 1.542.508 2.996 1.472 4.209l1.797 2.248zm22.174-13.175V0H0v29.543h21.21L23.174 32l5.356-6.7A6.696 6.696 0 0 0 30 21.094c0-3.407-2.534-6.235-5.825-6.718z"/></g></g></g></svg>