<svg xmlns="http://www.w3.org/2000/svg" width="32" height="32" viewBox="0 0 32 32"><g><g><g><path fill="#ee0d37" d="M20.58 30.09H1.872V1.9h18.71zM.936.03A.935.935 0 0 0 0 .965v30.06c0 .517.419.936.935.936h20.581a.935.935 0 0 0 .936-.935V.966a.935.935 0 0 0-.936-.936z"/></g><g><path fill="#ee0d37" d="M6.547 5.644a.933.933 0 0 1 0 1.865.933.933 0 0 1 0-1.865zm0 3.739a2.81 2.81 0 0 0 2.806-2.806A2.81 2.81 0 0 0 6.547 3.77 2.81 2.81 0 0 0 3.74 6.577a2.81 2.81 0 0 0 2.807 2.806z"/></g><g><path fill="#ee0d37" d="M6.547 13.19a.935.935 0 0 1 0 1.872.935.935 0 0 1 0-1.871zm0 3.743a2.81 2.81 0 0 0 2.806-2.806 2.81 2.81 0 0 0-2.806-2.807 2.81 2.81 0 0 0-2.807 2.807 2.81 2.81 0 0 0 2.807 2.806z"/></g><g><path fill="#ee0d37" d="M6.547 20.74a.935.935 0 0 1 0 1.872.935.935 0 0 1 0-1.871zm0 3.743a2.81 2.81 0 0 0 2.806-2.806 2.81 2.81 0 0 0-2.806-2.807 2.81 2.81 0 0 0-2.807 2.807 2.81 2.81 0 0 0 2.807 2.806z"/></g><g><path fill="#ee0d37" d="M16.842 6.577a.935.935 0 0 1-1.871 0 .935.935 0 0 1 1.871 0zm1.87 0a2.81 2.81 0 0 0-2.806-2.807A2.81 2.81 0 0 0 13.1 6.577a2.81 2.81 0 0 0 2.806 2.806 2.81 2.81 0 0 0 2.807-2.806z"/></g><g><path fill="#ee0d37" d="M16.842 14.127a.937.937 0 0 1-1.871 0 .937.937 0 0 1 1.871 0zm1.87 0a2.81 2.81 0 0 0-2.806-2.807 2.81 2.81 0 0 0-2.806 2.807 2.81 2.81 0 0 0 2.806 2.806 2.81 2.81 0 0 0 2.807-2.806z"/></g><g><path fill="#ee0d37" d="M16.842 21.677a.937.937 0 0 1-1.871 0 .937.937 0 0 1 1.871 0zm1.87 0a2.81 2.81 0 0 0-2.806-2.807 2.81 2.81 0 0 0-2.806 2.807 2.81 2.81 0 0 0 2.806 2.806 2.81 2.81 0 0 0 2.807-2.806z"/></g><g><path fill="#ee0d37" d="M29.13 16.67a1.872 1.872 0 0 1-1.871 0v-2.55c0-1.227.22-2.21.446-2.894a3.955 3.955 0 0 0 .979 0c.225.684.446 1.667.446 2.894zm-1.871 8.743v-6.73a3.743 3.743 0 0 0 1.87 0v6.73c0 1.854-.495 3.179-.935 3.99-.44-.811-.935-2.136-.935-3.99zm-.712-19.012l1.647-3.327 1.65 3.33c.638 1.275-.109 2.98-1.65 2.98-1.578 0-2.26-1.755-1.647-2.983zM29.032.55a.936.936 0 0 0-1.676 0l-2.484 5.017c-.864 1.727-.354 3.856 1.095 4.956a11.275 11.275 0 0 0-.58 3.6v11.289c0 4.082 2.058 6.187 2.146 6.274a.932.932 0 0 0 1.323 0C28.943 31.6 31 29.495 31 25.413V14.125c0-1.254-.204-2.503-.58-3.601 1.46-1.106 1.96-3.228 1.098-4.953z"/></g><g><path fill="#ee0d37" d="M15.9 26.35H6.545a.935.935 0 1 0 0 1.87H15.9a.936.936 0 1 0 0-1.87z"/></g></g></g></svg>