<svg xmlns="http://www.w3.org/2000/svg" width="32" height="20" viewBox="0 0 32 20"><g><g><g><path fill="#ee0d37" d="M30.125 15.991a2.073 2.073 0 0 1-2.075 2.074h-1.07v-3.077a.937.937 0 0 0-.938-.937h-3.013a.937.937 0 0 0-.937.937v3.077h-3.146v-6.088a.937.937 0 0 0-.938-.937h-3.012a.937.937 0 0 0-.938.937v6.088H3.95a2.073 2.073 0 0 1-2.075-2.074v-.502c0-.307.248-.568.569-.568a2.446 2.446 0 0 0 2.443-2.442V7.46A2.446 2.446 0 0 0 2.444 5.02a.569.569 0 0 1-.569-.569V3.95c0-1.146.927-2.074 2.075-2.074h10.108v3.077c0 .518.42.937.938.937h3.012c.518 0 .938-.42.938-.937V1.875h3.146v6.088c0 .517.42.937.937.937h3.012c.518 0 .938-.42.938-.937V1.875h1.071c1.146 0 2.075.927 2.075 2.074zm-5.03 2.084h-1.128v-2.142h1.127zm-8.024 0h-1.138v-5.154h1.138zM1.875 6.829c.183.044.371.067.564.067.31 0 .564.255.564.569v5.02a.567.567 0 0 1-.564.57 2.42 2.42 0 0 0-.564.066zm14.058-4.954h1.138v2.142h-1.138zm8.034 0h1.127v5.154h-1.127zM28.05 0H3.95A3.948 3.948 0 0 0 0 3.95V16a3.948 3.948 0 0 0 3.95 3.95h24.1A3.948 3.948 0 0 0 32 16V3.95A3.948 3.948 0 0 0 28.05 0z"/></g><g><path fill="#ee0d37" d="M9.469 9.023a.564.564 0 1 1 .001-1.13.564.564 0 0 1-.001 1.13zm.005-3.003A2.447 2.447 0 0 0 7.03 8.464a2.447 2.447 0 0 0 2.444 2.444 2.446 2.446 0 0 0 2.444-2.444A2.447 2.447 0 0 0 9.474 6.02z"/></g></g></g></svg>