<svg xmlns="http://www.w3.org/2000/svg" width="33" height="17" viewBox="0 0 33 17"><g><g><path fill="#ee0d37" d="M27.35 12.856h-3.1v1.09c0 .592-.135 1.034-.405 1.327-.27.293-.623.44-1.06.44-.416 0-.76-.148-1.03-.444-.27-.297-.405-.738-.405-1.324v-1.089h-.185c-.586 0-1.027.135-1.324.406-.296.27-.444.613-.444 1.03 0 .436.147.79.44 1.06.293.27.735.405 1.328.405h9.28c.593 0 1.034-.135 1.324-.406.29-.27.434-.623.434-1.06 0-.422-.146-.767-.44-1.034-.292-.267-.732-.4-1.318-.4h-.195V3.763h.195c.593 0 1.034-.135 1.324-.405.29-.27.434-.623.434-1.06 0-.423-.146-.768-.44-1.035-.292-.266-.732-.4-1.318-.4h-9.28c-.586 0-1.027.135-1.324.405-.296.27-.444.614-.444 1.03 0 .437.147.79.44 1.06.293.27.735.405 1.328.405h.185V2.666c0-.586.133-1.026.4-1.319.267-.293.612-.44 1.036-.44.436 0 .789.146 1.06.435.27.29.404.731.404 1.324v1.098h3.1zm-3.1-9.092h-2.9v9.092h2.9zM5.31 13.845l.23.865c.075.276.178.529.308.756.13.228.313.415.547.562.234.146.52.22.86.22.449 0 .8-.114 1.054-.342a1.8 1.8 0 0 0 .522-.757c.095-.277.217-.711.367-1.304l2.295-9.121v9.883c0 .547.123.957.37 1.23.248.274.564.41.948.41.41 0 .737-.136.981-.41.245-.273.367-.683.367-1.23V3.278c0-.625-.163-1.046-.489-1.264-.325-.218-.765-.327-1.318-.327h-.898c-.54 0-.933.048-1.177.146a.988.988 0 0 0-.542.527c-.117.254-.25.668-.4 1.24l-2.08 7.843-2.136-8.05c-.128-.466-.243-.81-.345-1.033a.988.988 0 0 0-.542-.527c-.244-.098-.637-.146-1.177-.146h-.898c-.554 0-.993.109-1.319.327-.325.218-.488.64-.488 1.264v11.329c0 .553.124.965.371 1.235.247.27.566.406.957.406.404 0 .728-.137.972-.41.244-.274.366-.684.366-1.231V4.724z"/></g></g></svg>