<svg xmlns="http://www.w3.org/2000/svg" width="46" height="52" viewBox="0 0 46 52"><g><g><g><path fill="#9a4993" d="M46 15.272c0-.87-.184-1.653-.567-2.308-.368-.655-.921-1.196-1.658-1.624C37.653 7.793 31.517 4.247 25.395.7c-1.658-.954-3.245-.926-4.89.043C18.069 2.18 5.854 9.218 2.226 11.34.723 12.21 0 13.548 0 15.286v21.423c0 .854.184 1.61.539 2.265.368.669.935 1.239 1.686 1.68 3.642 2.123 15.843 9.145 18.28 10.598 1.645.968 3.246 1.011 4.89.043 6.122-3.561 12.258-7.094 18.38-10.64.765-.442 1.318-.998 1.686-1.681.355-.656.539-1.41.539-2.265V15.272"/></g><g><path fill="#6a1577" d="M22.585 26L0 39.01c.37.668.937 1.236 1.69 1.677 3.648 2.116 15.87 9.118 18.312 10.567 1.646.966 3.25 1.008 4.897.043 6.133-3.551 12.28-7.074 18.412-10.61.766-.44 1.32-.995 1.689-1.677L22.585 26"/></g><g><path fill="#6a1577" d="M17 29.5c1.294 2.092 3.716 3.5 6.486 3.5 2.798 0 5.233-1.42 6.514-3.539L23.556 26 17 29.5"/></g><g><path fill="#813084" d="M46 16.308c0-.87-.185-1.653-.568-2.308L23 26.95 45.46 40c.355-.655.54-1.41.54-2.265V16.308"/></g><g><path fill="#fff" d="M29.253 30.282a7.731 7.731 0 0 1-6.732 3.94 7.693 7.693 0 0 1-6.703-3.897 7.675 7.675 0 0 1-1.021-3.825 7.715 7.715 0 0 1 7.724-7.721 7.72 7.72 0 0 1 6.675 3.853l6.746-3.882C33.252 14.12 28.247 11 22.507 11 13.934 11 7 17.945 7 26.5c0 2.804.748 5.45 2.057 7.721A15.532 15.532 0 0 0 22.521 42C28.29 42 33.324 38.851 36 34.178l-6.747-3.896"/></g><g><g><path fill="#fff" d="M37.24 23.07h1.413v6.828H37.24z"/></g><g><path fill="#fff" d="M40.37 23.07h1.413v6.828H40.37z"/></g><g><path fill="#fff" d="M36.11 24.22h6.828v1.413H36.11z"/></g><g><path fill="#fff" d="M36.11 27.33h6.828v1.413H36.11z"/></g></g></g></g></svg>