<svg xmlns="http://www.w3.org/2000/svg" width="11" height="16" viewBox="0 0 11 16"><g><g><path fill="#ee0d37" d="M10.402 2.198v7.5c0 .65-.028 1.204-.083 1.66-.055.456-.18.918-.376 1.387a3.744 3.744 0 0 1-1.611 1.84c-.75.44-1.66.66-2.735.66-.97 0-1.779-.153-2.426-.46-.648-.305-1.17-.8-1.568-1.484a5.414 5.414 0 0 1-.508-1.26A5.139 5.139 0 0 1 .9 10.685c0-.456.127-.804.38-1.045.255-.24.58-.361.977-.361.385 0 .674.11.87.332.195.221.345.566.449 1.035.11.501.221.902.332 1.201.11.3.296.557.556.772.26.215.632.322 1.114.322 1.282 0 1.924-.94 1.924-2.822v-7.92c0-.586.128-1.026.385-1.319.257-.293.607-.439 1.05-.439.45 0 .806.146 1.07.44.263.292.395.732.395 1.318z"/></g></g></svg>