<svg xmlns="http://www.w3.org/2000/svg" width="116" height="42" viewBox="0 0 116 42"><g><g><path fill="#110b09" d="M97.672 26.282h1.044v3.247s-.464.078-2.243.078c-2.165 0-4.562-.85-4.562-4.02v-9.858h-2.32v-2.937h2.32V7.573h4.098v5.257h2.63v2.938h-2.63v8.89c0 1.238.696 1.663 1.663 1.624zm13.92-13.454H116l-5.916 17.194c-1.276 3.71-2.475 5.061-5.877 5.061h-2.63v-3.515h1.586c1.74 0 2.474-.89 2.474-2.28 0-.928-.309-2.01-1.276-4.56L99.837 12.79h4.408l2.746 7.573c.541 1.546 1.082 3.671 1.082 3.671h.116s.426-2.125.967-3.67l2.436-7.574zM84.255 7.573h4.098v3.362h-4.098zm0 5.216h4.098v16.77h-4.098zm-23.239 9.699v-9.699h4.099v16.808H61.17v-1.97h-.116c-1.122 1.545-2.436 2.434-4.795 2.434-3.75 0-5.839-2.396-5.839-6.067V12.79h4.099v10.433c0 1.97 1.199 3.052 3.093 3.052 2.088 0 3.364-1.545 3.364-3.786zm15.273-10.162c3.48 0 5.8 2.627 5.762 6.298v10.973h-4.099V19.281c0-1.97-1.392-3.092-3.248-3.092-1.972 0-3.403 1.585-3.403 3.864v9.505h-4.098V12.79h4.021v2.28h.077c1.16-1.778 2.707-2.743 4.988-2.743zm-34.297 4.366l-2.59 4.327 2.59 4.328L37.391 42l-17.13-4.482-2.552-4.366-5.142.038L0 20.98 12.567 8.77l5.142.04 2.552-4.366L37.391 0zm-33.37 2.202h15.08l7.54-12.673-13.107 3.284zm22.66 16.808l-7.54-12.674H8.661l9.473 9.39zm7.269-14.726L34.916 8.307l-7.54 12.669 7.54 12.668z"/></g></g></svg>