<svg xmlns="http://www.w3.org/2000/svg" width="32" height="29" viewBox="0 0 32 29"><g><g><g><path fill="#ee0d37" d="M29.188 5.625H5.625V3.75h23.563a.939.939 0 0 1 0 1.875zM3.74 7.49H1.875V1.875H3.74zm25.447-5.615H5.625V0H0v9.375h5.625V7.5h23.563A2.816 2.816 0 0 0 32 4.687a2.816 2.816 0 0 0-2.813-2.812z"/></g><g><path fill="#ee0d37" d="M28.25 20.625h1.875v5.615H28.25zm-25.438 3.75a.939.939 0 0 1 0-1.875h23.563v1.875zm23.563-3.75H2.812A2.816 2.816 0 0 0 0 23.438a2.816 2.816 0 0 0 2.813 2.812h23.562v1.875H32V18.75h-5.625z"/></g><g><path fill="#ee0d37" d="M29.197 15.009H18.813v-1.883h10.384a.941.941 0 0 1 0 1.883zm-12.26 1.863h-1.875v-5.619h1.876zM2.813 15.009a.94.94 0 0 1 0-1.883h10.376v1.883zm26.375-3.754H18.813V9.38h-5.625v1.875H2.813A2.816 2.816 0 0 0 0 14.068a2.816 2.816 0 0 0 2.813 2.812h10.374v1.875h5.626V16.88h10.375A2.816 2.816 0 0 0 32 14.068a2.816 2.816 0 0 0-2.813-2.813z"/></g></g></g></svg>