<svg xmlns="http://www.w3.org/2000/svg" width="28" height="32" viewBox="0 0 28 32"><g><g><g><path fill="#ee0d37" d="M15.615 24.25h-2.848a4.828 4.828 0 0 0-.829-1.905h11.025c1.52 0 2.756 1.281 2.756 2.857v4.889H23.88V25.2c0-.525-.41-.951-.918-.951-.507 0-.919.426-.919.952v4.889h-5.51V25.2c0-.525-.412-.951-.92-.951zm-4.603 5.84H5.507v-4.888c0-.526-.41-.952-.917-.952-.507 0-.918.426-.918.952v4.889H1.837V25.2c0-1.575 1.235-2.856 2.753-2.856h3.67c1.517 0 2.752 1.281 2.752 2.857zm11.951-9.65H4.593C2.06 20.44 0 22.576 0 25.202v5.841c0 .526.411.953.919.953H11.94c.507 0 .918-.427.918-.953v-4.889h1.837v4.89c0 .525.412.952.919.952h11.022c.507 0 .919-.427.919-.953v-5.841c0-2.626-2.06-4.762-4.593-4.762z"/></g><g><path fill="#ee0d37" d="M6.664 18.484a2.933 2.933 0 0 1-2.928-2.93 2.933 2.933 0 0 1 2.928-2.93 2.933 2.933 0 0 1 2.928 2.93 2.933 2.933 0 0 1-2.928 2.93zm4.894-2.925a4.894 4.894 0 0 0-4.89-4.889 4.894 4.894 0 0 0-4.888 4.889 4.894 4.894 0 0 0 4.889 4.889 4.894 4.894 0 0 0 4.889-4.89z"/></g><g><path fill="#ee0d37" d="M20.884 18.484a2.933 2.933 0 0 1-2.928-2.93 2.933 2.933 0 0 1 2.928-2.93 2.933 2.933 0 0 1 2.928 2.93 2.933 2.933 0 0 1-2.928 2.93zm4.894-2.925a4.894 4.894 0 0 0-4.89-4.889A4.894 4.894 0 0 0 16 15.559a4.894 4.894 0 0 0 4.889 4.889 4.894 4.894 0 0 0 4.889-4.89z"/></g><g><path fill="#ee0d37" d="M7.284 1.926h14.762c1.526 0 2.768 1.296 2.768 2.889 0 1.593-1.242 2.889-2.768 2.889H16.51a.903.903 0 0 0-.652.282L14.665 9.23l-1.193-1.245a.903.903 0 0 0-.652-.282H7.284c-1.526 0-2.768-1.296-2.768-2.89 0-1.592 1.242-2.888 2.768-2.888zm.001 7.704h5.157l1.575 1.644c.18.188.417.282.653.282a.9.9 0 0 0 .653-.282l1.575-1.644h5.157c2.545 0 4.615-2.16 4.615-4.815C26.67 2.16 24.6 0 22.055 0H7.285C4.74 0 2.67 2.16 2.67 4.815c0 2.655 2.07 4.815 4.615 4.815z"/></g><g><path fill="#ee0d37" d="M8.889 5.338a.889.889 0 1 0 0-1.778.889.889 0 0 0 0 1.778z"/></g><g><path fill="#ee0d37" d="M14.219 5.338a.889.889 0 1 0 0-1.778.889.889 0 0 0 0 1.778z"/></g><g><path fill="#ee0d37" d="M18.669 5.338a.889.889 0 1 0 0-1.778.889.889 0 0 0 0 1.778z"/></g></g></g></svg>