<svg xmlns="http://www.w3.org/2000/svg" width="32" height="23" viewBox="0 0 32 23"><g><g><g><path fill="#ee0d37" d="M30.125 20.313c0 .172-.14.312-.313.312H19.188a.313.313 0 0 1-.312-.313V2.188c0-.172.14-.312.313-.312h1.106L20.919 5h7.162l.625-3.125h1.107c.172 0 .312.14.312.313zM26.784 1.875l-.25 1.25h-4.078l-.25-1.25zM16.99 15.313H1.875V4.374c0-.172.14-.313.312-.313H16.99zm0 3.124H2.187a.313.313 0 0 1-.312-.312v-.938H16.99zM29.813 0H19.188A2.19 2.19 0 0 0 17 2.188H2.187A2.19 2.19 0 0 0 0 4.374v13.75a2.19 2.19 0 0 0 2.188 2.188H17a2.19 2.19 0 0 0 2.188 2.187h10.625A2.19 2.19 0 0 0 32 20.312V2.188A2.19 2.19 0 0 0 29.812 0z"/></g><g><path fill="#ee0d37" d="M11.685 10.375A1.877 1.877 0 0 1 9.81 8.5c0-1.034.841-1.875 1.875-1.875s1.875.841 1.875 1.875a1.877 1.877 0 0 1-1.875 1.875zm-1.635 2.178H6.935V9.437H8.05a3.755 3.755 0 0 0 2 2.435zm1.635-7.803a3.757 3.757 0 0 0-3.631 2.813H5.06v6.875h6.875V12.24a3.754 3.754 0 0 0 3.5-3.741 3.754 3.754 0 0 0-3.75-3.75z"/></g><g><path fill="#ee0d37" d="M26.064 12.01a1.88 1.88 0 0 1-1.879-1.879 1.88 1.88 0 0 1 1.879-1.878 1.88 1.88 0 0 1 1.878 1.878 1.88 1.88 0 0 1-1.878 1.878zm-1.629 2.174h-3.122v-3.121h1.118a3.763 3.763 0 0 0 2.004 2.439zm1.63-7.804a3.757 3.757 0 0 0-3.631 2.813H19.44v6.874h6.875v-2.196a3.754 3.754 0 0 0 3.5-3.741 3.754 3.754 0 0 0-3.75-3.75z"/></g></g></g></svg>