<svg xmlns="http://www.w3.org/2000/svg" width="32" height="32" viewBox="0 0 32 32"><g><g><g><path fill="#ee0d37" d="M29.248 24.505l-7.873-4.791v9.582zm1.673 1.898l-8.664 5.271a2.224 2.224 0 0 1-2.247.039 2.23 2.23 0 0 1-1.135-1.942V19.23a2.227 2.227 0 0 1 3.382-1.903l8.664 5.27A2.211 2.211 0 0 1 31.99 24.5c0 .784-.4 1.496-1.07 1.903zM2.066 6.175a1.25 1.25 0 0 1-.79-2.219l3.434-2.8a1.25 1.25 0 1 1 1.58 1.938l-3.435 2.8c-.232.189-.511.28-.789.28zm21.035-4.848a1.25 1.25 0 0 1 1.76-.164l3.372 2.8a1.25 1.25 0 0 1-1.597 1.923l-3.372-2.8a1.25 1.25 0 0 1-.163-1.76zm-6.29 29.325a1.25 1.25 0 0 1-1.174 1.322c-.294.017-.592.026-.887.026-3.94 0-7.644-1.534-10.43-4.32A14.653 14.653 0 0 1 0 17.25c0-3.94 1.534-7.644 4.32-10.43a14.639 14.639 0 0 1 9.18-4.267V1.25a1.25 1.25 0 1 1 2.5 0v1.303a14.652 14.652 0 0 1 9.09 4.178 14.662 14.662 0 0 1 4.407 10.246 1.25 1.25 0 1 1-2.5.046C26.878 10.393 21.384 5 14.75 5 7.995 5 2.5 10.495 2.5 17.25S7.995 29.5 14.75 29.5c.246 0 .494-.007.738-.022a1.25 1.25 0 0 1 1.322 1.174zm.271-14.3a2.503 2.503 0 0 1-2.332 3.398 2.503 2.503 0 0 1-2.5-2.5 2.503 2.503 0 0 1 2.888-2.47l3.89-4.815a1.25 1.25 0 1 1 1.944 1.57z"/></g></g></g></svg>