<svg xmlns="http://www.w3.org/2000/svg" width="32" height="29" viewBox="0 0 32 29"><g><g><g><path fill="#ee0d37" d="M30.125 25.308c0 .514-.42.932-.938.932H2.813a.936.936 0 0 1-.937-.932v-.933h28.25zM3.462 19.375h25.076l1.172 3.115H2.29zM3.75 2.812c0-.517.42-.937.938-.937h22.625c.516 0 .937.42.937.937V17.49H3.75zm26.375 15.455V2.812A2.816 2.816 0 0 0 27.312 0H4.688a2.816 2.816 0 0 0-2.812 2.812v15.455L.06 23.108a.937.937 0 0 0-.06.33v1.875a2.816 2.816 0 0 0 2.813 2.812h26.375A2.816 2.816 0 0 0 32 25.312v-1.875a.937.937 0 0 0-.06-.329z"/></g><g><path fill="#ee0d37" d="M21.42 5.972a.937.937 0 1 0-1.465 1.171l2.032 2.54-2.032 2.539a.937.937 0 1 0 1.465 1.171l2.5-3.125a.937.937 0 0 0 0-1.171z"/></g><g><path fill="#ee0d37" d="M11.893 5.825a.937.937 0 0 0-1.318.147l-2.5 3.125a.937.937 0 0 0 0 1.171l2.5 3.125a.937.937 0 0 0 1.465-1.171l-2.032-2.54 2.032-2.539a.937.937 0 0 0-.147-1.318z"/></g><g><path fill="#ee0d37" d="M17.462 3.465a.938.938 0 0 0-1.127.698l-2.5 10.625a.938.938 0 0 0 1.825.43l2.5-10.626a.937.937 0 0 0-.698-1.127z"/></g></g></g></svg>