<svg xmlns="http://www.w3.org/2000/svg" width="26" height="16" viewBox="0 0 26 16"><g><g><path fill="#ee0d37" d="M2.897 3.72v9.882c0 .547-.122.957-.366 1.23-.245.274-.569.41-.972.41-.391 0-.71-.135-.958-.405-.247-.27-.371-.682-.371-1.235V2.274c0-.625.163-1.047.488-1.265.326-.218.766-.327 1.32-.327h.898c.54 0 .933.049 1.177.146a.988.988 0 0 1 .542.528c.103.222.218.566.345 1.033l2.137 8.049 2.08-7.842c.15-.573.284-.986.4-1.24a.988.988 0 0 1 .543-.528c.244-.097.637-.146 1.177-.146h.899c.554 0 .993.109 1.319.327.325.218.488.64.488 1.265v11.328c0 .547-.122.957-.366 1.23-.244.274-.572.41-.982.41-.384 0-.7-.136-.947-.41-.248-.273-.372-.683-.372-1.23V3.719L9.081 12.84c-.15.593-.272 1.027-.367 1.304a1.8 1.8 0 0 1-.522.757c-.254.228-.606.342-1.055.342-.34 0-.626-.074-.86-.22a1.583 1.583 0 0 1-.547-.562 3.205 3.205 0 0 1-.308-.757l-.23-.864zm18.23-.425h-.18c-.593 0-1.036-.136-1.33-.407-.292-.27-.439-.625-.439-1.062 0-.418.149-.763.445-1.034.296-.27.737-.406 1.323-.406h3.28c.585 0 1.025.133 1.318.401.293.268.44.614.44 1.039 0 .437-.146.791-.435 1.062-.29.271-.731.407-1.324.407h-.19v9.09h.19c.586 0 1.026.134 1.319.402.293.268.44.614.44 1.039 0 .437-.146.791-.435 1.062-.29.271-.731.407-1.324.407h-3.279c-.592 0-1.035-.136-1.328-.407-.293-.27-.44-.625-.44-1.062 0-.418.149-.763.445-1.034.296-.27.737-.406 1.323-.406h.18z"/></g></g></svg>