<svg xmlns="http://www.w3.org/2000/svg" width="29" height="32" viewBox="0 0 29 32"><g><g><g><path fill="#ee0d37" d="M10.755 7.335a.936.936 0 0 0 1.188-.112l2.148-2.15 2.147 2.15a.936.936 0 0 0 1.189.112l1.327-.903-.78 4.878h-7.767l-.78-4.878zm-2.272 5.06c.072.455.465.79.925.79h9.375c.46 0 .853-.335.926-.79l1.25-7.812c.13-.81-.775-1.384-1.453-.923l-2.483 1.689-2.264-2.264a.937.937 0 0 0-1.326 0l-2.264 2.264-2.484-1.69c-.678-.46-1.582.114-1.452.924z"/></g><g><path fill="#ee0d37" d="M14.097 1.875a.937.937 0 1 0 0-1.875.937.937 0 0 0 0 1.875z"/></g><g><path fill="#ee0d37" d="M20.657 2.815a.937.937 0 1 0 0-1.875.937.937 0 0 0 0 1.875z"/></g><g><path fill="#ee0d37" d="M7.527 2.815a.937.937 0 1 0 0-1.875.937.937 0 0 0 0 1.875z"/></g><g><path fill="#ee0d37" d="M26.333 30.122h-6.886v-7.5h6.886zM10.676 16.935h6.886v13.178h-6.886zm-8.771 3.813h6.886v9.365H1.905zm25.375 0h-7.833v-4.75a.938.938 0 0 0-.938-.938H9.74a.938.938 0 0 0-.938.937v2.875H.968a.938.938 0 0 0-.938.938v11.25c0 .518.42.938.938.938H27.28c.518 0 .938-.42.938-.938v-9.375a.938.938 0 0 0-.938-.938z"/></g><g><path fill="#ee0d37" d="M14.125 18.81h-.938a.938.938 0 0 0 0 1.875v2.813a.938.938 0 0 0 1.876 0v-3.75a.938.938 0 0 0-.938-.938z"/></g></g></g></svg>