<svg xmlns="http://www.w3.org/2000/svg" width="12" height="16" viewBox="0 0 12 16"><g><g><path fill="#ee0d37" d="M12.017 10.704c0 .866-.223 1.644-.669 2.334-.446.69-1.099 1.23-1.958 1.62-.86.391-1.878.587-3.057.587-1.412 0-2.578-.267-3.496-.801a4.658 4.658 0 0 1-1.587-1.538c-.407-.641-.61-1.265-.61-1.87 0-.352.122-.653.366-.904.244-.25.555-.376.933-.376.306 0 .565.098.776.293a2.1 2.1 0 0 1 .465.685l.077.185c.182.455.38.836.591 1.142.212.306.51.558.894.757.384.199.888.298 1.513.298.86 0 1.558-.2 2.095-.6.537-.401.806-.9.806-1.5 0-.475-.145-.86-.435-1.157-.29-.296-.664-.523-1.123-.679-.344-.117-.775-.24-1.294-.368l-.547-.13c-1.028-.24-1.89-.522-2.583-.845-.693-.322-1.243-.761-1.65-1.318-.407-.557-.61-1.248-.61-2.075 0-.788.214-1.488.644-2.1.43-.612 1.051-1.082 1.865-1.41C4.237.603 5.194.44 6.294.44c.88 0 1.64.109 2.28.327.642.218 1.174.508 1.597.87.423.36.733.74.928 1.137.195.397.293.784.293 1.162 0 .345-.122.656-.366.933a1.168 1.168 0 0 1-.913.415c-.332 0-.585-.083-.757-.25-.173-.165-.36-.437-.562-.815-.26-.54-.573-.962-.937-1.264-.365-.303-.95-.454-1.758-.454-.749 0-1.353.164-1.812.493-.459.328-.688.724-.688 1.186 0 .287.078.534.234.742.157.209.371.388.645.538.273.15.55.266.83.351l.392.112c.208.057.462.123.762.2l.233.06c.807.188 1.538.396 2.192.624.654.228 1.211.505 1.67.83.459.326.817.738 1.074 1.236.257.498.386 1.108.386 1.83z"/></g></g></svg>