<svg xmlns="http://www.w3.org/2000/svg" width="120" height="36" viewBox="0 0 120 36"><g><g><g><path fill="#1e2123" d="M106.538 12.987a8.884 8.884 0 0 1 .39-2.354 6.41 6.41 0 0 1 .986-1.967 4.86 4.86 0 0 1 1.593-1.354 4.574 4.574 0 0 1 2.167-.518c1.405-.108 2.775.502 3.707 1.649a7.125 7.125 0 0 1 1.18 4.544zm13.462.495a14.205 14.205 0 0 0-.467-3.685 8.507 8.507 0 0 0-1.442-3.003 7.085 7.085 0 0 0-2.517-2.037 8.275 8.275 0 0 0-3.7-.753 8.56 8.56 0 0 0-3.677.765 7.817 7.817 0 0 0-2.798 2.202 10.11 10.11 0 0 0-1.78 3.532 16.217 16.217 0 0 0-.618 4.64 17.14 17.14 0 0 0 .597 4.709 8.982 8.982 0 0 0 1.768 3.402c.8.92 1.789 1.622 2.886 2.05 1.282.486 2.634.721 3.992.694.828.004 1.655-.067 2.473-.212a18.757 18.757 0 0 0 2.04-.483c.489-.14.968-.32 1.431-.541.236-.103.458-.238.662-.4a1.034 1.034 0 0 0 .282-.565v-.378a5.303 5.303 0 0 0 0-.506 6.258 6.258 0 0 0 0-.683 1.74 1.74 0 0 0-.098-.436.501.501 0 0 0-.173-.235.45.45 0 0 0-.26-.082 1.911 1.911 0 0 0-.738.235c-.326.15-.738.322-1.237.518-.582.215-1.176.388-1.779.518-.775.166-1.564.245-2.354.236a6.948 6.948 0 0 1-2.82-.518 4.721 4.721 0 0 1-1.78-1.543 5.986 5.986 0 0 1-1.084-2.296 13.385 13.385 0 0 1-.315-3.002h12.16c.339.004.667-.126.923-.365a1.62 1.62 0 0 0 .401-1.178z"/></g><g><path fill="#1e2123" d="M93 25.317a.536.536 0 0 1-.087.31.647.647 0 0 1-.272.216c-.164.07-.336.114-.511.131a6.264 6.264 0 0 1-.827 0 6.443 6.443 0 0 1-.848 0 1.753 1.753 0 0 1-.512-.131.648.648 0 0 1-.271-.215.536.536 0 0 1-.087-.31v-11.87c.02-.942-.065-1.885-.25-2.805a6.111 6.111 0 0 0-.719-1.827 3.248 3.248 0 0 0-1.229-1.194 3.593 3.593 0 0 0-1.74-.406 4.114 4.114 0 0 0-2.556.99 14.561 14.561 0 0 0-2.675 2.914v14.21a.536.536 0 0 1-.087.31.648.648 0 0 1-.272.215c-.164.07-.336.114-.512.131a6.453 6.453 0 0 1-.848 0 6.254 6.254 0 0 1-.827 0 1.892 1.892 0 0 1-.522-.131.57.57 0 0 1-.272-.215.59.59 0 0 1-.076-.31V5.03a.684.684 0 0 1 .066-.31.559.559 0 0 1 .25-.227c.15-.074.313-.119.478-.131a8.454 8.454 0 0 1 1.512 0c.162.009.321.054.468.131.095.053.177.131.24.227a.604.604 0 0 1 .075.31v2.687A11.678 11.678 0 0 1 83.211 4.9a6.249 6.249 0 0 1 3.132-.895 6.443 6.443 0 0 1 3.122.692 5.759 5.759 0 0 1 2.045 1.84c.525.809.895 1.727 1.087 2.698a17.59 17.59 0 0 1 .338 3.713z"/></g><g><g><path fill="#ff4000" d="M50.376 3.466c.097 2.99 2.035 4.599 5.901 5.3 3.23.552 6.236.276 7.205-2.725C65.366.188 60.897 1.65 57.02.993c-3.877-.655-6.795-2.334-6.644 2.473z"/></g><g><path fill="#ff4000" d="M51.54 15.756c.356 2.23 2.305 3.519 5.288 3.45 2.983-.07 5.213-1.334 5.525-3.737.57-4.462-2.725-2.737-5.708-2.645-2.983.092-5.815-1.449-5.104 2.932z"/></g><g><path fill="#ff4000" d="M55.422 25.979c.592 1.667 2.218 2.369 4.415 1.874 2.197-.494 3.715-1.276 3.586-3.174-.226-3.518-2.39-2.414-4.588-1.908-2.197.506-4.566-.058-3.414 3.208z"/></g><g><path fill="#ff4000" d="M57.306 33.773c.173 1.403 1.314 2.242 3.102 2.22 1.787-.024 3.144-.771 3.37-2.3.431-2.795-1.572-1.76-3.36-1.737-1.787.023-3.413-.943-3.112 1.817z"/></g></g><g><path fill="#1e2123" d="M38.088 15.915c-.004.901-.106 1.8-.303 2.68a8.444 8.444 0 0 1-.933 2.44 5.024 5.024 0 0 1-1.658 1.736 4.48 4.48 0 0 1-2.422.656 5.162 5.162 0 0 1-2.955-.955 16.03 16.03 0 0 1-2.978-2.76v-7.788a18.503 18.503 0 0 1 1.707-1.795c.477-.429.996-.814 1.55-1.15.45-.28.94-.5 1.453-.656.47-.137.96-.206 1.453-.207a4.391 4.391 0 0 1 2.422.656 4.747 4.747 0 0 1 1.574 1.737c.414.786.696 1.628.835 2.496.164.962.245 1.936.242 2.91zm3.45-4.451a9.84 9.84 0 0 0-1.453-3.336 7.128 7.128 0 0 0-2.579-2.3 8.996 8.996 0 0 0-5.788-.599 8.52 8.52 0 0 0-1.804.679c-.623.328-1.211.713-1.756 1.15a21.484 21.484 0 0 0-1.804 1.587V6.011a.564.564 0 0 0-.084-.31.628.628 0 0 0-.291-.207 1.833 1.833 0 0 0-.52-.115 9.443 9.443 0 0 0-1.575 0 1.86 1.86 0 0 0-.533.115.554.554 0 0 0-.278.207.629.629 0 0 0-.073.31v27.331c0 .105.03.209.085.3a.59.59 0 0 0 .303.218c.187.066.382.109.58.126.307.018.615.018.921 0 .315.019.63.019.945 0a2.2 2.2 0 0 0 .569-.126.675.675 0 0 0 .302-.219.522.522 0 0 0 .097-.299v-9.789c.55.506 1.07.947 1.562 1.323.459.357.953.67 1.478.932.482.24.995.422 1.525.54a7.76 7.76 0 0 0 1.695.173c1.321.024 2.63-.24 3.827-.77a7.618 7.618 0 0 0 2.809-2.198 9.852 9.852 0 0 0 1.72-3.45c.405-1.503.6-3.05.58-4.602a17.216 17.216 0 0 0-.46-4.037z"/></g><g><path fill="#1e2123" d="M13.999 19.572a6.402 6.402 0 0 1-.557 2.738 5.547 5.547 0 0 1-1.59 2.02 7.15 7.15 0 0 1-2.46 1.246A11.036 11.036 0 0 1 6.245 26a11.911 11.911 0 0 1-3.726-.587 8.793 8.793 0 0 1-1.288-.529 3.768 3.768 0 0 1-.766-.505 1.285 1.285 0 0 1-.348-.623 4.269 4.269 0 0 1-.105-1.093 4.829 4.829 0 0 1 0-.717c.02-.16.054-.317.105-.47a.493.493 0 0 1 .185-.258.495.495 0 0 1 .279-.083c.257.041.5.146.708.306.317.204.704.423 1.16.658.527.265 1.075.485 1.637.658a7.17 7.17 0 0 0 2.17.306 6.446 6.446 0 0 0 1.672-.2 4.015 4.015 0 0 0 1.3-.588c.36-.251.651-.59.847-.987.209-.443.312-.93.302-1.422a2.37 2.37 0 0 0-.43-1.422 4.136 4.136 0 0 0-1.16-1.022 9.343 9.343 0 0 0-1.579-.787l-1.81-.717a18.464 18.464 0 0 1-1.823-.858 6.968 6.968 0 0 1-1.59-1.175 5.31 5.31 0 0 1-1.16-1.645 5.572 5.572 0 0 1-.43-2.292A5.796 5.796 0 0 1 .85 7.691 5.24 5.24 0 0 1 2.195 5.8a6.746 6.746 0 0 1 2.252-1.304A9.25 9.25 0 0 1 7.592 4c.529 0 1.057.043 1.579.13.482.077.96.187 1.427.329.375.113.74.258 1.091.434.24.118.468.255.685.412.118.082.22.185.302.305a.983.983 0 0 1 .104.306c0 .11.023.247.07.411.013.2.013.4 0 .6.013.219.013.438 0 .657a1.65 1.65 0 0 1-.105.459.587.587 0 0 1-.185.258.403.403 0 0 1-.244.083 1.153 1.153 0 0 1-.569-.247 8.09 8.09 0 0 0-.963-.517 10.66 10.66 0 0 0-1.393-.517 6.298 6.298 0 0 0-1.834-.247 5.655 5.655 0 0 0-1.624.211c-.425.115-.82.32-1.161.6-.296.252-.53.57-.685.928-.158.37-.238.771-.232 1.175a2.37 2.37 0 0 0 .441 1.457c.32.415.714.766 1.16 1.034a9.527 9.527 0 0 0 1.602.8l1.834.728c.62.25 1.234.533 1.845.846.591.312 1.134.707 1.614 1.175.486.451.88.994 1.16 1.598.313.678.48 1.415.488 2.163z"/></g></g></g></svg>