<svg xmlns="http://www.w3.org/2000/svg" width="32" height="32" viewBox="0 0 32 32"><g><g><g><path fill="#ee0d37" d="M19.747 22.563h-2.812v-2.875a.938.938 0 0 0-1.875 0V23.5c0 .518.42.938.937.938h3.75a.938.938 0 0 0 0-1.875z"/></g><g><path fill="#ee0d37" d="M5.692 9.375c-1.05 0-1.937-.859-1.937-1.875s.887-1.875 1.938-1.875c1.033 0 1.875.841 1.875 1.875a1.877 1.877 0 0 1-1.875 1.875zm0-5.625C3.63 3.75 1.88 5.417 1.88 7.5c0 2.085 1.75 3.75 3.813 3.75a3.754 3.754 0 0 0 3.75-3.75 3.754 3.754 0 0 0-3.75-3.75z"/></g><g><path fill="#ee0d37" d="M30.135 20.698h-5.696V17.82a8.389 8.389 0 0 0-.795-3.572 3.773 3.773 0 0 1 2.673-1.12c2.105 0 3.818 1.684 3.818 3.754zm-7.572-2.51a8.746 8.746 0 0 0-.596-.669 8.371 8.371 0 0 0-4.323-2.35l1.91-2.868a6.573 6.573 0 0 1 3.009 5.522zM15.995 30.13c-3.616 0-6.558-2.973-6.558-6.627 0-3.645 2.934-6.627 6.558-6.627 3.626 0 6.558 2.984 6.558 6.627 0 3.654-2.942 6.627-6.558 6.627zM9.438 17.823c0-2.313 1.2-4.35 3.009-5.522l1.91 2.868a8.372 8.372 0 0 0-4.324 2.35 8.76 8.76 0 0 0-.595.668zm6.567-6.569c.635 0 1.25.09 1.83.259l-1.83 2.737-1.83-2.737a6.582 6.582 0 0 1 1.83-.259zM7.563 17.82v2.878H1.875v-3.816c0-2.07 1.71-3.754 3.813-3.754 1.006 0 1.968.412 2.668 1.12a8.4 8.4 0 0 0-.794 3.572zm22.752-4.923a5.683 5.683 0 0 0-4.003-1.642 5.647 5.647 0 0 0-3.67 1.365A8.43 8.43 0 0 0 16 9.38a8.431 8.431 0 0 0-6.642 3.24 5.647 5.647 0 0 0-3.67-1.365C2.577 11.255 0 13.769 0 16.88v4.75c0 .518.42.938.937.938h6.677a8.475 8.475 0 0 0 2.418 6.929A8.34 8.34 0 0 0 16 32.004a8.34 8.34 0 0 0 5.967-2.509 8.475 8.475 0 0 0 2.419-6.928h6.677c.517 0 .937-.42.937-.938v-4.75a5.548 5.548 0 0 0-1.685-3.983z"/></g><g><path fill="#ee0d37" d="M26.31 9.375a1.876 1.876 0 0 1 0-3.75c1.049 0 1.935.859 1.935 1.875s-.886 1.875-1.935 1.875zm0-5.625a3.754 3.754 0 0 0-3.75 3.75 3.754 3.754 0 0 0 3.75 3.75c2.064 0 3.812-1.667 3.812-3.75 0-2.087-1.752-3.75-3.812-3.75z"/></g><g><path fill="#ee0d37" d="M15.993 7.49a2.81 2.81 0 0 1-2.808-2.807 2.81 2.81 0 0 1 2.808-2.808A2.81 2.81 0 0 1 18.8 4.683a2.81 2.81 0 0 1-2.807 2.807zM15.998 0a4.693 4.693 0 0 0-4.688 4.688 4.693 4.693 0 0 0 4.688 4.687 4.693 4.693 0 0 0 4.687-4.688A4.693 4.693 0 0 0 15.998 0z"/></g></g></g></svg>