<?xml version="1.0" encoding="utf-8"?>
<!-- Generator: Adobe Illustrator 23.0.1, SVG Export Plug-In . SVG Version: 6.00 Build 0)  -->
<svg version="1.1" id="Capa_1" xmlns="http://www.w3.org/2000/svg" xmlns:xlink="http://www.w3.org/1999/xlink" x="0px" y="0px"
	 viewBox="0 0 32 32" style="enable-background:new 0 0 32 32;" xml:space="preserve">
<style type="text/css">
	.st0{fill:#EE0D37;}
</style>
<path class="st0" d="M32,12.2V2.8C32,1.3,30.7,0,29.2,0h-15c-1.6,0-2.8,1.3-2.8,2.8v4.7H4.7c-1.6,0-2.8,1.3-2.8,2.8v14.2H0.9
	c-0.5,0-0.9,0.4-0.9,0.9v1.9C0,29.9,2.1,32,4.7,32h22.6c2.6,0,4.7-2.1,4.7-4.7v-1.9c0-0.5-0.4-0.9-0.9-0.9h-0.9v-9.7
	C31.2,14.4,32,13.4,32,12.2z M28.8,1.9l-6.4,6.4c-0.4,0.4-1,0.4-1.3,0l-6.4-6.4H28.8z M24.5,8.8l4.3,4.3H14.6l4.3-4.3l0.8,0.8
	c1.1,1.1,2.9,1.1,4,0L24.5,8.8z M13.2,3.2l4.3,4.3l-4.3,4.3V3.2z M3.8,10.3c0-0.5,0.4-0.9,0.9-0.9h6.7v2.8c0,1.6,1.3,2.8,2.8,2.8
	h14.1v9.5h-6.6c-0.5,0-0.9,0.4-0.9,0.9v0.9h-9.5v-0.9c0-0.5-0.4-0.9-0.9-0.9H3.8V10.3z M30.1,27.3c0,1.6-1.3,2.8-2.8,2.8H4.7
	c-1.6,0-2.8-1.3-2.8-2.8v-0.9h0.9h6.6v0.9c0,0.5,0.4,0.9,0.9,0.9h11.4c0.5,0,0.9-0.4,0.9-0.9v-0.9h6.6h0.9V27.3z M25.8,7.5l4.3-4.3
	v8.6L25.8,7.5z"/>
</svg>
