<?xml version="1.0" encoding="utf-8"?>
<!-- Generator: Adobe Illustrator 23.0.1, SVG Export Plug-In . SVG Version: 6.00 Build 0)  -->
<svg version="1.1" id="Capa_1" xmlns="http://www.w3.org/2000/svg" xmlns:xlink="http://www.w3.org/1999/xlink" x="0px" y="0px"
	 viewBox="0 0 32 32" style="enable-background:new 0 0 32 32;" xml:space="preserve">
<style type="text/css">
	.st0{fill:#EE0D37;}
</style>
<path class="st0" d="M22.6,7.6h-0.9V0.9c0-0.5-0.4-0.9-0.9-0.9H1.9C1.4,0,1,0.4,1,0.9v26.4c0,0.5,0.4,0.9,0.9,0.9h2.8v2.8
	c0,0.5,0.4,0.9,0.9,0.9h11.2c0,0,0,0,0,0c0.2,0,0.5-0.1,0.7-0.3c0,0,5.6-5.6,5.6-5.6c0.2-0.2,0.3-0.4,0.3-0.6c0,0,0,0,0,0V8.5
	C23.5,8,23.1,7.6,22.6,7.6z M8.5,1.9h5.6l0,1.9H8.5V1.9z M2.9,26.4V1.9h3.8v2.8c0,0.5,0.4,0.9,0.9,0.9h7.5c0.5,0,0.9-0.4,0.9-0.9
	l0-2.8h3.7v5.7H5.7C5.2,7.6,4.8,8,4.8,8.5v17.9H2.9z M6.6,9.4h15v15.1h-4.7c-0.5,0-0.9,0.4-0.9,0.9v4.7H6.6V9.4z M17.9,28.8v-2.4
	h2.4L17.9,28.8z M14.4,16.7c0.2,0.2,0.4,0.3,0.7,0.3s0.5-0.1,0.7-0.3l3.8-3.8c0.4-0.4,0.4-1,0-1.3c-0.4-0.4-1-0.4-1.3,0l-3.1,3.1
	l-1.2-1.2c-0.4-0.4-1-0.4-1.3,0s-0.4,1,0,1.3L14.4,16.7z M9.4,20.8h9.4c0.5,0,0.9-0.4,0.9-0.9s-0.4-0.9-0.9-0.9H9.4
	c-0.5,0-0.9,0.4-0.9,0.9S8.9,20.8,9.4,20.8z M9.4,24.5h3.8c0.5,0,0.9-0.4,0.9-0.9s-0.4-0.9-0.9-0.9H9.4c-0.5,0-0.9,0.4-0.9,0.9
	S8.9,24.5,9.4,24.5z M13.2,26.4H9.4c-0.5,0-0.9,0.4-0.9,0.9s0.4,0.9,0.9,0.9h3.8c0.5,0,0.9-0.4,0.9-0.9S13.7,26.4,13.2,26.4z
	 M30.1,9.4h-0.9V8.5c0-0.5-0.4-0.9-0.9-0.9S27.2,8,27.2,8.5v0.9h-0.9c-0.5,0-0.9,0.4-0.9,0.9v14.3c0,1.8,0.7,3.6,1.9,4.9v1.5
	c0,0.5,0.4,0.9,0.9,0.9s0.9-0.4,0.9-0.9v-1.5c1.2-1.3,1.9-3.1,1.9-4.9V10.4C31,9.9,30.6,9.4,30.1,9.4z M29.1,11.3v3.8h-1.9v-3.8
	H29.1z M28.2,27.7c-0.6-0.9-0.9-2-0.9-3.1V17h1.9v7.7C29.1,25.8,28.8,26.8,28.2,27.7z"/>
</svg>
