<?xml version="1.0" encoding="utf-8"?>
<!-- Generator: Adobe Illustrator 23.0.1, SVG Export Plug-In . SVG Version: 6.00 Build 0)  -->
<svg version="1.1" id="Capa_1" xmlns="http://www.w3.org/2000/svg" xmlns:xlink="http://www.w3.org/1999/xlink" x="0px" y="0px"
	 viewBox="0 0 32 32" style="enable-background:new 0 0 32 32;" xml:space="preserve">
<style type="text/css">
	.st0{fill:#EE0D37;}
</style>
<path class="st0" d="M31.1,26.4h-2.8V4.7c0-2.6-2.1-4.7-4.7-4.7H3.8C1.7,0,0,1.7,0,3.8v0.9c0,0.5,0.4,0.9,0.9,0.9h4.7v22.6
	c0,2.1,1.7,3.8,3.8,3.8h18.9c2.1,0,3.8-1.7,3.8-3.8v-0.9C32,26.8,31.6,26.4,31.1,26.4z M3.8,1.9c1,0,1.9,0.8,1.9,1.9H1.9
	C1.9,2.7,2.7,1.9,3.8,1.9z M7.5,28.2V4.7c0-1.1,0.1-1.8-0.5-2.8h16.6c1.6,0,2.8,1.3,2.8,2.8v21.7c-0.6,0-13.2,0-14.2,0
	c-0.5,0-0.9,0.4-0.9,0.9v0.9c0,1-0.8,1.9-1.9,1.9S7.5,29.3,7.5,28.2z M28.2,30.1H12.6c0.3-0.6,0.5-1.2,0.5-1.9c0.8,0,16.5,0,17,0
	C30.1,29.3,29.3,30.1,28.2,30.1z M12.2,18.8h7.6c0.5,0,0.9-0.4,0.9-0.9s-0.4-0.9-0.9-0.9h-7.6c-0.5,0-0.9,0.4-0.9,0.9
	S11.7,18.8,12.2,18.8z M12.2,22.6h7.6c0.5,0,0.9-0.4,0.9-0.9s-0.4-0.9-0.9-0.9h-7.6c-0.5,0-0.9,0.4-0.9,0.9S11.7,22.6,12.2,22.6z
	 M13.6,10.7l-0.5,2.7c-0.1,0.4,0.1,0.7,0.4,0.9c0.3,0.2,0.7,0.2,1,0.1l2.5-1.3l2.5,1.3c0.3,0.2,0.7,0.1,1-0.1
	c0.3-0.2,0.4-0.6,0.4-0.9l-0.5-2.7l2-1.9c0.3-0.2,0.3-0.6,0.2-1c-0.1-0.3-0.4-0.6-0.8-0.6L19,6.8l-1.2-2.5c-0.2-0.3-0.5-0.5-0.8-0.5
	S16.2,4,16.1,4.3l-1.2,2.5l-2.7,0.4c-0.4,0.1-0.6,0.3-0.8,0.6c-0.1,0.3,0,0.7,0.2,1L13.6,10.7z M15.6,8.5c0.3,0,0.6-0.2,0.7-0.5
	l0.6-1.2L17.5,8c0.1,0.3,0.4,0.5,0.7,0.5l1.3,0.2l-1,1c-0.2,0.2-0.3,0.5-0.3,0.8l0.2,1.3l-1.2-0.6c-0.3-0.1-0.6-0.1-0.9,0l-1.2,0.6
	l0.2-1.3c0.1-0.3,0-0.6-0.3-0.8l-1-1L15.6,8.5z M23.6,16.9c0.5,0,0.9,0.4,0.9,0.9s-0.4,0.9-0.9,0.9s-0.9-0.4-0.9-0.9
	S23,16.9,23.6,16.9z M23.6,20.7c0.5,0,0.9,0.4,0.9,0.9s-0.4,0.9-0.9,0.9s-0.9-0.4-0.9-0.9S23,20.7,23.6,20.7z"/>
</svg>
