<?xml version="1.0" encoding="utf-8"?>
<!-- Generator: Adobe Illustrator 23.0.1, SVG Export Plug-In . SVG Version: 6.00 Build 0)  -->
<svg version="1.1" id="Capa_1" xmlns="http://www.w3.org/2000/svg" xmlns:xlink="http://www.w3.org/1999/xlink" x="0px" y="0px"
	 viewBox="0 0 32 32" style="enable-background:new 0 0 32 32;" xml:space="preserve">
<style type="text/css">
	.st0{fill:#EE0D37;}
</style>
<path class="st0" d="M31.4,10.3l-6.6-3V0.9c0-0.5-0.4-0.9-0.9-0.9c0,0-14.4,0-14.5,0C9.1,0,8.8,0.1,8.6,0.3L0.3,8.6
	C0.1,8.8,0,9.1,0,9.4c0,0,0,21.7,0,21.7C0,31.6,0.4,32,0.9,32h22.9c0.5,0,0.9-0.4,0.9-0.9v-4.7l4.7-3.5c1.6-1.2,2.5-3.3,2.5-5.9
	v-5.8C32,10.8,31.8,10.5,31.4,10.3z M8.4,3.2v5.2H3.2L8.4,3.2z M1.9,30.1V10.2h7.4c0.5,0,0.9-0.4,0.9-0.9V1.9h12.7v5.5l-6.6,3
	c-0.3,0.2-0.6,0.5-0.6,0.9V17c0,2.6,0.9,4.6,2.5,5.9l4.6,3.5v3.8H1.9z M30.1,17c0,2-0.6,3.5-1.8,4.4l-4.5,3.4l-4.5-3.4
	c-1.2-0.9-1.8-2.4-1.8-4.4v-5.2L23.9,9l6.2,2.8V17z M22.6,15.9c-0.4-0.4-1-0.4-1.3,0s-0.4,1,0,1.3l1.5,1.5c0.2,0.2,0.4,0.3,0.7,0.3
	s0.5-0.1,0.7-0.3l3.1-3.1c0.4-0.4,0.4-1,0-1.3s-1-0.4-1.3,0l-2.4,2.4L22.6,15.9z M5.9,21.5h5.8c0.5,0,0.9-0.4,0.9-0.9
	s-0.4-0.9-0.9-0.9H5.9c-0.5,0-0.9,0.4-0.9,0.9S5.4,21.5,5.9,21.5z M5.9,17.5h5.8c0.5,0,0.9-0.4,0.9-0.9s-0.4-0.9-0.9-0.9H5.9
	c-0.5,0-0.9,0.4-0.9,0.9S5.4,17.5,5.9,17.5z M5.9,25.5h5.8c0.5,0,0.9-0.4,0.9-0.9s-0.4-0.9-0.9-0.9H5.9c-0.5,0-0.9,0.4-0.9,0.9
	S5.4,25.5,5.9,25.5z"/>
</svg>
