<?xml version="1.0" encoding="utf-8"?>
<!-- Generator: Adobe Illustrator 23.0.1, SVG Export Plug-In . SVG Version: 6.00 Build 0)  -->
<svg version="1.1" id="Capa_1" xmlns="http://www.w3.org/2000/svg" xmlns:xlink="http://www.w3.org/1999/xlink" x="0px" y="0px"
	 viewBox="0 0 32 32" style="enable-background:new 0 0 32 32;" xml:space="preserve">
<style type="text/css">
	.st0{fill:#EE0D37;}
</style>
<path class="st0" d="M29.2,1.8H2.8C1.3,1.8,0,3,0,4.6V22c0,1.6,1.3,2.8,2.8,2.8h9.5v3.6h-1.4c-0.5,0-0.9,0.4-0.9,0.9
	s0.4,0.9,0.9,0.9h10.3c0.5,0,0.9-0.4,0.9-0.9s-0.4-0.9-0.9-0.9h-1.4v-3.6h9.5c1.6,0,2.8-1.3,2.8-2.8V4.6C32,3,30.7,1.8,29.2,1.8z
	 M17.8,28.4h-3.7v-3.6h3.7V28.4z M30.1,22c0,0.5-0.4,0.9-0.9,0.9H18.8h-5.6H2.8c-0.5,0-0.9-0.4-0.9-0.9v-1.4h28.2V22z M30.1,18.7
	H1.9V4.6c0-0.5,0.4-0.9,0.9-0.9h26.4c0.5,0,0.9,0.4,0.9,0.9V18.7z M10.3,5.4H4.2c-0.5,0-0.9,0.4-0.9,0.9v9.8c0,0.5,0.4,0.9,0.9,0.9
	h6.1c0.5,0,0.9-0.4,0.9-0.9V6.4C11.2,5.9,10.8,5.4,10.3,5.4z M9.4,15.2H5.1V7.3h4.2V15.2z M19,5.4H13c-0.5,0-0.9,0.4-0.9,0.9v9.8
	c0,0.5,0.4,0.9,0.9,0.9H19c0.5,0,0.9-0.4,0.9-0.9V6.4C20,5.9,19.6,5.4,19,5.4z M18.1,15.2h-4.2V7.3h4.2V15.2z M27.8,5.4h-6.1
	c-0.5,0-0.9,0.4-0.9,0.9v9.8c0,0.5,0.4,0.9,0.9,0.9h6.1c0.5,0,0.9-0.4,0.9-0.9V6.4C28.7,5.9,28.3,5.4,27.8,5.4z M26.9,15.2h-4.2V7.3
	h4.2V15.2z"/>
</svg>
