<svg xmlns="http://www.w3.org/2000/svg" width="89" height="24" viewBox="0 0 89 24"><g><g><g><g><path d="M14.477 11.036c0-2.56 2.08-3.84 2.24-3.92-1.2-1.76-3.12-2-3.76-2-1.6-.16-3.12.96-3.92.96-.8 0-2.08-.96-3.36-.88-1.68 0-3.28 1.04-4.16 2.56-1.84 3.12-.48 7.76 1.28 10.32.88 1.28 1.92 2.64 3.2 2.56 1.28-.08 1.76-.8 3.36-.8 1.52 0 2 .8 3.36.8 1.36 0 2.24-1.28 3.12-2.48 1.04-1.44 1.44-2.8 1.44-2.88-.08-.16-2.72-1.2-2.8-4.24z"/></g><g><path d="M11.918 3.44c.72-.88 1.2-2.08 1.04-3.28-1.04.08-2.24.72-3.04 1.52-.64.72-1.2 2-1.04 3.12 1.2.16 2.32-.48 3.04-1.36z"/></g></g><g><g><path d="M27.44 16l.88-2.8c.24-.88.4-1.52.48-2 .32 1.04.48 1.68.56 2l.88 2.8zm2.4-6.24h-2.08L24.32 20.4h1.76l.96-3.12h3.44l.96 3.12h1.84z"/></g><g><path d="M39.92 18.56c-.4.48-.88.72-1.52.72-.56 0-1.04-.16-1.36-.56-.32-.4-.48-.88-.48-1.44V16c0-.08 0-.24.08-.48.08-.48.32-.8.64-1.12.32-.24.72-.4 1.12-.4.64 0 1.12.24 1.52.72.32.48.48 1.12.48 1.84 0 .8-.16 1.44-.48 2zm1.36-4.88c-.56-.72-1.36-1.04-2.24-1.04-1.12 0-2 .48-2.56 1.36l-.08-1.2h-1.52c.08.88.08 1.76.08 2.56v8.24h1.68v-4.08c.4.72 1.12 1.12 2.16 1.12.88 0 1.68-.4 2.32-1.04.72-.8 1.04-1.84 1.04-3.12 0-1.2-.32-2.16-.88-2.8z"/></g><g><path d="M48.72 18.56c-.4.48-.88.72-1.52.72-.56 0-1.04-.16-1.36-.56-.32-.4-.48-.88-.48-1.44V16c0-.08 0-.24.08-.48.08-.48.32-.8.64-1.12.32-.24.72-.4 1.12-.4.64 0 1.12.24 1.52.72.32.48.48 1.12.48 1.84 0 .8-.16 1.44-.48 2zm1.36-4.88c-.56-.72-1.36-1.04-2.24-1.04-1.12 0-2 .48-2.56 1.36l-.08-1.2h-1.52c.08.88.08 1.76.08 2.56v8.24h1.68v-4.08c.4.72 1.12 1.12 2.16 1.12.88 0 1.68-.4 2.32-1.04.72-.8 1.04-1.84 1.04-3.12 0-1.2-.32-2.16-.88-2.8z"/></g><g><path d="M60.8 17.44c0 .88-.32 1.68-.96 2.24-.72.64-1.68.96-2.88.96-1.12 0-2.08-.24-2.72-.64l.4-1.44c.72.48 1.6.72 2.48.72.64 0 1.12-.16 1.52-.4.32-.32.56-.64.56-1.2 0-.4-.16-.8-.48-1.12-.32-.32-.8-.56-1.44-.8-1.84-.72-2.8-1.68-2.8-3.04 0-.88.32-1.6.96-2.16.64-.56 1.52-.8 2.64-.8.96 0 1.76.16 2.4.48l-.4 1.36c-.64-.32-1.28-.48-2-.48-.64 0-1.04.16-1.44.48-.32.24-.4.56-.4.96 0 .4.16.8.48 1.04.32.24.8.56 1.52.8.88.4 1.6.8 2 1.28.4.4.56 1.04.56 1.76z"/></g><g><path d="M66.48 14h-1.92v3.76c0 .96.32 1.44.96 1.44.32 0 .56 0 .72-.08l.08 1.28c-.32.16-.8.16-1.36.16-.64 0-1.2-.24-1.6-.64-.4-.4-.56-1.12-.56-2.08V14h-1.12v-1.28h1.12v-1.44l1.68-.48v1.92h1.84c.16 0 .16 1.28.16 1.28z"/></g><g><path d="M72.64 18.32c-.32.64-.88.96-1.52.96s-1.12-.24-1.52-.88c-.32-.56-.48-1.12-.48-1.84s.16-1.36.48-1.84c.4-.56.88-.88 1.6-.88.64 0 1.2.24 1.52.88.32.56.48 1.12.48 1.84s-.16 1.28-.56 1.76zm1.28-4.64c-.72-.72-1.6-1.12-2.72-1.12-1.2 0-2.08.4-2.8 1.12-.72.8-1.04 1.76-1.04 2.96 0 1.12.4 2.08 1.04 2.8.72.72 1.6 1.12 2.72 1.12s2.08-.4 2.8-1.2c.72-.72 1.04-1.68 1.04-2.88 0-1.12-.32-2.08-1.04-2.8z"/></g><g><path d="M80.48 14.24c-.16 0-.32-.08-.56-.08-.64 0-1.04.24-1.36.72-.32.4-.4.88-.4 1.52v4h-1.68v-5.28c0-.88 0-1.68-.08-2.4h1.52l.08 1.44h.08c.16-.48.48-.88.88-1.2.4-.24.8-.4 1.2-.4h.4c-.08.08-.08 1.68-.08 1.68z"/></g><g><path d="M86.48 15.76l-3.52.08c0-.56.16-.96.48-1.36.32-.48.8-.72 1.36-.72.64 0 1.04.24 1.36.72.24.32.32.8.32 1.28zm.96-1.84c-.56-.8-1.36-1.2-2.48-1.2-1.2 0-2.08.4-2.72 1.2-.64.72-.96 1.76-.96 2.88 0 1.12.4 2.08 1.04 2.8.64.72 1.6 1.04 2.8 1.04.96 0 1.84-.16 2.56-.48l-.24-1.2c-.64.24-1.36.4-2.08.4s-1.28-.24-1.68-.56c-.48-.4-.72-1.04-.72-1.76h5.12c.08-.24.08-.48.08-.8 0-.96-.24-1.84-.72-2.32z"/></g></g><g><g><path d="M28.24 4.72c-.4.4-.88.56-1.52.56h-.56V1.36c.16-.08.4-.08.64-.08.64 0 1.12.16 1.44.48.32.4.48.8.48 1.44 0 .72-.16 1.2-.48 1.52zm.56-3.44c-.48-.4-1.2-.56-2.08-.56-.48 0-.96 0-1.44.08v5.12c.32.08.72.08 1.2.08.96 0 1.68-.24 2.24-.64.56-.48.88-1.2.88-2.16 0-.8-.24-1.44-.8-1.92z"/></g><g><path d="M33.2 4.96c-.16.32-.4.48-.72.48-.4 0-.64-.16-.8-.48-.16-.24-.24-.56-.24-.88 0-.32.08-.64.24-.88.24-.32.48-.48.8-.48.32 0 .56.16.72.48.16.24.24.56.24.88 0 .32-.08.64-.24.88zm.64-2.32c-.4-.4-.8-.56-1.36-.56s-1.04.16-1.36.56c-.32.4-.48.88-.48 1.44 0 .56.16.96.48 1.36.4.4.8.56 1.36.56s1.04-.16 1.36-.56c.32-.4.48-.88.48-1.44 0-.56-.16-.96-.48-1.36z"/></g><g><path d="M40.64 2.16l-1.2 3.76h-.8l-.48-1.6c-.16-.4-.24-.8-.32-1.2-.08.4-.16.8-.32 1.2l-.48 1.6h-.8l-1.12-3.76H36l.4 1.76.24 1.2c.08-.32.16-.72.32-1.2l.56-1.84h.72l.48 1.76c.16.4.24.88.32 1.28.08-.4.16-.8.24-1.28l.48-1.76.88.08z"/></g><g><path d="M44.96 5.92h-.8V3.76c0-.64-.24-.96-.8-.96-.24 0-.48.08-.64.24-.16.16-.24.4-.24.64v2.24h-.8V3.2 2.16h.72v.56c.08-.16.24-.32.4-.48.24-.16.48-.24.72-.24.32 0 .64.08.88.32.32.24.4.72.4 1.28v2.32z"/></g><g><path d="M47.28 5.92h-.8V.4h.8z"/></g><g><path d="M51.12 4.96c-.16.32-.4.48-.72.48-.4 0-.64-.16-.8-.48-.16-.24-.24-.56-.24-.88 0-.32.08-.64.24-.88.24-.32.48-.48.8-.48.32 0 .56.16.72.48.16.24.24.56.24.88 0 .32-.08.64-.24.88zm.64-2.32c-.4-.4-.8-.56-1.36-.56s-1.04.16-1.36.56c-.32.4-.48.88-.48 1.44 0 .56.16.96.48 1.36.4.4.8.56 1.36.56s1.04-.16 1.36-.56c.32-.4.48-.88.48-1.44 0-.56-.16-.96-.48-1.36z"/></g><g><path d="M55.36 4.8c-.08.24-.16.4-.32.48-.16.08-.32.16-.48.16-.16 0-.32 0-.4-.16-.08-.16-.16-.32-.16-.48 0-.48.4-.72 1.36-.72v.72zm.8.16V3.6c0-1.04-.56-1.52-1.52-1.52-.48 0-.96.08-1.28.32l.16.56c.24-.16.56-.24.96-.24.56 0 .8.24.8.72v.08c-.64-.08-1.2.08-1.6.32-.4.24-.56.56-.56 1.04 0 .32.16.56.32.8.24.24.56.32.88.32.48 0 .88-.16 1.12-.48l.08.4h.72c0-.16 0-.48-.08-.96z"/></g><g><path d="M59.92 5.04c-.16.24-.4.32-.64.32a.84.84 0 0 1-.72-.4c-.16-.24-.24-.48-.24-.88s.08-.72.24-.96c.16-.24.4-.4.72-.4.24 0 .4.08.56.24.16.08.24.24.32.48v.88c0 .32-.08.56-.24.72zm1.12-.24V.32h-.8v2.16c-.16-.32-.56-.48-1.04-.48s-.88.24-1.2.56c-.32.4-.48.88-.48 1.52 0 .56.16.96.48 1.36.32.4.64.56 1.12.56.56 0 .96-.24 1.2-.72v.64h.72c0-.32-.08-.64 0-1.12z"/></g><g><path d="M67.12 4.96c-.16.32-.4.48-.72.48-.4 0-.64-.16-.8-.48-.16-.24-.24-.56-.24-.88 0-.32.08-.64.24-.88.24-.32.48-.48.8-.48.32 0 .56.16.72.48.16.24.24.56.24.88 0 .32-.08.64-.24.88zm.56-2.32c-.4-.4-.8-.56-1.36-.56s-1.04.16-1.36.56c-.32.4-.48.88-.48 1.44 0 .56.16.96.48 1.36.4.4.8.56 1.36.56s1.04-.16 1.36-.56c.32-.4.48-.88.48-1.44 0-.56-.16-.96-.48-1.36z"/></g><g><path d="M72.72 5.92h-.8V3.76c0-.64-.24-.96-.8-.96-.24 0-.48.08-.64.24-.16.16-.24.4-.24.64v2.24h-.8V3.2 2.16h.72v.56c.08-.16.24-.32.4-.48.24-.16.48-.24.8-.24.32 0 .64.08.88.32.32.24.4.72.4 1.28v2.32z"/></g><g><path d="M78.32 2.8h-.96v1.84c0 .48.16.72.48.72h.4V6c-.16.08-.4.08-.64.08-.32 0-.56-.08-.8-.32-.16-.24-.24-.56-.24-1.04V2.8H76v-.64h.56v-.72l.8-.24v.96h.96v.64z"/></g><g><path d="M82.8 5.92H82V3.76c0-.64-.24-1.04-.72-1.04-.4 0-.64.16-.8.56v2.56h-.8V.32h.8v2.24c.24-.4.64-.64 1.12-.64.32 0 .64.08.88.32.32.32.4.72.4 1.28-.08.16-.08 2.4-.08 2.4z"/></g><g><path d="M84.88 3.68c0-.24.08-.48.24-.64.16-.24.4-.32.64-.32s.48.08.64.32c.08.16.16.4.16.64h-1.68zm2.24-.88c-.24-.4-.64-.64-1.2-.64-.48 0-.96.24-1.28.64-.32.4-.48.88-.48 1.44 0 .56.16 1.04.48 1.36.32.32.8.48 1.36.48.48 0 .96-.08 1.28-.24l-.16-.56c-.32.08-.64.16-1.04.16-.32 0-.56-.08-.8-.24-.24-.24-.4-.48-.4-.88h2.48v-.4c0-.48-.08-.88-.24-1.12z"/></g></g></g></g></svg>