<svg xmlns="http://www.w3.org/2000/svg" width="97" height="24" viewBox="0 0 97 24"><defs><linearGradient id="rtyha" x1="10.55" x2="-3.29" y1="2.24" y2="16.07" gradientUnits="userSpaceOnUse"><stop offset="0" stop-color="#00a0ff"/><stop offset=".01" stop-color="#00a1ff"/><stop offset=".26" stop-color="#00beff"/><stop offset=".51" stop-color="#00d2ff"/><stop offset=".76" stop-color="#00dfff"/><stop offset="1" stop-color="#00e3ff"/></linearGradient><linearGradient id="rtyhb" x1="20.48" x2=".52" y1="11.54" y2="11.54" gradientUnits="userSpaceOnUse"><stop offset="0" stop-color="#ffe000"/><stop offset=".41" stop-color="#ffbd00"/><stop offset=".78" stop-color="orange"/><stop offset="1" stop-color="#ff9c00"/></linearGradient><linearGradient id="rtyhc" x1="13.05" x2="-5.72" y1="13.43" y2="32.2" gradientUnits="userSpaceOnUse"><stop offset="0" stop-color="#ff3a44"/><stop offset="1" stop-color="#c31162"/></linearGradient><linearGradient id="rtyhd" x1="-1.41" x2="6.97" y1="-4.79" y2="3.58" gradientUnits="userSpaceOnUse"><stop offset="0" stop-color="#32a071"/><stop offset=".07" stop-color="#2da771"/><stop offset=".48" stop-color="#15cf74"/><stop offset=".8" stop-color="#06e775"/><stop offset="1" stop-color="#00f076"/></linearGradient></defs><g><g><g><g><path d="M31.656 3.46c0 .66-.165 1.237-.577 1.649-.495.495-1.072.742-1.814.742-.741 0-1.318-.247-1.813-.742-.495-.495-.742-1.072-.742-1.814 0-.741.247-1.318.742-1.813.495-.495 1.072-.742 1.813-.742.33 0 .66.082.99.247.33.165.577.33.742.577l-.413.413c-.33-.413-.742-.578-1.319-.578-.494 0-.989.165-1.318.578-.413.33-.578.824-.578 1.4 0 .578.165 1.073.578 1.402.412.33.824.577 1.318.577.578 0 .99-.165 1.402-.577.247-.247.412-.577.412-.989h-1.814v-.577h2.391v.247z"/></g><g><path d="M35.445 1.4H33.22v1.566h2.061v.577h-2.06v1.566h2.225v.577H32.56V.74h2.885z"/></g><g><path d="M38.17 5.766h-.659V1.397H36.11V.82h3.38v.577h-1.402v4.369z"/></g><g><path d="M41.962 5.766V.82h.66v4.946z"/></g><g><path d="M45.42 5.766h-.659V1.397H43.36V.82h3.38v.577h-1.402v4.369z"/></g><g><path d="M49.54 3.29c0-.575.247-1.068.577-1.397.33-.411.824-.576 1.318-.576.495 0 .99.247 1.32.576.412.329.576.822.576 1.397 0 .576-.247 1.07-.577 1.398-.33.411-.824.576-1.319.576-.494 0-.989-.247-1.318-.576-.413-.329-.578-.822-.578-1.398zm4.45.005c0-.741-.246-1.318-.741-1.813C52.754.987 52.177.74 51.435.74c-.741 0-1.318.247-1.813.742-.495.495-.742 1.072-.742 1.813 0 .742.247 1.32.742 1.814.495.495 1.072.742 1.813.742.742 0 1.32-.247 1.814-.742.495-.495.742-1.072.742-1.814z"/></g><g><path d="M54.9 5.766V.82h.742l2.39 3.874V.82h.66v4.946h-.66l-2.555-4.04v4.04H54.9z"/></g></g><g><path d="M80.702 9.48h1.566v10.304h-1.566zm13.856 3.71h1.651L92 22.915h-1.568l1.568-3.462-2.724-6.265h1.65l1.817 4.452h.083zm-6.85 3.791c-.412-.165-.741-.33-1.4-.33-.743 0-1.65.248-1.65 1.072 0 .66.742.907 1.237.907.824 0 1.649-.66 1.814-1.649zm1.65-1.154v3.957h-1.485v-.824h-.082c-.412.494-.907.989-1.978.989-1.32 0-2.556-.907-2.556-2.308 0-1.484 1.484-2.308 2.968-2.308.66 0 1.319.247 1.566.412v-.083c-.082-.824-.824-1.319-1.649-1.319-.577 0-1.071.165-1.401.742l-1.401-.577c.412-1.071 1.566-1.566 2.72-1.566 1.731 0 3.132 1.072 3.297 2.885zm-10.965-3.21c0-.744-.659-1.736-1.813-1.736h-2.226v3.555h2.226c1.072 0 1.731-.91 1.813-1.819zm1.484.078c0 1.978-1.648 3.215-3.38 3.215h-2.143v3.874h-1.566V9.48h3.71c1.73 0 3.38 1.236 3.38 3.215zM58.28 16.487c0-1.237-.825-2.144-1.896-2.144-1.072 0-1.979.907-1.979 2.144 0 1.236.907 2.143 1.979 2.143 1.071 0 1.896-.907 1.896-2.143zm-.083-2.72v-.578h1.484v6.265c0 2.556-1.484 3.627-3.297 3.627-1.732 0-2.72-1.154-3.133-2.06l1.319-.578c.165.578.824 1.237 1.731 1.237 1.154 0 1.896-.742 1.896-2.06v-.495h-.082c-.33.412-.99.824-1.814.824-1.813 0-3.38-1.484-3.38-3.462 0-1.979 1.649-3.545 3.38-3.545.824 0 1.484.412 1.896.824zM60.67 9.48h1.566v10.304H60.67zm7.017 5.605c-.165-.412-.744-.742-1.323-.742-.744 0-1.82.742-1.82 2.061zm1.804.577l-4.7 1.979c.413.742.908 1.071 1.732 1.071s1.319-.412 1.731-.989l1.154.824c-.33.578-1.319 1.567-2.885 1.567-1.978 0-3.462-1.567-3.462-3.545 0-2.143 1.484-3.545 3.297-3.545 1.814 0 2.638 1.402 2.968 2.226zm-32.48-1.566c.083.247.083.577.083.907 0 1.071-.33 2.473-1.319 3.462-.99 1.072-2.143 1.566-3.792 1.566-2.968 0-5.523-2.473-5.523-5.44 0-2.968 2.555-5.441 5.523-5.441 1.649 0 2.803.66 3.71 1.484l-1.072 1.071c-.66-.577-1.566-1.071-2.72-1.071-2.144 0-3.875 1.73-3.875 3.957 0 2.225 1.649 3.956 3.875 3.956 1.401 0 2.225-.577 2.72-1.071.412-.412.742-1.072.824-1.896h-3.544v-1.484zm6.018 2.39c0-1.318-.907-2.143-1.978-2.143-1.072 0-1.979.907-1.979 2.144 0 1.236.907 2.143 1.979 2.143 1.071 0 1.978-.907 1.978-2.143zm1.566.083c0 2.06-1.566 3.545-3.544 3.545a3.518 3.518 0 0 1-3.545-3.545c0-2.06 1.566-3.545 3.545-3.545 1.978 0 3.544 1.402 3.544 3.545zm6.1-.082c0-1.32-.906-2.144-1.978-2.144-1.071 0-1.978.907-1.978 2.144 0 1.236.907 2.143 1.978 2.143 1.072 0 1.979-.907 1.979-2.143zm1.567.082c0 2.06-1.566 3.545-3.545 3.545a3.518 3.518 0 0 1-3.544-3.545c0-2.06 1.566-3.545 3.544-3.545 1.979 0 3.545 1.402 3.545 3.545z"/></g><g><g><path fill="url(#rtyha)" d="M1.152 1.24C.905 1.487.74 1.9.74 2.394v18.218c0 .495.165.907.412 1.154l.083.083 10.221-10.222v-.165L1.152 1.24z"/></g><g><path fill="url(#rtyhb)" d="M14.84 15.087l-3.38-3.38v-.247l3.38-3.38.082.082 4.04 2.309c1.154.66 1.154 1.73 0 2.39l-4.122 2.226z"/></g><g><path fill="url(#rtyhc)" d="M14.916 15.002l-3.462-3.462L1.15 21.844c.412.412.99.412 1.731.083l12.035-6.925"/></g><g><path fill="url(#rtyhd)" d="M14.916 8.083L2.881 1.241C2.14.829 1.562.911 1.15 1.323l10.304 10.305z"/></g><g><g opacity=".2"><path d="M14.834 14.92L2.881 21.68c-.66.412-1.236.33-1.649 0l-.082.082.082.082c.413.33.99.413 1.65 0l11.952-6.924z"/></g><g opacity=".12"><path d="M1.158 21.684c-.247-.247-.412-.66-.412-1.154v.082c0 .495.165.907.412 1.154v-.082z"/></g></g><g opacity=".12"><path d="M18.962 12.612L14.84 14.92l.082.082 4.04-2.308c.577-.33.824-.742.824-1.154 0 .412-.33.742-.824 1.072z"/></g><g opacity=".25"><path fill="#fff" d="M2.88 1.316l16.075 9.15c.495.33.825.66.825 1.072 0-.412-.247-.824-.825-1.154L2.881 1.234C1.727.574.82 1.152.82 2.471v.082c0-1.319.907-1.896 2.06-1.237z"/></g></g></g></g></svg>