<svg xmlns="http://www.w3.org/2000/svg" width="24" height="17" viewBox="0 0 24 17"><g><g transform="rotate(180 12 8.5)"><g><path fill="#ee0d37" d="M22.389 7.216a5.59 5.59 0 0 0-3.768-1.68 5.134 5.134 0 0 1-.012-.38c0-.69.525-2.797.855-3.963L19.803 0h-4.106l-.275.443c-.109.176-2.672 4.378-2.672 10.713a5.631 5.631 0 0 0 5.625 5.625A5.631 5.631 0 0 0 24 11.156a5.592 5.592 0 0 0-1.611-3.94z"/></g><g><path fill="#ee0d37" d="M9.639 7.216a5.59 5.59 0 0 0-3.768-1.68 5.134 5.134 0 0 1-.012-.38c0-.69.525-2.797.855-3.963L7.053 0H2.947l-.275.443C2.563.62 0 4.821 0 11.156a5.631 5.631 0 0 0 5.625 5.625 5.631 5.631 0 0 0 5.625-5.625 5.592 5.592 0 0 0-1.611-3.94z"/></g></g></g></svg>