<?xml version="1.0" encoding="utf-8"?>
<!-- Generator: Adobe Illustrator 22.1.0, SVG Export Plug-In . SVG Version: 6.00 Build 0)  -->
<svg version="1.1" id="Layer_1" xmlns="http://www.w3.org/2000/svg" xmlns:xlink="http://www.w3.org/1999/xlink" x="0px" y="0px"
	 viewBox="0 0 307.5 426.6" style="enable-background:new 0 0 307.5 426.6;" xml:space="preserve">
<style type="text/css">
	.st0{fill:#FFFFFF;}
</style>
<path class="st0" d="M158,362.6H54c-15.8,0-24.5-8.9-23.8-24.7c0.5-13.8,4.9-27.1,12.7-38.4c8.1-11.7,17.2-22.9,26.4-33.8
	s19.6-21.3,29.1-32.3c4.2-5.1,7.9-10.7,11-16.6c4.8-8.8,2.8-17-3.2-24.6c-1.5-1.9-2.8-2.5-5-1c-3.5,2.5-7.3,4.6-10.8,7.2
	c-10.8,7.9-23.4,13-36.7,14.7c-18.9,2.6-41.4-10.4-50.2-28.9c-7.5-15.8-3-35.9,11.1-49.8c11.5-11.4,22.8-22.9,34-34.6
	c1.7-1.8,2.8-4,3.3-6.4c5.4-30.3,32.4-52,63.2-50.8c13.5,0.5,21.6-7.3,21.8-20.9c0.1-9.5,4.6-16.3,13.2-19.9s16.8-1.8,23.5,4.8
	c11.9,11.7,23.5,23.6,35.4,35.3c2.4,2.3,5.1,4.2,8.1,5.5c42,18.1,69.2,59.6,68.9,105.4c-0.2,28.2-3,56.2-7.1,84.1
	c-4.7,32.6-2.7,65.8,6,97.6c3.4,12.8-2.4,24-14.1,27.3c-2.9,0.7-5.9,1-8.9,0.8C227.3,362.6,192.7,362.6,158,362.6z M42.5,167.7
	c4.6,2.8,8.7,3.8,13.1,1.3c4.6-2.6,9.2-5.4,13.9-7.8c9.2-4.8,18.2-10.4,28-14c12.7-4.6,24.6-1.2,33.7,8.8c6,6.4,11.3,13.5,15.9,21
	c9.1,15.5,10.2,32.1,4.3,49.1c-5.2,15.1-14,27.9-24.4,39.7c-11.1,12.7-22.9,24.8-34,37.3c-4.5,5-8.3,10.6-13,16.6h157.9
	c-0.1-1-0.1-1.7-0.2-2.3c-4.3-26.3-5.2-52.7-1.7-79.2c3.6-27.6,7.2-55.1,7.4-83c0.3-31.8-17.8-58.7-47.3-70.3
	c-4.8-1.9-9.2-5.2-13.1-8.7c-5.5-4.8-10.4-10.3-15.4-15.3c-0.7,0.3-1.1,0.4-1.3,0.7c-13.6,16.9-31.3,24.5-53,23.8
	C102.4,85,94,93.8,94.1,104.8c0.2,7.1-2.7,13.9-7.9,18.7c-13.2,13-26.2,26.1-39.3,39.2C45.5,164.2,44.2,165.9,42.5,167.7z"/>
<path class="st0" d="M158.6,384.1c42.2,0,84.3,0,126.5,0c16.1,0,26.5,14.7,20.9,29c-3.4,8.5-11,13.4-21.4,13.4c-41.5,0-83,0-124.5,0
	c-43,0-86,0-129,0c-14.9,0-25-12.4-21.8-26.2c2.3-9.8,10.8-16.2,21.8-16.2c39.8,0,79.7,0,119.5,0L158.6,384.1z"/>
</svg>
