<?xml version="1.0" encoding="utf-8"?>
<!-- Generator: Adobe Illustrator 23.0.1, SVG Export Plug-In . SVG Version: 6.00 Build 0)  -->
<svg version="1.1" id="Layer_1" xmlns="http://www.w3.org/2000/svg" xmlns:xlink="http://www.w3.org/1999/xlink" x="0px" y="0px"
	 viewBox="0 0 60 50" style="enable-background:new 0 0 60 50;" xml:space="preserve">
<path id="Combined-Shape" d="M4,20.4V50H0V20.4H4z M22.7,25.8c6.8,0,12,5.1,12,12.1S29.5,50,22.7,50c-6.9,0-12-5.2-12-12.2
	S15.8,25.8,22.7,25.8z M60,20.4v3.8H49.4V50h-4.1V24.2H34.7v-3.8H60z M22.7,29.8c-4.7,0-8.1,3.6-8.1,8c0,4.5,3.3,8.1,8.1,8.1
	c4.6,0,7.9-3.6,7.9-8.1C30.7,33.4,27.3,29.8,22.7,29.8z M22.4,14.7c3.2,0,6.2,1.3,8.4,3.5l0.2,0.2l0.1,0.1l-2.8,2.9c0,0,0,0-0.1-0.1
	c-1.5-1.5-3.5-2.5-5.8-2.5c-2.3,0-4.3,1-5.8,2.5l0,0l0,0l0,0l-2.8-2.9l0.1-0.1C16,16.2,19,14.7,22.4,14.7z M22.4,8
	c5.4,0,10.4,2.1,13.9,5.4l0,0l0,0l0,0l-2.7,2.6L33.6,16c-2.9-2.7-6.8-4.3-11.2-4.3c-4.2,0-8.1,1.6-10.9,4.1L11.2,16l-0.1,0.1
	l-2.7-2.6c0,0,0,0,0.1-0.1C12,10.1,16.9,8,22.4,8z M22.4,0c7.3,0,14,2.9,18.9,7.6l0.3,0.3L41.7,8L39,10.7l-0.1-0.1
	c-4.2-4.2-10.1-6.8-16.5-6.8S10.1,6.4,5.8,10.6l0,0l0,0l0,0L3.1,8l0.1-0.1C8.1,3,14.9,0,22.4,0z"/>
</svg>
