<?xml version="1.0" encoding="UTF-8"?>
<svg id="SVGDoc" width="128" height="38" xmlns="http://www.w3.org/2000/svg" version="1.1" xmlns:xlink="http://www.w3.org/1999/xlink" xmlns:avocode="https://avocode.com/" viewBox="0 0 128 38"><defs></defs><desc>Generated with Avocode.</desc><g><g><title>Logo / RS-Logo-Black</title><g><title>Combined Shape</title><path d="M4.27499,5.18571c5.72501,-5.71428 22.80002,-5.71428 28.5,0c5.70001,5.71429 5.70001,21.90477 0,27.61905c-5.69998,5.71429 -22.77499,5.71429 -28.5,0c-5.69998,-5.71429 -5.69998,-21.90476 0,-27.61905zM22.79999,14.70952c1.31168,0 2.375,-1.06598 2.375,-2.38095c0,-1.32857 -1.06332,-2.38095 -2.375,-2.38095h-4.75c-0.81888,0 -1.57999,0.4229 -2.04999,1.11905l-4.71399,7.61905c-0.69519,1.11507 -0.35706,2.58401 0.71399,3.31428c1.15356,0.66359 2.6188,0.32461 3.314,-0.79048l4.05234,-6.5zM26.60001,21.37619c1.31168,0 2.39999,-1.06598 2.39999,-2.37619c0,-1.31972 -1.08832,-2.38571 -2.39999,-2.38571h-4.75c-0.85001,0 -1.57999,0.38571 -2.01401,1.11905l-4.05234,6.5h-3.43365c-1.35001,0 -2.35001,1.06599 -2.35001,2.38095c0,1.31496 1,2.38571 2.35001,2.38571h4.75c0.81888,0 1.57999,-0.42766 2.01401,-1.12381l4.05234,-6.5z" fill="#ffffff" fill-opacity="1"></path></g><g><title>Path 2</title><path d="M19.36166,14.7119v0l-4.05237,6.5c-0.69516,1.11509 -2.16043,1.45407 -3.3093,0.7881c-1.07574,-0.72789 -1.41388,-2.19682 -0.71869,-3.3119l4.71869,-7.61905c0.46533,-0.69615 1.22644,-1.06905 2,-1.06905h4.79532c1.31168,0 2.375,1 2.375,2.33095c0,1.31497 -1.06332,2.38095 -2.375,2.38095z" fill="#ee0d37" fill-opacity="1"></path></g><g><title>Path 2 Copy</title><path d="M23.17133,21.3819v0l-4.05234,6.5c-0.43399,0.69615 -1.1951,1.1181 -2.01398,1.1181h-4.75c-1.35501,0 -2.35501,-1.06504 -2.35501,-2.38c0,-1.31496 1,-2.38095 2.35501,-2.38095h3.43365v0l4.05234,-6.5c0.43402,-0.73905 1.159,-1.11905 2.01401,-1.11905h4.75c1.31168,0 2.39499,1.06599 2.39499,2.38c0,1.31592 -1.08331,2.3819 -2.39499,2.3819z" fill="#ee0d37" fill-opacity="1"></path></g><g><title>rexsoft</title><path d="M123.1922,9.61c0.30148,0 0.51428,0.05778 0.6384,0.17333c0.1694,0.11556 0.1694,0.32445 0.1694,0.62667v2.4h3c0.35068,0 0.56348,0.05778 0.68759,0.19c0.12415,0.09889 0.18622,0.30778 0.18622,0.61v1.22667c0,0.30222 -0.06207,0.51555 -0.18622,0.64c-0.12411,0.12444 -0.33691,0.18666 -0.68759,0.18666h-3v5.33667c0,1.28556 0.22516,2.11222 0.64191,2.50333c0.41675,0.39112 1.2103,0.58667 2.35809,0.58667c0.3418,0 0.56348,0.05779 0.68759,0.17333c0.12415,0.11556 0.18622,0.33334 0.18622,0.65334v1.22666c0,0.32 -0.06207,0.53777 -0.18622,0.65334c-0.12411,0.11555 -0.34579,0.20333 -0.68759,0.20333c-2.21182,0.06778 -3.78564,-0.32333 -4.69891,-1.17667c-0.91327,-0.82333 -1.36987,-2.41776 -1.36987,-4.69334v-5.46667h-1.83542c-0.30145,0 -0.50983,-0.06222 -0.62509,-0.18666c-0.11526,-0.12445 -0.17291,-0.33778 -0.17291,-0.64v-1.22667c0,-0.30222 0.05765,-0.51111 0.17291,-0.61c0.11526,-0.13222 0.32364,-0.19 0.62509,-0.19h1.83542v-2.4c0,-0.30222 0.06879,-0.51111 0.18619,-0.62667c0.12411,-0.11555 0.33691,-0.17333 0.6384,-0.17333zM116.54599,6.89c0.31921,0 0.54089,0.11 0.66501,0.18667c0.12415,0.12444 0.18619,0.34666 0.18619,0.66666v1.17334c0,0.32 -0.06204,0.54222 -0.18619,0.66666c-0.12411,0.12445 -0.34579,0.18667 -0.66501,0.18667c-1.11719,0 -1.89746,0.23 -2.34079,0.62667c-0.44333,0.41778 -0.66501,1.13332 -0.66501,2.14666v0.26667h3.05902c0.30145,0 0.50983,0.05778 0.62509,0.19c0.11526,0.09889 0.17288,0.30778 0.17288,0.61v1.22667c0,0.30222 -0.05762,0.51555 -0.17288,0.64c-0.11526,0.12444 -0.32364,0.18666 -0.62509,0.18666h-3.05902v10.13334c0,0.30222 -0.05762,0.51555 -0.17288,0.64c-0.11526,0.12444 -0.36731,0.18666 -0.6517,0.18666h-1.40982c-0.30579,0 -0.54086,-0.06222 -0.66498,-0.18666c-0.12415,-0.12445 -0.18622,-0.33778 -0.18622,-0.64v-10.13334h-1.59598c-0.30148,0 -0.50986,-0.06222 -0.62512,-0.18666c-0.11526,-0.12445 -0.17288,-0.33778 -0.17288,-0.64v-1.22667c0,-0.30222 0.05762,-0.51111 0.17288,-0.61c0.11526,-0.13222 0.32364,-0.19 0.62512,-0.19h1.59598v-0.26667c0,-3.69779 1.95065,-5.54333 5.85202,-5.65333zM103.11679,17.74333c0,-0.81778 -0.26599,-1.44444 -0.798,-1.88c-0.53198,-0.43555 -1.31879,-0.65333 -2.26099,-0.65333c-0.97534,0 -1.72455,0.21778 -2.24771,0.65333c-0.52313,0.43556 -0.81009,1.06223 -0.81009,1.88v3.94667c0,0.8 0.28696,1.42222 0.81009,1.86667c0.52316,0.44333 1.27237,0.66666 2.24771,0.66666c0.9422,0 1.729,-0.22333 2.26099,-0.66666c0.53201,-0.44445 0.798,-1.06667 0.798,-1.86667zM93.93979,17.74333c0,-1.67112 0.53201,-2.97778 1.59601,-3.92c1.06403,-0.94222 2.57132,-1.41333 4.522,-1.41333c1.9422,0 3.48459,0.47111 4.54861,1.41333c1.064,0.94222 1.59598,2.24888 1.59598,3.92v3.94667c0,1.67112 -0.53198,2.97777 -1.59598,3.92c-1.06403,0.94223 -2.60641,1.39 -4.54861,1.39c-1.95068,0 -3.45798,-0.44777 -4.522,-1.39c-1.064,-0.94223 -1.59601,-2.24888 -1.59601,-3.92zM80,16.70333c0,-1.31556 0.44409,-2.35999 1.37509,-3.13333c0.931,-0.77334 2.29202,-1.16 4.0831,-1.16c2.8551,0 4.75253,0.9511 5.69241,2.85333c0.28372,0.53334 0.14185,0.93334 -0.4256,1.2l-1.19699,0.48c-0.30148,0.12445 -0.52802,0.16445 -0.6517,0.12c-0.13303,-0.06333 -0.28818,-0.20889 -0.46552,-0.49333c-0.51428,-0.92445 -1.47186,-1.38667 -2.8728,-1.38667c-1.66693,0 -2.53799,0.48 -2.53799,1.44c0,0.58667 0.26813,0.98222 0.72919,1.18667c0.46106,0.19 1.27081,0.36 2.42062,0.46667c1.85019,0.17778 3.16537,0.56444 4.06979,1.16c0.90439,0.56333 1.3566,1.63999 1.3566,3.13333c0,1.35112 -0.49652,2.43 -1.48959,3.24c-0.9931,0.80889 -2.41174,1.19 -4.25601,1.19c-3.12109,0 -5.09833,-1.05221 -5.93179,-3.20333c-0.2128,-0.55112 -0.03546,-0.92445 0.53198,-1.12l1.19702,-0.37334c0.26599,-0.10666 0.48322,-0.12444 0.6517,-0.05333c0.16846,0.07111 0.31476,0.25778 0.4389,0.56c0.40784,0.97778 1.40979,1.46667 3.0058,1.46667c1.87973,0 2.81958,-0.52444 2.81958,-1.57334c0,-0.58667 -0.23495,-0.98666 -0.7049,-1.2c-0.46994,-0.21333 -1.29898,-0.38222 -2.48709,-0.50333c-0.62067,-0.07444 -1.14825,-0.15 -1.5827,-0.23c-0.43448,-0.07999 -0.90884,-0.21777 -1.4231,-0.41333c-0.51428,-0.19556 -0.931,-0.43555 -1.25021,-0.71999c-0.31921,-0.28445 -0.58521,-0.63667 -0.798,-1.17334c-0.2128,-0.46333 -0.29779,-1.08444 -0.29779,-1.76zM77.29581,12.81c0.798,0 0.98419,0.32 0.55859,0.96l-3.98999,5.73333l4.25598,6.16c0.46109,0.64001 0.26602,0.96 -0.58521,0.96h-1.27679c-0.44333,0 -0.75366,-0.04 -0.931,-0.12c-0.17734,-0.07999 -0.32739,-0.2711 -0.55859,-0.57333l-2.8728,-4.18667l-2.73981,4.18667c-0.15619,0.30222 -0.38126,0.49333 -0.55859,0.57333c-0.17734,0.08 -0.48764,0.12 -0.931,0.12h-1.25018c-0.47882,0 -0.76254,-0.08 -0.85123,-0.24c-0.08865,-0.16 -0.00885,-0.38333 0.23941,-0.72l4.25601,-6.13333l-4.06061,-5.76c-0.47028,-0.64 -0.25748,-0.96 0.62921,-0.96h1.19699c0.46106,0 0.7847,0.04444 0.97089,0.13333c0.20291,0.05667 0.36798,0.27556 0.54532,0.56l2.65759,3.76l2.556,-3.76c0.19507,-0.30222 0.37241,-0.50333 0.53201,-0.57333c0.15958,-0.08 0.46106,-0.12 0.91199,-0.12zM61.07361,17.74333c0,-0.87112 -0.25714,-1.54222 -0.77142,-2.01333c-0.51425,-0.47112 -1.30219,-0.73 -2.30219,-0.73c-1,0 -1.741,0.25888 -2.27301,0.73c-0.53198,0.47111 -0.798,1.1422 -0.798,2.01333v0.58667h6.14462zM51.84341,18.17c0,-1.86668 0.52756,-3.29333 1.58267,-4.28c1.05515,-0.98667 2.57391,-1.48 4.57391,-1.48c2,0 3.5657,0.51555 4.60309,1.59c1.03741,1 1.55612,2.31221 1.55612,3.93v1.62667c0,0.76444 -0.39902,1.14666 -1.15921,1.14666h-8.07101v0.98667c0,0.87112 0.26157,1.53333 0.78473,1.98666c0.52313,0.45333 1.28629,0.68 2.28629,0.68c1.45102,0 2.49725,-0.47111 3.10019,-1.41334c0.2128,-0.30222 0.41232,-0.47555 0.59851,-0.52c0.18619,-0.04444 0.4389,0.02222 0.75809,0.2l0.931,0.50667c0.61221,0.28445 0.70935,0.72889 0.31921,1.33334c-1.04626,1.70668 -2.96146,2.53667 -5.707,2.53667c-2.1134,0 -3.65176,-0.49222 -4.65369,-1.52333c-1.00195,-1.03112 -1.5029,-2.41777 -1.5029,-4.16zM48.73499,12.41h0.85123c0.30145,0 0.51425,0.05778 0.6384,0.17333c0.12411,0.11556 0.18619,0.33334 0.18619,0.65334v1.17333c0,0.30222 -0.06207,0.51555 -0.18619,0.59c-0.12415,0.17445 -0.33694,0.23667 -0.6384,0.23667h-0.95761c-0.99307,0 -1.83539,0.10666 -2.52701,0.32c-0.17734,0.03555 -0.26599,0.14222 -0.26599,0.32v9.92c0,0.30222 -0.05762,0.51555 -0.17291,0.64c-0.11526,0.12444 -0.32361,0.18666 -0.66269,0.18666h-1.42542c-0.30145,0 -0.51425,-0.06222 -0.6384,-0.18666c-0.12411,-0.12445 -0.18619,-0.33778 -0.18619,-0.64v-11.06667c0,-0.42667 0.0665,-0.73 0.19949,-0.94667c0.133,-0.20444 0.41229,-0.39555 0.83792,-0.57333c1.29453,-0.48 2.9437,-0.74667 4.94757,-0.8z" fill="#ffffff" fill-opacity="1"></path></g></g></g></svg>