<?xml version="1.0" encoding="utf-8"?>
<!-- Generator: Adobe Illustrator 26.2.1, SVG Export Plug-In . SVG Version: 6.00 Build 0)  -->
<svg version="1.1" id="Layer_1" xmlns="http://www.w3.org/2000/svg" xmlns:xlink="http://www.w3.org/1999/xlink" x="0px" y="0px"
	 viewBox="0 0 128 38" style="enable-background:new 0 0 128 38;" xml:space="preserve">
<style type="text/css">
	.st0{fill:#EE0D37;}
	.st1{fill:#FFFFFF;}
	.st2{fill-rule:evenodd;clip-rule:evenodd;fill:#FFFFFF;}
</style>
<path id="Combined-Shape" class="st0" d="M32.7,5.2c5.7,5.7,5.7,22,0,27.7s-22.8,5.7-28.5,0s-5.7-22,0-27.7S27-0.5,32.7,5.2z
	 M26.6,16.7h-4.7c-0.8,0-1.6,0.4-2,1.1l0,0l-4,6.5h-3.4c-1.3,0-2.4,1.1-2.4,2.4c0,1.3,1.1,2.4,2.4,2.4l0,0h4.7c0.8,0,1.6-0.4,2-1.1
	l0,0l4-6.5h3.4c1.3,0,2.4-1.1,2.4-2.4S27.9,16.7,26.6,16.7L26.6,16.7z M22.8,10H18c-0.8,0-1.6,0.4-2,1.1l0,0l-4.7,7.6
	c-0.7,1.1-0.4,2.6,0.8,3.3s2.6,0.4,3.3-0.8l0,0l4-6.5h3.4c1.3,0,2.4-1.1,2.4-2.4S24.1,10,22.8,10L22.8,10z"/>
<path class="st1" d="M19.3,14.8l-4,6.5c-0.7,1.1-2.2,1.5-3.3,0.8s-1.4-2.2-0.8-3.3l4.7-7.6c0.4-0.7,1.2-1.1,2-1.1h4.7
	c1.3,0,2.4,1.1,2.4,2.4s-1.1,2.4-2.4,2.4H19.3z M23.1,21.5l-4,6.5c-0.4,0.7-1.2,1.1-2,1.1h-4.7c-1.3,0-2.4-1.1-2.4-2.4
	c0-1.3,1.1-2.4,2.4-2.4h3.4l4-6.5c0.4-0.7,1.2-1.1,2-1.1h4.7c1.3,0,2.4,1.1,2.4,2.4s-1.1,2.4-2.4,2.4H23.1z"/>
<path id="rexsoft" class="st2" d="M48.7,12.5h0.9c0.3,0,0.5,0.1,0.6,0.2c0.1,0.1,0.2,0.3,0.2,0.7v1.2c0,0.3-0.1,0.5-0.2,0.6
	c-0.1,0.1-0.3,0.2-0.6,0.2h-1c-1,0-1.8,0.1-2.5,0.3c-0.2,0-0.3,0.1-0.3,0.3v10c0,0.3-0.1,0.5-0.2,0.6c-0.1,0.1-0.3,0.2-0.6,0.2h-1.5
	c-0.3,0-0.5-0.1-0.6-0.2s-0.2-0.3-0.2-0.6V14.8c0-0.4,0.1-0.7,0.2-1c0.1-0.2,0.4-0.4,0.8-0.6C45,12.8,46.7,12.5,48.7,12.5z
	 M51.8,18.2c0-1.9,0.5-3.3,1.6-4.3c1.1-1,2.6-1.5,4.6-1.5c2,0,3.5,0.5,4.6,1.6s1.6,2.4,1.6,4v1.6c0,0.8-0.4,1.2-1.2,1.2h-8v1
	c0,0.9,0.3,1.5,0.8,2c0.5,0.5,1.3,0.7,2.2,0.7c1.5,0,2.5-0.5,3.1-1.4c0.2-0.3,0.4-0.5,0.6-0.5c0.2,0,0.4,0,0.8,0.2l0.9,0.5
	c0.6,0.3,0.7,0.7,0.3,1.3c-1,1.7-3,2.6-5.7,2.6c-2.1,0-3.6-0.5-4.6-1.6s-1.5-2.4-1.5-4.2V18.2z M61,17.8c0-0.9-0.3-1.5-0.8-2
	c-0.5-0.5-1.3-0.7-2.3-0.7c-1,0-1.8,0.2-2.3,0.7c-0.5,0.5-0.8,1.1-0.8,2v0.6H61V17.8z M77.2,12.9c0.8,0,1,0.3,0.6,1l-4,5.8l4.3,6.2
	c0.5,0.6,0.3,1-0.6,1h-1.3c-0.4,0-0.8,0-0.9-0.1c-0.2-0.1-0.4-0.3-0.6-0.6l-2.9-4.2L69.1,26c-0.2,0.3-0.4,0.5-0.6,0.6
	c-0.2,0.1-0.5,0.1-0.9,0.1h-1.2c-0.5,0-0.8-0.1-0.9-0.2c-0.1-0.2,0-0.4,0.2-0.7l4.3-6.2l-4.1-5.8c-0.5-0.6-0.2-1,0.6-1h1.2
	c0.5,0,0.8,0,1,0.1c0.2,0.1,0.4,0.3,0.5,0.6l2.6,3.8l2.6-3.8c0.2-0.3,0.4-0.5,0.5-0.6c0.2-0.1,0.5-0.1,0.9-0.1H77.2z M79.9,16.8
	c0-1.3,0.5-2.4,1.4-3.1c0.9-0.8,2.3-1.2,4.1-1.2c2.9,0,4.7,1,5.7,2.9c0.3,0.5,0.1,0.9-0.4,1.2L89.4,17c-0.3,0.1-0.5,0.2-0.7,0.1
	c-0.1,0-0.3-0.2-0.5-0.5c-0.5-0.9-1.5-1.4-2.9-1.4c-1.7,0-2.5,0.5-2.5,1.4c0,0.6,0.2,1,0.7,1.2c0.5,0.2,1.3,0.4,2.4,0.5
	c1.8,0.2,3.2,0.6,4.1,1.2c0.9,0.6,1.4,1.6,1.4,3.1c0,1.4-0.5,2.4-1.5,3.3c-1,0.8-2.4,1.2-4.3,1.2c-3.1,0-5.1-1.1-5.9-3.2
	c-0.2-0.6,0-0.9,0.5-1.1l1.2-0.4c0.3-0.1,0.5-0.1,0.7-0.1c0.2,0.1,0.3,0.3,0.4,0.6c0.4,1,1.4,1.5,3,1.5c1.9,0,2.8-0.5,2.8-1.6
	c0-0.6-0.2-1-0.7-1.2c-0.5-0.2-1.3-0.4-2.5-0.5c-0.6-0.1-1.1-0.1-1.6-0.2c-0.4-0.1-0.9-0.2-1.4-0.4c-0.5-0.2-0.9-0.4-1.2-0.7
	c-0.3-0.3-0.6-0.7-0.8-1.2C80,18,79.9,17.4,79.9,16.8z M93.8,17.8c0-1.7,0.5-3,1.6-3.9s2.6-1.4,4.5-1.4c2,0,3.5,0.5,4.5,1.4
	c1.1,0.9,1.6,2.3,1.6,3.9v4c0,1.7-0.5,3-1.6,3.9c-1.1,0.9-2.6,1.4-4.5,1.4c-1.9,0-3.5-0.5-4.5-1.4c-1.1-0.9-1.6-2.3-1.6-3.9V17.8z
	 M103,17.8c0-0.8-0.3-1.5-0.8-1.9c-0.5-0.4-1.3-0.7-2.3-0.7s-1.7,0.2-2.2,0.7c-0.5,0.4-0.8,1.1-0.8,1.9v4c0,0.8,0.3,1.4,0.8,1.9
	s1.3,0.7,2.2,0.7s1.7-0.2,2.3-0.7c0.5-0.4,0.8-1.1,0.8-1.9V17.8z M116.4,6.9c0.3,0,0.5,0.1,0.7,0.2c0.1,0.1,0.2,0.3,0.2,0.7V9
	c0,0.3-0.1,0.5-0.2,0.7c-0.1,0.1-0.3,0.2-0.7,0.2c-1.1,0-1.9,0.2-2.3,0.6c-0.4,0.4-0.7,1.1-0.7,2.2v0.3h3.1c0.3,0,0.5,0.1,0.6,0.2
	c0.1,0.1,0.2,0.3,0.2,0.6v1.2c0,0.3-0.1,0.5-0.2,0.6c-0.1,0.1-0.3,0.2-0.6,0.2h-3.1v10.2c0,0.3-0.1,0.5-0.2,0.6
	c-0.1,0.1-0.3,0.2-0.7,0.2h-1.4c-0.3,0-0.5-0.1-0.7-0.2s-0.2-0.3-0.2-0.6V15.7h-1.6c-0.3,0-0.5-0.1-0.6-0.2
	c-0.1-0.1-0.2-0.3-0.2-0.6v-1.2c0-0.3,0.1-0.5,0.2-0.6c0.1-0.1,0.3-0.2,0.6-0.2h1.6v-0.3c0-3.7,1.9-5.6,5.8-5.7H116.4z M123.1,9.6
	c0.3,0,0.5,0.1,0.6,0.2c0.1,0.1,0.2,0.3,0.2,0.6v2.4h3c0.3,0,0.5,0.1,0.6,0.2c0.1,0.1,0.2,0.3,0.2,0.6v1.2c0,0.3-0.1,0.5-0.2,0.6
	c-0.1,0.1-0.3,0.2-0.6,0.2h-3v5.4c0,1.3,0.2,2.1,0.6,2.5c0.4,0.4,1.2,0.6,2.4,0.6c0.3,0,0.5,0.1,0.7,0.2c0.1,0.1,0.2,0.3,0.2,0.7
	v1.2c0,0.3-0.1,0.5-0.2,0.7c-0.1,0.1-0.3,0.2-0.7,0.2c-2.2,0.1-3.8-0.3-4.7-1.2c-0.9-0.9-1.4-2.4-1.4-4.7v-5.5H119
	c-0.3,0-0.5-0.1-0.6-0.2c-0.1-0.1-0.2-0.3-0.2-0.6v-1.2c0-0.3,0.1-0.5,0.2-0.6c0.1-0.1,0.3-0.2,0.6-0.2h1.8v-2.4
	c0-0.3,0.1-0.5,0.2-0.6c0.1-0.1,0.3-0.2,0.6-0.2H123.1z"/>
</svg>
