<?xml version="1.0" encoding="utf-8"?>
<!-- Generator: Adobe Illustrator 23.0.1, SVG Export Plug-In . SVG Version: 6.00 Build 0)  -->
<svg version="1.1" id="Layer_1" xmlns="http://www.w3.org/2000/svg" xmlns:xlink="http://www.w3.org/1999/xlink" x="0px" y="0px"
	 viewBox="0 0 140 42" style="enable-background:new 0 0 140 42;" xml:space="preserve">
<style type="text/css">
	.st0{fill:#F10030;}
	.st1{fill-rule:evenodd;clip-rule:evenodd;fill:#242633;}
</style>
<g>
	<path id="Combined-Shape" class="st0" d="M4.5,6.5c6-6,24-6,30,0s6,23,0,29s-24,6-30,0S-1.5,12.5,4.5,6.5z M20.4,16.5H24
		c1.4,0,2.5-1.1,2.5-2.5s-1.1-2.5-2.5-2.5h-5c-0.9,0-1.7,0.4-2.1,1.2l-5,8c-0.7,1.2-0.4,2.7,0.8,3.4c1.2,0.7,2.7,0.4,3.4-0.8
		L20.4,16.5z M24.4,23.5H28c1.4,0,2.5-1.1,2.5-2.5s-1.1-2.5-2.5-2.5h-5c-0.9,0-1.7,0.4-2.1,1.2l-4.3,6.8H13c-1.4,0-2.5,1.1-2.5,2.5
		s1.1,2.5,2.5,2.5h5c0.9,0,1.7-0.4,2.1-1.2L24.4,23.5z"/>
	<path id="rexsoft" class="st1" d="M51.3,14.1h0.9c0.3,0,0.5,0.1,0.7,0.2c0.1,0.1,0.2,0.3,0.2,0.7v1.2c0,0.3-0.1,0.5-0.2,0.7
		C52.7,17,52.5,17,52.2,17h-1c-1,0-1.9,0.1-2.7,0.3c-0.2,0-0.3,0.1-0.3,0.3v10.4c0,0.3-0.1,0.5-0.2,0.7c-0.1,0.1-0.3,0.2-0.7,0.2
		h-1.5c-0.3,0-0.5-0.1-0.7-0.2c-0.1-0.1-0.2-0.4-0.2-0.7V16.5c0-0.4,0.1-0.8,0.2-1c0.1-0.2,0.4-0.4,0.9-0.6
		C47.5,14.4,49.2,14.1,51.3,14.1z M54.6,20.1c0-2,0.6-3.5,1.7-4.5s2.7-1.6,4.8-1.6c2.1,0,3.7,0.5,4.8,1.6c1.1,1.1,1.6,2.5,1.6,4.2
		v1.7c0,0.8-0.4,1.2-1.3,1.2h-8.5v1c0,0.9,0.3,1.6,0.8,2.1s1.3,0.7,2.4,0.7c1.6,0,2.7-0.5,3.3-1.5c0.2-0.3,0.4-0.5,0.6-0.5
		s0.5,0,0.8,0.2l1,0.5c0.6,0.3,0.7,0.8,0.3,1.4c-1.1,1.8-3.1,2.7-6,2.7c-2.2,0-3.8-0.5-4.9-1.6s-1.6-2.5-1.6-4.4V20.1z M64.3,19.7
		c0-0.9-0.3-1.6-0.8-2.1c-0.5-0.5-1.3-0.7-2.4-0.7c-1,0-1.8,0.2-2.4,0.7s-0.8,1.2-0.8,2.1v0.6h6.5V19.7z M81.4,14.5
		c0.8,0,1,0.3,0.6,1l-4.2,6l4.5,6.5c0.5,0.7,0.3,1-0.6,1h-1.3c-0.5,0-0.8,0-1-0.1c-0.2-0.1-0.4-0.3-0.6-0.6l-3-4.4l-2.9,4.4
		c-0.2,0.3-0.4,0.5-0.6,0.6C72,29,71.7,29,71.2,29h-1.3c-0.5,0-0.8-0.1-0.9-0.3c-0.1-0.2,0-0.4,0.3-0.8l4.5-6.4l-4.3-6
		c-0.5-0.7-0.3-1,0.7-1h1.3c0.5,0,0.8,0,1,0.1c0.2,0.1,0.4,0.3,0.6,0.6l2.8,3.9l2.7-3.9c0.2-0.3,0.4-0.5,0.6-0.6s0.5-0.1,1-0.1H81.4
		z M84.2,18.6c0-1.4,0.5-2.5,1.5-3.3c1-0.8,2.4-1.2,4.3-1.2c3,0,5,1,6,3c0.3,0.6,0.1,1-0.4,1.3l-1.3,0.5C93.9,19,93.7,19,93.6,19
		s-0.3-0.2-0.5-0.5c-0.5-1-1.5-1.5-3-1.5c-1.8,0-2.6,0.5-2.6,1.5c0,0.6,0.2,1,0.7,1.2s1.3,0.4,2.5,0.5c1.9,0.2,3.3,0.6,4.3,1.2
		c1,0.6,1.4,1.7,1.4,3.3c0,1.4-0.5,2.6-1.6,3.4c-1,0.8-2.5,1.3-4.5,1.3c-3.3,0-5.4-1.1-6.2-3.4c-0.2-0.6,0-1,0.6-1.2l1.3-0.4
		c0.3-0.1,0.5-0.1,0.7-0.1c0.2,0.1,0.3,0.3,0.5,0.6c0.4,1,1.5,1.5,3.2,1.5c2,0,3-0.6,3-1.7c0-0.6-0.2-1-0.7-1.3
		c-0.5-0.2-1.4-0.4-2.6-0.5c-0.7-0.1-1.2-0.2-1.7-0.2s-1-0.2-1.5-0.4s-1-0.5-1.3-0.8c-0.3-0.3-0.6-0.7-0.8-1.2
		C84.3,19.9,84.2,19.3,84.2,18.6z M98.9,19.7c0-1.8,0.6-3.1,1.7-4.1c1.1-1,2.7-1.5,4.8-1.5c2.1,0,3.7,0.5,4.8,1.5
		c1.1,1,1.7,2.4,1.7,4.1v4.1c0,1.8-0.6,3.1-1.7,4.1c-1.1,1-2.7,1.5-4.8,1.5c-2.1,0-3.6-0.5-4.8-1.5c-1.1-1-1.7-2.4-1.7-4.1V19.7z
		 M108.5,19.7c0-0.9-0.3-1.5-0.8-2c-0.6-0.5-1.4-0.7-2.4-0.7s-1.8,0.2-2.4,0.7c-0.6,0.5-0.8,1.1-0.8,2v4.1c0,0.8,0.3,1.5,0.8,2
		s1.3,0.7,2.4,0.7s1.8-0.2,2.4-0.7c0.6-0.5,0.8-1.1,0.8-2V19.7z M122.7,8.3c0.3,0,0.6,0.1,0.7,0.2c0.1,0.1,0.2,0.4,0.2,0.7v1.2
		c0,0.3-0.1,0.6-0.2,0.7c-0.1,0.1-0.4,0.2-0.7,0.2c-1.2,0-2,0.2-2.5,0.7c-0.5,0.4-0.7,1.2-0.7,2.3v0.3h3.2c0.3,0,0.5,0.1,0.7,0.2
		c0.1,0.1,0.2,0.3,0.2,0.7v1.3c0,0.3-0.1,0.5-0.2,0.7c-0.1,0.1-0.3,0.2-0.7,0.2h-3.2v10.6c0,0.3-0.1,0.5-0.2,0.7
		c-0.1,0.1-0.3,0.2-0.7,0.2h-1.5c-0.3,0-0.6-0.1-0.7-0.2c-0.1-0.1-0.2-0.4-0.2-0.7V17.5h-1.7c-0.3,0-0.5-0.1-0.7-0.2
		c-0.1-0.1-0.2-0.4-0.2-0.7v-1.3c0-0.3,0.1-0.5,0.2-0.7c0.1-0.1,0.3-0.2,0.7-0.2h1.7v-0.3c0-3.9,2.1-5.9,6.2-5.9H122.7z M129.7,11.1
		c0.3,0,0.5,0.1,0.7,0.2c0.1,0.1,0.2,0.3,0.2,0.7v2.5h3.2c0.3,0,0.5,0.1,0.7,0.2c0.1,0.1,0.2,0.3,0.2,0.7v1.3c0,0.3-0.1,0.5-0.2,0.7
		c-0.1,0.1-0.4,0.2-0.7,0.2h-3.2v5.6c0,1.3,0.2,2.2,0.7,2.6c0.4,0.4,1.3,0.6,2.5,0.6c0.3,0,0.6,0.1,0.7,0.2c0.1,0.1,0.2,0.3,0.2,0.7
		v1.3c0,0.3-0.1,0.6-0.2,0.7c-0.1,0.1-0.4,0.2-0.7,0.2c-2.4,0.1-4-0.3-5-1.2c-1-0.9-1.4-2.5-1.4-4.9v-5.7h-1.9
		c-0.3,0-0.5-0.1-0.7-0.2c-0.1-0.1-0.2-0.4-0.2-0.7v-1.3c0-0.3,0.1-0.5,0.2-0.7c0.1-0.1,0.3-0.2,0.7-0.2h1.9V12
		c0-0.3,0.1-0.5,0.2-0.7c0.1-0.1,0.4-0.2,0.7-0.2H129.7z"/>
</g>
</svg>
