<?xml version="1.0" encoding="utf-8"?>
<!-- Generator: Adobe Illustrator 23.0.1, SVG Export Plug-In . SVG Version: 6.00 Build 0)  -->
<svg version="1.1" id="Layer_1" xmlns="http://www.w3.org/2000/svg" xmlns:xlink="http://www.w3.org/1999/xlink" x="0px" y="0px"
	 viewBox="0 0 114 40" style="enable-background:new 0 0 114 40;" xml:space="preserve">
<style type="text/css">
	.st0{fill-rule:evenodd;clip-rule:evenodd;fill:#CC0000;}
</style>
<g id="Ruby_On_Rails_Logo" transform="translate(78.000000, 15.000000)">
	<path id="Shape" class="st0" d="M20.5,19.7v5.2h9.3c1.9,0,5.2-1.4,5.3-5.3v-2c0-3.3-2.7-5.3-5.3-5.3h-4.7V9.9h9.2V4.7h-8.9
		c-2.3,0-5.3,1.9-5.3,5.4v1.8c0,3.5,3,5.3,5.3,5.3c6.4,0-1.5,0,4.4,0v2.5 M-29.6,18.5c0,0,5-0.4,5-6.9s-6.1-7.1-6.1-7.1h-10.9v20.4
		h5.5V20l4.7,4.9h8.1L-29.6,18.5z M-31.7,14.3h-4.4V9.6h4.4c0,0,1.2,0.5,1.2,2.3C-30.5,13.8-31.7,14.3-31.7,14.3z M-11.1,4.7h-5.6
		c-4,0-5.3,3.6-5.3,5.3v14.9h5.6v-3.6h5.2v3.6h5.4V10C-5.7,5.6-9.7,4.7-11.1,4.7z M-11.1,15.5h-5.3v-4.9c0,0,0-1.1,1.7-1.1h1.9
		c1.5,0,1.6,1.1,1.6,1.1L-11.1,15.5L-11.1,15.5z"/>
	<rect id="Rectangle" x="-3.2" y="4.7" class="st0" width="5.8" height="20.2"/>
	<polygon id="Path" class="st0" points="10.7,19.7 10.7,4.7 5,4.7 5,19.7 5,24.9 10.7,24.9 18.5,24.9 18.5,19.7 	"/>
	<path class="st0" d="M-76,24.9h22.6c0,0-4.3-19.7,10-27.7c3.1-1.5,13-7.2,29.3,4.8c0.5-0.4,1-0.8,1-0.8s-14.9-14.8-31.4-13.2
		c-8.3,0.7-18.5,8.3-24.5,18.3S-76,24.9-76,24.9z"/>
	<path class="st0" d="M-76,24.9h22.6c0,0-4.3-19.7,10-27.7c3.1-1.5,13-7.2,29.3,4.8c0.5-0.4,1-0.8,1-0.8s-14.9-14.8-31.4-13.2
		c-8.3,0.7-18.5,8.3-24.5,18.3S-76,24.9-76,24.9z"/>
	<path class="st0" d="M-76,24.9h22.6c0,0-4.3-19.7,10-27.7c3.1-1.5,13-7.2,29.3,4.8c0.5-0.4,1-0.8,1-0.8s-14.9-14.8-31.4-13.2
		c-8.3,0.7-18.6,8.3-24.6,18.3S-76,24.9-76,24.9z M-29-10.3l0.1-1.9c-0.3-0.1-1-0.5-2.8-1l-0.1,1.9C-30.8-11-29.9-10.7-29-10.3z"/>
	<path class="st0" d="M-31.7-4.2l-0.1,1.8c0.9,0,1.9,0.1,2.8,0.3l0.1-1.8C-29.8-4.1-30.8-4.2-31.7-4.2z M-42.3-13.1h0.3l-0.6-1.7
		c-0.9,0-1.8,0.1-2.7,0.2l0.5,1.7C-43.9-13.1-43.1-13.1-42.3-13.1z M-40.9-2.6l0.7,2c0.8-0.4,1.7-0.7,2.5-1l-0.6-1.9
		C-39.3-3.3-40.2-2.9-40.9-2.6z M-53.9-10.1l-1.3-2c-0.7,0.4-1.5,0.8-2.2,1.2l1.3,2C-55.3-9.3-54.6-9.8-53.9-10.1z M-48,2.7l1.4,2.1
		c0.5-0.7,1.1-1.4,1.7-2l-1.3-1.9C-46.9,1.4-47.5,2.1-48,2.7z M-52.1,11.9l2.3,1.8c0.1-1.1,0.3-2.2,0.6-3.3l-2.1-1.6
		C-51.7,9.8-51.9,10.9-52.1,11.9z M-64.7-1.7l-2-1.8c-0.7,0.7-1.5,1.4-2.1,2.1l2.2,1.9C-66-0.2-65.3-0.9-64.7-1.7z M-73.3,11.1
		l-3.3-1.2c-0.5,1.2-1.1,2.7-1.4,3.4l3.3,1.2C-74.3,13.6-73.7,12.2-73.3,11.1z M-52.6,19.2c0.1,1.5,0.2,2.7,0.3,3.6l3.4,1.2
		c-0.3-1.1-0.5-2.4-0.7-3.7L-52.6,19.2z"/>
</g>
</svg>
