<?xml version="1.0" encoding="utf-8"?>
<!-- Generator: Adobe Illustrator 23.0.1, SVG Export Plug-In . SVG Version: 6.00 Build 0)  -->
<svg version="1.1" id="Layer_1" xmlns="http://www.w3.org/2000/svg" xmlns:xlink="http://www.w3.org/1999/xlink" x="0px" y="0px"
	 viewBox="0 0 91 50" style="enable-background:new 0 0 91 50;" xml:space="preserve">
<style type="text/css">
	.st0{fill:#EE0D37;}
</style>
<g id="Group" transform="translate(90.000000, 10.000000)">
	<path id="Shape" class="st0" d="M-68.1-10L-89.9,2.5v25L-68.1,40l21.8-12.5v-25L-68.1-10z M-65.3,16.7c0,1-0.1,1.9-0.4,2.8
		c-0.3,0.8-0.7,1.6-1.3,2.2c-0.6,0.6-1.3,1.1-2.2,1.4c-0.9,0.3-2,0.5-3.2,0.5s-2.3-0.2-3.2-0.5c-0.9-0.3-1.6-0.8-2.2-1.4
		c-0.6-0.6-1-1.3-1.3-2.2c-0.3-0.8-0.4-1.8-0.4-2.8V6h3.5V16c0,0.8,0.1,1.4,0.3,2c0.2,0.5,0.4,1,0.7,1.3c0.3,0.3,0.7,0.6,1.1,0.7
		s0.9,0.2,1.4,0.2c1.1,0,1.9-0.3,2.6-1c0.7-0.6,1-1.8,1-3.3V6h3.9L-65.3,16.7L-65.3,16.7z M-57.8,23.2h-3.5V6h3.5V23.2z"/>
	<path class="st0" d="M-21.7-10L-43.5,2.5v25L-21.7,40L0.1,27.5v-25L-21.7-10z M-22.4,16.7c0,1-0.1,1.9-0.4,2.8
		c-0.3,0.9-0.7,1.6-1.3,2.2c-0.6,0.6-1.3,1.1-2.2,1.4c-0.9,0.3-2,0.5-3.2,0.5c-1.2,0-2.3-0.2-3.2-0.5c-0.9-0.3-1.6-0.8-2.2-1.4
		c-0.6-0.6-1-1.3-1.3-2.2c-0.3-0.8-0.4-1.8-0.4-2.8V6h3.5V16c0,0.8,0.1,1.4,0.3,2c0.2,0.5,0.4,1,0.7,1.3s0.7,0.6,1.1,0.7
		s0.9,0.2,1.4,0.2c1.1,0,1.9-0.3,2.6-1c0.7-0.6,1-1.8,1-3.3V6h3.8L-22.4,16.7L-22.4,16.7z M-10.3,23.2l-3.7-5.9l-3.7,5.9h-3.9l5.7-9
		L-21.2,6h3.9l3.2,5.1l3.3-5.1h3.9l-5.1,8.2l5.7,9H-10.3z"/>
</g>
</svg>
