<svg xmlns="http://www.w3.org/2000/svg" width="32" height="32" viewBox="0 0 32 32"><g><g><g><path fill="#ee0d37" d="M19.943 28.416c0 .915-.745 1.66-1.66 1.66H3.531c-.915 0-1.66-.745-1.66-1.66V3.532c0-.916.745-1.66 1.66-1.66h2.403v.717c0 1.176.956 2.133 2.131 2.133h5.684a2.135 2.135 0 0 0 2.132-2.133V1.87h2.402c.915 0 1.66.745 1.66 1.661zM7.805 1.87h6.204v.717a.26.26 0 0 1-.26.261H8.066a.26.26 0 0 1-.26-.26zM18.283 0H3.531A3.535 3.535 0 0 0 0 3.531v24.875a3.535 3.535 0 0 0 3.531 3.532h14.752a3.535 3.535 0 0 0 3.531-3.532V3.531A3.535 3.535 0 0 0 18.284 0z"/></g><g><path fill="#ee0d37" d="M13.402 26.98H8.416a.936.936 0 0 0 0 1.871h4.986a.936.936 0 0 0 0-1.871z"/></g><g><path fill="#ee0d37" d="M30.047 28.001c0 .56-.219 1.085-.616 1.477a2.06 2.06 0 0 1-1.48.598c-1.126-.013-2.043-.963-2.042-2.117l.001-6.266c0-.039.031-.07.069-.07l4.002.001c.007 0 .028 0 .048.02s.02.042.02.049zm-2.393-26.13h.671l1.653 4.958-1.239 1.613c-.133.174-.206.39-.207.608l-.02 10.7h-1.094l.019-10.698c0-.218-.074-.435-.207-.609l-1.237-1.611zm2.743 7.476l1.337-1.746c.202-.264.26-.61.155-.925L29.898.686A1 1 0 0 0 28.946 0h-1.922c-.432 0-.814.276-.951.685l-2.001 5.991c-.106.316-.048.662.155.927l1.334 1.743-.018 10.455a1.946 1.946 0 0 0-1.504 1.891l-.002 6.259c0 2.174 1.746 3.962 3.893 3.986h.047a3.913 3.913 0 0 0 2.77-1.137 3.92 3.92 0 0 0 1.171-2.806l.002-6.3c0-.519-.201-1.006-.568-1.373a1.924 1.924 0 0 0-.976-.528z"/></g><g><path fill="#ee0d37" d="M10.912 21.705c-3.154 0-5.72-2.571-5.72-5.732 0-3.16 2.566-5.732 5.72-5.732 3.155 0 5.72 2.572 5.72 5.732s-2.565 5.732-5.72 5.732zm0-13.335c-4.186 0-7.592 3.409-7.592 7.598 0 4.19 3.406 7.598 7.592 7.598 4.187 0 7.592-3.408 7.592-7.598 0-4.19-3.405-7.598-7.592-7.598z"/></g><g><path fill="#ee0d37" d="M12.826 13.394L9.344 16.88l-.987-.987a.936.936 0 1 0-1.323 1.323l1.209 1.21c.294.294.685.456 1.102.456.416 0 .807-.163 1.101-.457l3.704-3.707a.936.936 0 1 0-1.324-1.323z"/></g></g></g></svg>