<svg xmlns="http://www.w3.org/2000/svg" width="32" height="30" viewBox="0 0 32 30"><g><g><g><path fill="#ee0d37" d="M1.875 21.95v-2.508h28.25v2.509zm16 5.624h-3.75v-3.759h3.75zm3.103-21.616a.93.93 0 0 1 .663-.275.935.935 0 0 1 .938.94.935.935 0 0 1-.276.665l-4.892 4.906a4.73 4.73 0 0 0-1.326-1.33zm-11.03 11.61c.3-.75.615-1.721.734-2.7.17-1.408 1.125-2.924 2.815-2.924a2.813 2.813 0 0 1 2.808 2.812c0 1.55-1.26 2.811-2.808 2.811zM30.125 1.933v15.633H17.25a4.66 4.66 0 0 0 .892-3.473l5.487-5.486a2.793 2.793 0 0 0 .824-1.988c0-.75-.293-1.457-.824-1.988a2.794 2.794 0 0 0-1.988-.823c-.752 0-1.458.292-1.99.823l-5.486 5.486a4.72 4.72 0 0 0-.663-.048 4.432 4.432 0 0 0-3.237 1.395c-.781.821-1.294 1.95-1.443 3.178-.137 1.124-.62 2.29-.918 2.924H1.875V1.934zM31.063.06H.938A.938.938 0 0 0 0 .998v21.888c0 .518.42.937.938.937H12.25v3.75h-.938a.938.938 0 0 0 0 1.875h9.376a.938.938 0 0 0 0-1.875h-.938v-3.75h11.313c.517 0 .937-.42.937-.937V.998a.938.938 0 0 0-.938-.938z"/></g></g></g></svg>