<svg xmlns="http://www.w3.org/2000/svg" width="32" height="32" viewBox="0 0 32 32"><g><g><g><path fill="#ee0d37" d="M8.712 7.386L6.06 4.735A.937.937 0 1 0 4.735 6.06l2.651 2.652a.937.937 0 1 0 1.326-1.326z"/></g><g><path fill="#ee0d37" d="M4.75 15.06H.937a.938.938 0 0 0 0 1.875H4.75a.938.938 0 0 0 0-1.875z"/></g><g><path fill="#ee0d37" d="M31.06 15.06h-3.813a.938.938 0 0 0 0 1.875h3.813a.938.938 0 0 0 0-1.875z"/></g><g><path fill="#ee0d37" d="M27.272 4.735a.937.937 0 0 0-1.326 0l-2.651 2.651a.937.937 0 1 0 1.325 1.326l2.652-2.652a.937.937 0 0 0 0-1.325z"/></g><g><path fill="#ee0d37" d="M15.998 0a.938.938 0 0 0-.938.938V4.75a.938.938 0 0 0 1.875 0V.937A.938.938 0 0 0 15.998 0z"/></g><g><path fill="#ee0d37" d="M20.64 20.64c-1.164 1.168-1.832 2.82-1.832 4.535v.205c0 .517-.42.937-.937.937h-.938v-5.743a3.757 3.757 0 0 0 2.812-3.632.937.937 0 1 0-1.874 0 1.877 1.877 0 0 1-1.875 1.875 1.877 1.877 0 0 1-1.875-1.875.937.937 0 1 0-1.874 0 3.757 3.757 0 0 0 2.812 3.632v5.743h-.938a.938.938 0 0 1-.937-.937v-.201c0-1.742-.65-3.378-1.782-4.488-1.68-1.648-2.337-4.031-1.758-6.374.57-2.307 2.439-4.147 4.76-4.689a6.94 6.94 0 0 1 1.577-.182c1.486 0 2.921.487 4.09 1.415a6.533 6.533 0 0 1 2.486 5.144 6.52 6.52 0 0 1-1.916 4.635zm-2.773 8.552c0 .517-.42.938-.935.938H15.06a.938.938 0 0 1-.935-.938v-1h3.742zm3.37-19.8c-2.031-1.612-4.677-2.191-7.259-1.59-3.001.7-5.418 3.08-6.156 6.065-.74 2.994.107 6.045 2.267 8.162.775.76 1.22 1.909 1.22 3.15v.2c0 .832.362 1.58.937 2.095v1.718a2.816 2.816 0 0 0 2.812 2.813h1.875a2.816 2.816 0 0 0 2.813-2.813v-1.718a2.806 2.806 0 0 0 .937-2.094v-.205c0-1.222.469-2.392 1.286-3.21a8.383 8.383 0 0 0 2.464-5.96c0-2.59-1.164-5-3.195-6.612z"/></g></g></g></svg>