<svg xmlns="http://www.w3.org/2000/svg" width="28" height="32" viewBox="0 0 28 32"><g><g><g><path fill="#ee0d37" d="M14.463 26.11H5.958a.935.935 0 0 0-.938.933c0 .514.42.932.938.932h8.505a.935.935 0 0 0 .938-.932.935.935 0 0 0-.938-.933z"/></g><g><path fill="#ee0d37" d="M22.024 22.59H5.957a.935.935 0 0 0-.937.933c0 .515.42.932.938.932h16.066a.935.935 0 0 0 .938-.932.935.935 0 0 0-.938-.933z"/></g><g><path fill="#ee0d37" d="M22.024 19.08H5.957a.938.938 0 0 0 0 1.875h16.067a.937.937 0 1 0 0-1.875z"/></g><g><path fill="#ee0d37" d="M25.037 30.125H2.946c-.286 0-.555-.111-.758-.314a1.062 1.062 0 0 1-.313-.757V2.946c0-.286.111-.555.314-.758.202-.202.47-.313.757-.313h17.137v5.087c0 .518.42.938.938.938h5.087v21.154c0 .286-.111.555-.314.758-.202.202-.47.313-.757.313zm.694-24.11h-3.773V2.567zm1.948-.748L22.202.247A.938.938 0 0 0 21.57 0H2.946C2.158 0 1.418.307.864.863A2.924 2.924 0 0 0 0 2.946v26.108c0 .788.307 1.527.863 2.082A2.924 2.924 0 0 0 2.946 32h22.092c.787 0 1.527-.307 2.082-.863a2.925 2.925 0 0 0 .863-2.083V5.958a.938.938 0 0 0-.304-.69z"/></g><g><path fill="#ee0d37" d="M23.53 10.04h-3.013a.937.937 0 1 0 0 1.875h.57v4.083a.938.938 0 0 0 1.874 0v-4.083h.569a.938.938 0 0 0 0-1.875z"/></g><g><path fill="#ee0d37" d="M5.016 15.998a.938.938 0 0 0 1.875 0v-4.083h.569a.938.938 0 0 0 0-1.875H4.447a.937.937 0 1 0 0 1.875h.57v4.083z"/></g><g><path fill="#ee0d37" d="M9.977 16.936h3.013a.938.938 0 0 0 0-1.875h-2.075v-.636h1.07a.937.937 0 1 0 0-1.875h-1.07v-.635h2.075a.938.938 0 0 0 0-1.875H9.977a.938.938 0 0 0-.937.938v5.02c0 .518.42.938.938.938z"/></g><g><path fill="#ee0d37" d="M16.752 14.425h.503a.317.317 0 1 1 0 .636H16a.937.937 0 1 0 0 1.875h1.255c1.21 0 2.192-.984 2.192-2.193 0-1.212-.98-2.193-2.192-2.193h-.503c-.42 0-.42-.635 0-.635h1.256a.938.938 0 0 0 0-1.875h-1.256a2.195 2.195 0 0 0-2.192 2.194 2.19 2.19 0 0 0 2.192 2.191z"/></g></g></g></svg>