<svg xmlns="http://www.w3.org/2000/svg" width="32" height="32" viewBox="0 0 32 32"><g><g><g><path fill="#ee0d37" d="M17.715 29.154l-.326-5.226a25.037 25.037 0 0 0 4.25-2.232c.018 1.98-.667 3.849-2.051 5.58a12.658 12.658 0 0 1-1.873 1.878zM4.682 12.378c1.734-1.384 3.606-2.07 5.587-2.051a25.009 25.009 0 0 0-2.235 4.25l-5.232-.327a12.651 12.651 0 0 1 1.88-1.872zm20.543-9.56a31.862 31.862 0 0 1 4.675-.752 31.659 31.659 0 0 1-.754 4.665zm-15.41 12.54c.966-2.364 2.364-4.784 4.383-6.803 2.69-2.69 6.092-4.253 8.924-5.152l5.441 5.44c-.9 2.833-2.462 6.235-5.152 8.925-2.044 2.043-4.5 3.436-6.804 4.383zm-2.759 6.128l.032-.032 3.424 3.424-.032.031c-1.89 1.89-4.636 2.512-6.138 2.715.203-1.503.824-4.248 2.714-6.138zm-.045-2.86l1.661-1.66L15 23.286l-1.66 1.658zM31.621.345a.966.966 0 0 0-.7-.286c-.114.002-2.835.046-6.421.934-3.33.825-8.059 2.567-11.677 6.185-.42.421-.815.857-1.187 1.304-2.933-.398-5.753.426-8.224 2.42C1.306 12.605.2 14.556.154 14.638a.973.973 0 0 0 .788 1.446l5.519.344-1.512 1.513a.972.972 0 0 0 0 1.375l.764.764-.032.031c-3.278 3.278-3.38 8.357-3.382 8.572a.972.972 0 0 0 .972.985h.013c.214-.003 5.293-.105 8.571-3.383l.031-.032.765.765a.972.972 0 0 0 1.375 0l1.512-1.513.345 5.52a.972.972 0 0 0 1.446.788c.082-.047 2.032-1.152 3.733-3.259 1.995-2.47 2.82-5.29 2.421-8.224.447-.371.883-.766 1.303-1.186 3.619-3.618 5.361-8.347 6.186-11.677.888-3.586.932-6.307.933-6.421a.972.972 0 0 0-.284-.7z"/></g><g><path fill="#ee0d37" d="M21.857 12.902c-.373.373-.869.578-1.396.578a1.974 1.974 0 1 1 1.396-3.367c.373.372.579.868.579 1.395s-.206 1.022-.579 1.394zM20.456 7.59c-1.047 0-2.03.407-2.77 1.147a3.922 3.922 0 0 0 0 5.54 3.892 3.892 0 0 0 2.77 1.148c1.046 0 2.03-.407 2.77-1.148a3.891 3.891 0 0 0 1.147-2.77c0-1.046-.407-2.03-1.147-2.77a3.891 3.891 0 0 0-2.77-1.147z"/></g></g></g></svg>