<svg xmlns="http://www.w3.org/2000/svg" width="29" height="32" viewBox="0 0 29 32"><g><g><g><path fill="#ee0d37" d="M15.938 24.377H13.03a4.663 4.663 0 0 0-.846-1.874h11.252c1.551 0 2.813 1.26 2.813 2.81v4.809h-1.875v-4.809a.937.937 0 0 0-1.875 0v4.809h-5.625v-4.809a.937.937 0 0 0-.938-.936zm-4.698 5.745H5.621v-4.809a.937.937 0 1 0-1.873 0v4.809H1.875v-4.809c0-1.55 1.26-2.81 2.81-2.81H8.43c1.549 0 2.809 1.26 2.809 2.81zm12.197-9.492H4.688A4.693 4.693 0 0 0 0 25.318v5.75c0 .517.42.937.938.937h11.25c.517 0 .937-.42.937-.938v-4.812H15v4.812c0 .518.42.938.938.938h11.25c.517 0 .937-.42.937-.938v-5.75a4.693 4.693 0 0 0-4.688-4.687z"/></g><g><path fill="#ee0d37" d="M7.497 18.74a2.813 2.813 0 0 1-2.812-2.807 2.813 2.813 0 0 1 5.625 0 2.813 2.813 0 0 1-2.813 2.807zm4.678-2.802a4.69 4.69 0 0 0-4.682-4.688 4.69 4.69 0 0 0-4.683 4.688 4.69 4.69 0 0 0 4.683 4.687 4.69 4.69 0 0 0 4.682-4.688z"/></g><g><path fill="#ee0d37" d="M20.622 18.74c-1.549 0-2.809-1.26-2.809-2.807a2.812 2.812 0 0 1 2.81-2.808c1.549 0 2.809 1.26 2.809 2.808a2.812 2.812 0 0 1-2.81 2.807zm4.693-2.802a4.693 4.693 0 0 0-4.688-4.688 4.693 4.693 0 0 0-4.687 4.688 4.693 4.693 0 0 0 4.688 4.687 4.693 4.693 0 0 0 4.687-4.688z"/></g><g><path fill="#ee0d37" d="M6.566 1.875h14.993a2.815 2.815 0 0 1 2.812 2.813A2.815 2.815 0 0 1 21.559 7.5h-5.622a.937.937 0 0 0-.663.275l-1.211 1.212-1.212-1.212a.937.937 0 0 0-.663-.275H6.566a2.815 2.815 0 0 1-2.812-2.813 2.815 2.815 0 0 1 2.812-2.812zm.002 7.5h5.236l1.6 1.6a.935.935 0 0 0 1.326 0l1.6-1.6h5.238a4.693 4.693 0 0 0 4.687-4.688A4.693 4.693 0 0 0 21.567 0h-15A4.693 4.693 0 0 0 1.88 4.688a4.693 4.693 0 0 0 4.687 4.687z"/></g><g><path fill="#ee0d37" d="M8.438 5.625a.937.937 0 1 0 0-1.875.937.937 0 0 0 0 1.875z"/></g><g><path fill="#ee0d37" d="M14.067 5.625a.937.937 0 1 0 0-1.875.937.937 0 0 0 0 1.875z"/></g><g><path fill="#ee0d37" d="M19.688 5.625a.937.937 0 1 0 0-1.875.937.937 0 0 0 0 1.875z"/></g></g></g></svg>