<svg xmlns="http://www.w3.org/2000/svg" width="32" height="30" viewBox="0 0 32 30"><g><g><g><path fill="#ee0d37" d="M7.333 11.33H5a1 1 0 0 1 0-2h2.333a1 1 0 0 1 0 2z"/></g><g><path fill="#ee0d37" d="M7.333 25.33H5a1 1 0 0 1 0-2h2.333a1 1 0 0 1 0 2z"/></g><g><path fill="#ee0d37" d="M14.997 14.67H6.33a1 1 0 0 1 0-2h8.667a1 1 0 0 1 0 2z"/></g><g><path fill="#ee0d37" d="M27.003 18H7.67a1 1 0 0 1 0-2h19.333a1 1 0 0 1 0 2z"/></g><g><path fill="#ee0d37" d="M14.997 22H6.33a1 1 0 0 1 0-2h8.667a1 1 0 0 1 0 2z"/></g><g><path fill="#ee0d37" d="M28.333 2C29.252 2 30 2.748 30 3.667v22c0 .918-.748 1.666-1.667 1.666H3.667A1.669 1.669 0 0 1 2 25.667v-22C2 2.748 2.748 2 3.667 2zM32 25.667v-22A3.67 3.67 0 0 0 28.333 0H3.667A3.67 3.67 0 0 0 0 3.667v22a3.67 3.67 0 0 0 3.667 3.666h24.666A3.67 3.67 0 0 0 32 25.667z"/></g><g><path fill="#ee0d37" d="M31 6.67H1a1 1 0 0 1 0-2h30a1 1 0 0 1 0 2z"/></g></g></g></svg>